<?xml version="1.0" encoding="UTF-8" standalone="no"?>
<svg
   xmlns:dc="http://purl.org/dc/elements/1.1/"
   xmlns:cc="http://creativecommons.org/ns#"
   xmlns:rdf="http://www.w3.org/1999/02/22-rdf-syntax-ns#"
   xmlns:svg="http://www.w3.org/2000/svg"
   xmlns="http://www.w3.org/2000/svg"
   xmlns:sodipodi="http://sodipodi.sourceforge.net/DTD/sodipodi-0.dtd"
   xmlns:inkscape="http://www.inkscape.org/namespaces/inkscape"
   sodipodi:docname="b-heart.svg"
   inkscape:version="1.0 (4035a4fb49, 2020-05-01)"
   id="svg212"
   version="1.1"
   viewBox="0 0 6.3504252 5.6545134"
   height="5.6545134mm"
   width="6.3504252mm">
  <defs
     id="defs206">
    <inkscape:path-effect
       end_linecap_type="zerowidth"
       scale_width="1"
       miter_limit="4"
       linejoin_type="extrp_arc"
       start_linecap_type="zerowidth"
       interpolator_beta="0.2"
       interpolator_type="CubicBezierJohan"
       sort_points="true"
       offset_points="0,0.1322915"
       lpeversion="1"
       is_visible="true"
       id="path-effect391"
       effect="powerstroke" />
    <inkscape:path-effect
       only_selected="false"
       apply_with_weight="true"
       apply_no_weight="true"
       helper_size="0"
       steps="2"
       weight="33.333333"
       lpeversion="1"
       is_visible="true"
       id="path-effect389"
       effect="bspline" />
    <inkscape:path-effect
       end_linecap_type="zerowidth"
       scale_width="1"
       miter_limit="4"
       linejoin_type="extrp_arc"
       start_linecap_type="zerowidth"
       interpolator_beta="0.2"
       interpolator_type="CubicBezierJohan"
       sort_points="true"
       offset_points="0,0.1322915"
       lpeversion="1"
       is_visible="true"
       id="path-effect385"
       effect="powerstroke" />
    <inkscape:path-effect
       end_linecap_type="zerowidth"
       scale_width="1"
       miter_limit="4"
       linejoin_type="extrp_arc"
       start_linecap_type="zerowidth"
       interpolator_beta="0.2"
       interpolator_type="CubicBezierJohan"
       sort_points="true"
       offset_points="11,0.1322915"
       lpeversion="1"
       is_visible="true"
       id="path-effect379"
       effect="powerstroke" />
    <inkscape:path-effect
       end_linecap_type="zerowidth"
       scale_width="1"
       miter_limit="4"
       linejoin_type="extrp_arc"
       start_linecap_type="zerowidth"
       interpolator_beta="0.2"
       interpolator_type="CubicBezierJohan"
       sort_points="true"
       offset_points="0,0.1322915"
       lpeversion="1"
       is_visible="true"
       id="path-effect373"
       effect="powerstroke" />
    <inkscape:path-effect
       only_selected="false"
       apply_with_weight="true"
       apply_no_weight="true"
       helper_size="0"
       steps="2"
       weight="33.333333"
       lpeversion="1"
       is_visible="true"
       id="path-effect359"
       effect="bspline" />
  </defs>
  <sodipodi:namedview
     inkscape:window-maximized="0"
     inkscape:window-y="0"
     inkscape:window-x="160"
     inkscape:window-height="1030"
     inkscape:window-width="1339"
     showgrid="false"
     inkscape:document-rotation="0"
     inkscape:current-layer="layer1"
     inkscape:document-units="mm"
     inkscape:cy="5.6729113"
     inkscape:cx="104.30828"
     inkscape:zoom="4"
     inkscape:pageshadow="2"
     inkscape:pageopacity="0.0"
     borderopacity="1.0"
     bordercolor="#666666"
     pagecolor="#ffffff"
     id="base" />
  <metadata
     id="metadata209">
    <rdf:RDF>
      <cc:Work
         rdf:about="">
        <dc:format>image/svg+xml</dc:format>
        <dc:type
           rdf:resource="http://purl.org/dc/dcmitype/StillImage" />
        <dc:title></dc:title>
      </cc:Work>
    </rdf:RDF>
  </metadata>
  <g
     transform="translate(-127.60455,-99.226318)"
     id="layer1"
     inkscape:groupmode="layer"
     inkscape:label="Capa 1">
    <g
       transform="matrix(0.26458333,0,0,0.26458333,126.54643,-172.23348)"
       fill="#303043"
       class="color000 svgShape"
       id="g221">
      <path
         fill="#f05542"
         fill-rule="evenodd"
         d="m 6.32377,1028.3201 c -2.43669,2.4458 -2.43669,6.3836 0,8.8295 l 0.87967,0.883 8.79671,8.8296 8.79671,-8.8296 0.87967,-0.883 c 2.43669,-2.4459 2.43669,-6.3837 0,-8.8295 -2.43669,-2.4459 -6.36002,-2.4459 -8.79671,0 l -0.87967,0.8829 -0.87967,-0.8829 c -2.43669,-2.4459 -6.36002,-2.4459 -8.79671,0 z"
         class="colorf05542 svgShape"
         id="path215" />
      <path
         style="line-height:normal;text-indent:0;text-align:start;text-decoration:none;text-decoration-line:none;text-decoration-style:solid;text-decoration-color:#000000;text-transform:none;isolation:auto;mix-blend-mode:normal"
         fill-rule="evenodd"
         d="m 10.722656,1025.9902 c -1.7197663,0 -3.4408644,0.6586 -4.753906,1.9766 -2.6260776,2.6359 -2.626066,6.8992 0,9.5352 l 0.8808594,0.8828 8.7968746,8.83 a 0.50005,0.50005 0 0 0 0.707032,0 l 8.796875,-8.83 0.880859,-0.8828 c 2.626066,-2.636 2.626078,-6.8993 0,-9.5352 -2.626083,-2.636 -6.879776,-2.636 -9.505859,0 L 16,1028.4941 l -0.525391,-0.5273 c -1.313041,-1.318 -3.032186,-1.9766 -4.751953,-1.9766 z m 0,0.9903 c 1.460244,0 2.919321,0.5654 4.042969,1.6933 l 0.880859,0.8828 a 0.50005,0.50005 0 0 0 0.707032,0 l 0.880859,-0.8828 c 2.247297,-2.2558 5.840594,-2.2558 8.087891,0 2.247302,2.2557 2.247314,5.8673 0,8.1231 l -0.878907,0.8828 -8.443359,8.4746 -8.4414062,-8.4746 -0.8808594,-0.8828 c -2.2473141,-2.2558 -2.2473024,-5.8674 0,-8.1231 1.1236484,-1.1279 2.5846784,-1.6933 4.0449216,-1.6933 z"
         color="#000000"
         font-family="sans-serif"
         font-weight="400"
         overflow="visible"
         white-space="normal"
         fill="#303043"
         class="color000 svgShape"
         id="path217" />
      <path
         style="line-height:normal;text-indent:0;text-align:start;text-decoration:none;text-decoration-line:none;text-decoration-style:solid;text-decoration-color:#000000;text-transform:none;isolation:auto;mix-blend-mode:normal"
         fill-rule="evenodd"
         d="m 10.75,1027.9902 c -1.6962101,0 -3.2651762,0.9061 -4.1132812,2.375 -0.8481051,1.469 -0.848105,3.2811 0,4.75 a 0.50005,0.50005 0 1 0 0.8652343,-0.5 c -0.6702737,-1.1609 -0.6702738,-2.589 0,-3.75 0.6702738,-1.1609 1.9074993,-1.875 3.2480469,-1.875 a 0.50005,0.50005 0 1 0 0,-1 z"
         color="#000000"
         font-family="sans-serif"
         font-weight="400"
         overflow="visible"
         white-space="normal"
         fill="#303043"
         class="color000 svgShape"
         id="path219" />
    </g>
    <path
       inkscape:original-d="m 130.7798,100.07647 c -0.33416,0.31199 -0.67097,0.62133 -1.01042,0.92802 0.0494,0.003 0.0962,0.003 0.14031,0 0.12737,0.0416 0.2521,0.0806 0.37418,0.11693 0.29887,0.11958 0.59509,0.23651 0.88867,0.3508 -0.30137,0.28327 -0.60539,0.56391 -0.91205,0.84189 0.0416,0.003 0.0806,0.003 0.11693,0 0.15855,0.0806 0.31446,0.15856 0.46772,0.23386 0.18973,0.065 0.37682,0.12738 0.56126,0.18709 -0.0753,0.0572 -0.15326,0.11179 -0.23386,0.16371 -0.26239,0.13516 -0.52744,0.26768 -0.79512,0.39756 0.0572,0.065 0.11178,0.12737 0.1637,0.18709 0.0806,0.19753 0.15855,0.39241 0.23386,0.58465 0.0338,0.026 0.065,0.0494 0.0935,0.0702 -0.0269,0.14374 -0.0565,0.28483 -0.0888,0.42328"
       inkscape:path-effect="#path-effect389;#path-effect391"
       id="path387"
       d="m 130.7798,100.07647 c 0,0 -0.0895,-0.09743 -0.0895,-0.09743 v 0 c -0.14616,0.134243 -0.3288,0.302383 -0.48124,0.446353 v 0 c -0.0696,0.0657 -0.13699,0.13026 -0.19626,0.18864 v 0 c -0.0556,0.0548 -0.10577,0.10581 -0.14446,0.14822 l 0,0 c -0.0186,0.0204 -0.0352,0.0395 -0.0494,0.0571 v 0 c -0.0138,0.0171 -0.0264,0.034 -0.0369,0.0506 v 0 c -0.01,0.0157 -0.0205,0.0348 -0.0277,0.0563 v 0 c -0.004,0.0109 -0.007,0.0238 -0.008,0.0383 l 0,0 c -0.001,0.0145 -0.001,0.0309 0.003,0.0483 v 0 c 0.004,0.0175 0.0106,0.034 0.0202,0.0489 v 0 c 0.009,0.0145 0.0204,0.0259 0.0311,0.0347 l 1e-5,0 c 0.0105,0.009 0.0209,0.0148 0.0299,0.0193 l 0,0 c 0.009,0.005 0.0174,0.008 0.0248,0.0104 v 0 c 0.0141,0.005 0.0279,0.008 0.0386,0.0102 v 0 c 0.01,0.002 0.0227,0.004 0.0312,0.006 l 0,0 c 0.0379,0.007 0.0873,0.0194 0.1556,0.0397 v 0 c 0.0651,0.0194 0.14731,0.0462 0.25425,0.084 l 0,0 c 0.052,0.0184 0.10811,0.0387 0.16305,0.0618 l 0,0 c 0.0542,0.0228 0.10586,0.0476 0.15009,0.0748 l 0,0 c 0.0217,0.0134 0.0411,0.027 0.0578,0.0407 v 0 c 0.0166,0.0137 0.0299,0.027 0.0402,0.0398 l 0,0 c 0.0101,0.0127 0.017,0.0245 0.0215,0.0354 v 0 c 0.004,0.0107 0.007,0.0216 0.007,0.0334 l 0,0 c 1.3e-4,0.0124 -0.002,0.0285 -0.009,0.0487 l 0,0 c -0.006,0.02 -0.0159,0.0424 -0.0291,0.0671 v 0 c -0.0263,0.0493 -0.064,0.10265 -0.10815,0.15752 v 0 c -0.0435,0.0541 -0.0914,0.10714 -0.13746,0.15663 v 0 c -0.0454,0.0488 -0.0883,0.0932 -0.12214,0.13083 l 0,0 c -0.0167,0.0186 -0.0313,0.0355 -0.0436,0.051 l 0,0 c -0.0122,0.0153 -0.023,0.0302 -0.0318,0.0446 v 0 c -0.009,0.014 -0.0169,0.0302 -0.0221,0.0479 l 0,0 c -0.003,0.009 -0.005,0.0194 -0.005,0.0305 l 0,0 c -5.4e-4,0.0113 4.7e-4,0.0231 0.004,0.035 l 0,0 c 0.003,0.012 0.008,0.0228 0.0146,0.0323 l 0,0 c 0.006,0.009 0.0132,0.0169 0.0201,0.0229 v 0 c 0.0131,0.0115 0.0272,0.019 0.0382,0.0241 l 0,0 c 0.0112,0.005 0.0232,0.01 0.0339,0.0134 l 0,0 c 0.0111,0.004 0.0223,0.008 0.0339,0.0119 l 0,0 c 0.0234,0.008 0.0509,0.0195 0.0821,0.0324 v 0 c 0.0311,0.0129 0.0653,0.0276 0.10223,0.0434 v 0 c 0.0735,0.0315 0.15729,0.0671 0.24521,0.10083 v 0 c 0.088,0.0337 0.17827,0.0649 0.25183,0.0938 v 0 c 0.0372,0.0146 0.0692,0.0282 0.0949,0.0411 v 0 c 0.0128,0.006 0.0235,0.0123 0.0321,0.0178 l 0,0 c 0.009,0.006 0.0143,0.01 0.018,0.013 l 0,0 c 0.003,0.003 0.004,0.004 0.004,0.003 l 0,0 c 7e-5,-5.2e-4 6e-5,-0.002 2.1e-4,-0.003 v 0 c 1.6e-4,-0.001 4.5e-4,-0.002 8e-4,-0.002 v 0 c 6.8e-4,-0.001 0.001,1.6e-4 -5.7e-4,0.004 v 0 c -0.002,0.004 -0.006,0.009 -0.0119,0.0157 v 0 c -0.0129,0.0137 -0.0336,0.03 -0.0626,0.0493 l 0,0 c -0.0289,0.0193 -0.0646,0.0406 -0.10659,0.0646 l 0,0 c -0.0847,0.0484 -0.19346,0.10692 -0.29324,0.16572 v 0 c -0.0506,0.0298 -0.099,0.0598 -0.14143,0.0888 v 0 c -0.0214,0.0146 -0.0413,0.0291 -0.0593,0.0433 v 0 c -0.018,0.0142 -0.0343,0.0282 -0.0481,0.0419 l 0,0 c -0.0139,0.0138 -0.0254,0.0273 -0.0347,0.0407 l 0,0 c -0.009,0.0135 -0.0164,0.0271 -0.0213,0.0407 v 0 c -0.005,0.0138 -0.007,0.0274 -0.008,0.041 l 0,0 c -5e-4,0.0136 0.001,0.0268 0.004,0.0396 v 0 c 0.006,0.0255 0.0179,0.0507 0.0314,0.0759 v 0 c 0.014,0.0261 0.0305,0.0537 0.0472,0.0848 l 0,0 c 0.0344,0.0637 0.0724,0.14534 0.10737,0.2207 v 0 c 0.0184,0.0396 0.0359,0.0774 0.0526,0.1125 v 0 c 0.0171,0.0359 0.0331,0.0681 0.0475,0.0948 l 0,0 c 0.0148,0.0273 0.028,0.0492 0.039,0.0672 v 0 c 0.0117,0.019 0.0209,0.0337 0.0286,0.0479 v 0 c 0.008,0.0145 0.0137,0.0278 0.0178,0.0424 v 0 c 0.004,0.0152 0.006,0.0317 0.007,0.0515 l 0,0 c 3.1e-4,0.0209 -0.001,0.0453 -0.004,0.0715 v 0 c -0.003,0.0278 -0.007,0.0578 -0.0125,0.0882 v 0 c -0.0111,0.0665 -0.0267,0.14227 -0.0393,0.20272 0.0122,-0.0582 0.0295,-0.13821 0.0415,-0.20233 v 0 c 0.006,-0.0302 0.0109,-0.0603 0.0148,-0.088 v 0 c 0.004,-0.0261 0.006,-0.0507 0.007,-0.072 l 0,0 c 7.3e-4,-0.0203 -4.1e-4,-0.0377 -0.004,-0.0541 v 0 c -0.003,-0.0158 -0.008,-0.0304 -0.0153,-0.0463 v 0 c -0.007,-0.0153 -0.0152,-0.0312 -0.0255,-0.0507 v 0 c -0.01,-0.0186 -0.0216,-0.0409 -0.0348,-0.0683 l 0,0 c -0.0129,-0.0269 -0.0273,-0.0593 -0.0429,-0.0957 v 0 c -0.0153,-0.0356 -0.0313,-0.0738 -0.0482,-0.11416 v 0 c -0.032,-0.0763 -0.0674,-0.16031 -0.0994,-0.22678 l 0,0 c -0.0157,-0.0327 -0.0308,-0.0614 -0.0425,-0.0868 v 0 c -0.0116,-0.0253 -0.0194,-0.0463 -0.0222,-0.0651 v 0 c -0.001,-0.009 -0.002,-0.0176 -5.4e-4,-0.0255 l 0,0 c 0.001,-0.008 0.003,-0.0157 0.007,-0.0238 v 0 c 0.004,-0.008 0.009,-0.0167 0.0164,-0.0261 l 0,0 c 0.007,-0.009 0.017,-0.0195 0.0294,-0.0306 l 0,0 c 0.0123,-0.011 0.0271,-0.0228 0.0444,-0.0352 v 0 c 0.0171,-0.0124 0.0363,-0.0252 0.0573,-0.0385 v 0 c 0.0417,-0.0264 0.0896,-0.0538 0.14032,-0.0816 v 0 c 0.10184,-0.0556 0.20767,-0.1083 0.2976,-0.15514 l 0,0 c 0.0432,-0.0225 0.0818,-0.0432 0.1141,-0.0623 l 0,0 c 0.0318,-0.0188 0.0598,-0.0374 0.081,-0.0563 v 0 c 0.0107,-0.01 0.0207,-0.02 0.0288,-0.0316 v 0 c 0.008,-0.0116 0.015,-0.0253 0.0182,-0.0411 v 0 c 0.002,-0.008 0.002,-0.0161 0.002,-0.0244 v 0 c -5.2e-4,-0.008 -0.002,-0.0164 -0.005,-0.0242 l 0,0 c -0.005,-0.0155 -0.0137,-0.0288 -0.0236,-0.0403 l 0,0 c -0.01,-0.0113 -0.0216,-0.0216 -0.034,-0.0308 l 0,0 c -0.0125,-0.009 -0.0264,-0.0183 -0.0413,-0.0269 v 0 c -0.0297,-0.0172 -0.065,-0.0344 -0.10285,-0.0514 v 0 c -0.076,-0.0341 -0.16506,-0.0691 -0.24869,-0.1053 v 0 c -0.0837,-0.0362 -0.16367,-0.0745 -0.23524,-0.10937 v 0 c -0.0454,-0.0221 -0.0551,-0.027 -0.10048,-0.0491 v 0 c -0.0309,-0.015 -0.0597,-0.0287 -0.085,-0.0401 l -1e-5,0 c -0.0129,-0.006 -0.0243,-0.0107 -0.0335,-0.0149 l 0,0 c -0.009,-0.004 -0.016,-0.008 -0.0199,-0.0102 l 0,0 c -0.006,-0.004 -9.6e-4,-0.002 6.9e-4,-4.9e-4 v 0 c 0.002,0.002 0.005,0.004 0.008,0.009 l 0,0 c 0.003,0.005 0.006,0.0101 0.008,0.0165 l 0,0 c 0.002,0.006 0.002,0.0121 0.002,0.0169 l 0,0 c -8e-5,0.005 -7.1e-4,0.008 -9.6e-4,0.009 l 0,0 c -4.7e-4,0.003 3e-4,0.001 0.005,-0.005 v 0 c 0.005,-0.006 0.0113,-0.0144 0.0218,-0.0262 l 0,0 c 0.0103,-0.0116 0.0232,-0.0253 0.0393,-0.0418 l 0,0 c 0.032,-0.0328 0.0765,-0.0763 0.12482,-0.12536 v 0 c 0.0486,-0.0494 0.10145,-0.10496 0.15068,-0.16298 v 0 c 0.0495,-0.0583 0.0968,-0.1208 0.1328,-0.18374 v 0 c 0.0182,-0.0319 0.0342,-0.065 0.0461,-0.0986 l 0,0 c 0.0119,-0.0338 0.0202,-0.0698 0.0217,-0.10677 l 0,0 c 0.002,-0.0379 -0.004,-0.074 -0.0159,-0.10777 v 0 c -0.0116,-0.0338 -0.0287,-0.0642 -0.0487,-0.0915 l 0,0 c -0.0201,-0.0273 -0.0436,-0.0519 -0.0684,-0.0738 v 0 c -0.0251,-0.0222 -0.0522,-0.0423 -0.0801,-0.0607 l 0,0 c -0.0562,-0.037 -0.11811,-0.0685 -0.17735,-0.0953 l 0,0 c -0.0603,-0.0273 -0.12084,-0.0511 -0.17273,-0.0712 l 0,0 c -0.10773,-0.0418 -0.19207,-0.0729 -0.26034,-0.0966 v 0 c -0.0715,-0.0248 -0.12669,-0.0418 -0.17225,-0.0538 l 0,0 c -0.0126,-0.003 -0.0213,-0.005 -0.029,-0.008 v 0 c -0.007,-0.002 -0.0117,-0.004 -0.0107,-0.004 v 0 c 3.7e-4,-5e-5 0.002,3.6e-4 0.005,0.002 l 0,0 c 0.003,0.001 0.008,0.004 0.0144,0.009 l 0,0 c 0.006,0.005 0.0136,0.0123 0.0202,0.0224 v 0 c 0.007,0.0104 0.0116,0.022 0.0142,0.034 v 0 c 0.003,0.0119 0.003,0.0223 0.002,0.0303 l 0,0 c -7.3e-4,0.008 -0.002,0.0135 -0.003,0.0166 v 0 c -0.002,0.006 -0.002,0.006 0.002,-2.1e-4 v 0 c 0.004,-0.006 0.0108,-0.0143 0.0214,-0.0267 v 0 c 0.0107,-0.0125 0.0242,-0.0273 0.0411,-0.0451 l 0,0 c 0.0352,-0.037 0.0824,-0.0839 0.13754,-0.13701 v 0 c 0.0582,-0.0561 0.12492,-0.11889 0.1943,-0.18354 v 0 c 0.1474,-0.13734 0.33898,-0.31265 0.48072,-0.44283 v 0 c 0,0 -0.0895,-0.0974 -0.0895,-0.0974 z"
       style="fill:#303043;fill-opacity:1;fill-rule:nonzero;stroke:none;stroke-width:0.264583px;stroke-linecap:butt;stroke-linejoin:miter;stroke-opacity:1" />
  </g>
</svg>
