<svg id="SvgjsSvg1001" width="288" height="288" xmlns="http://www.w3.org/2000/svg" version="1.1" xmlns:xlink="http://www.w3.org/1999/xlink" xmlns:svgjs="http://svgjs.com/svgjs"><defs id="SvgjsDefs1002"></defs><g id="SvgjsG1008" transform="matrix(0.9167,0,0,0.9167,11.995051286315913,11.995016967773438)"><svg xmlns="http://www.w3.org/2000/svg" width="288" height="288" viewBox="0 0 48 48"><g fill="#ff1f2d" transform="translate(8.33 -1013.12)" class="colorfff svgShape"><circle cx="37.045" cy="28.409" r="12.5" fill="#ff634d" fill-rule="evenodd" transform="matrix(1.92 0 0 1.92 -55.457 982.574)" class="colorffa40b svgShape"></circle><path style="line-height:normal;-inkscape-font-specification:Sans;text-indent:0;text-align:start;text-decoration-line:none;text-transform:none;block-progression:tb;marker:none" fill="#e34848" d="M 22.623047 47.951172 A 24 24 0 0 0 24 48 A 24 24 0 0 0 26.396484 47.880859 A 24 24 0 0 0 28.767578 47.521484 A 24 24 0 0 0 31.091797 46.927734 A 24 24 0 0 0 33.345703 46.105469 A 24 24 0 0 0 35.505859 45.0625 A 24 24 0 0 0 37.550781 43.808594 A 24 24 0 0 0 39.460938 42.355469 A 24 24 0 0 0 41.216797 40.720703 A 24 24 0 0 0 42.800781 38.917969 A 24 24 0 0 0 44.195312 36.966797 A 24 24 0 0 0 45.388672 34.886719 A 24 24 0 0 0 46.369141 32.697266 A 24 24 0 0 0 47.125 30.419922 A 24 24 0 0 0 47.650391 28.080078 A 24 24 0 0 0 47.939453 25.697266 A 24 24 0 0 0 48 24 A 24 24 0 0 0 47.980469 23.619141 L 33.035156 8.6738281 C 33.024847 8.6635188 33.01057 8.6565899 33 8.6464844 C 32.888583 8.5399765 32.766389 8.4418358 32.626953 8.3613281 C 32.274053 8.1575281 31.880653 8.0531781 31.501953 8.0800781 C 30.870653 8.1250781 30.278953 8.4919781 29.939453 9.0800781 C 29.756553 9.3967781 29.685353 9.7384782 29.689453 10.080078 L 28.564453 9.4238281 C 27.850253 9.0115281 26.914253 9.2409781 26.501953 9.9550781 C 26.423264 10.091353 26.376906 10.237524 26.345703 10.384766 C 26.340807 10.407956 26.333841 10.429812 26.330078 10.453125 C 26.306786 10.596115 26.304481 10.738632 26.322266 10.880859 C 26.325745 10.908854 26.332884 10.935141 26.337891 10.962891 C 26.363671 11.105757 26.404188 11.246378 26.46875 11.376953 C 26.470745 11.380987 26.472579 11.384654 26.474609 11.388672 C 26.540523 11.519187 26.628473 11.636095 26.730469 11.744141 C 26.740536 11.754817 26.745455 11.768892 26.755859 11.779297 L 26.818359 11.839844 L 27.40625 12.429688 L 25.501953 15.705078 L 23.285156 14.431641 L 22.09375 13.240234 C 22.02179 13.168234 21.939997 13.103428 21.845703 13.048828 C 21.370003 12.774128 20.809853 12.697378 20.314453 12.830078 C 19.818953 12.962778 19.370403 13.291878 19.095703 13.767578 C 19.031692 13.878447 18.983472 13.992746 18.943359 14.109375 C 18.929742 14.148921 18.921097 14.188534 18.910156 14.228516 C 18.889265 14.30479 18.870714 14.381735 18.859375 14.458984 C 18.852798 14.503989 18.849106 14.548631 18.845703 14.59375 C 18.839884 14.670246 18.838684 14.746051 18.841797 14.822266 C 18.843712 14.868838 18.846386 14.914702 18.851562 14.960938 C 18.860165 15.038263 18.875057 15.113727 18.892578 15.189453 C 18.901666 15.228692 18.908492 15.267999 18.919922 15.306641 C 18.951168 15.412375 18.98883 15.515575 19.037109 15.615234 C 19.040574 15.622383 19.043325 15.629608 19.046875 15.636719 C 19.046875 15.636719 19.046875 15.638672 19.046875 15.638672 C 19.09972 15.744342 19.165044 15.845608 19.236328 15.941406 C 19.257261 15.969499 19.282217 15.994401 19.304688 16.021484 C 19.344576 16.069628 19.381138 16.119417 19.425781 16.164062 L 22.376953 19.115234 C 22.368927 19.126815 22.352641 19.130205 22.345703 19.142578 L 13.095703 35.142578 C 13.037703 35.257278 13.025453 35.394778 13.064453 35.517578 L 14.126953 39.455078 L 22.623047 47.951172 z " color="#000" font-family="Sans" font-weight="400" transform="translate(-8.33 1013.12)" class="colorff7712 svgShape"></path><path d="m 23.501716,1020.4422 c -0.6313,0.045 -1.223,0.4119 -1.5625,1 -0.1829,0.3167 -0.2541,0.6584 -0.25,1 l -1.125,-0.6562 c -0.7142,-0.4123 -1.6502,-0.1829 -2.0625,0.5312 -0.4124,0.7142 -0.1517,1.6501 0.5625,2.0625 l 0.4375,0.25 -2,3.4375 -2.9375,-1.6875 c -0.1685,-0.374 -0.3423,-0.751 -0.7188,-0.9687 -0.4757,-0.2747 -1.0358,-0.3515 -1.5312,-0.2188 -0.4955,0.1327 -0.9441,0.4618 -1.2188,0.9375 -0.5493,0.9514 -0.2016,2.1695 0.75,2.7188 0.383,0.2213 0.8048,0.2021 1.2188,0.1562 l 2.2812,1.3125 1.3125,0.7188 0.1875,0.125 c 0.1012,1.2148 1.3957,1.9795 2.7188,1.625 0.1028,0.057 0.2931,0.1743 0.5312,0.3125 0.01,-0.01 -0.01,-0.022 0,-0.031 l 3.125,1.8125 c 0.1634,0.3821 0.3686,0.7482 0.75,0.9688 0.9515,0.5494 2.1694,0.2326 2.7188,-0.7188 0.5493,-0.9514 0.2327,-2.1694 -0.7188,-2.7187 -0.3854,-0.2226 -0.8337,-0.2041 -1.25,-0.1563 l -2.9062,-1.6875 2,-3.4375 0.4375,0.25 c 0.7141,0.4123 1.6501,0.1517 2.0625,-0.5625 0.4123,-0.7141 0.1516,-1.6189 -0.5625,-2.0312 l -1.125,-0.6563 c 0.2909,-0.1671 0.5392,-0.4079 0.7187,-0.7187 0.5432,-0.9409 0.2221,-2.1443 -0.7187,-2.6875 -0.3529,-0.2038 -0.7463,-0.3082 -1.125,-0.2813 z m -0.094,0.8125 c 0.096,-0.016 0.184,-0.012 0.2812,0 0.1296,0.016 0.2541,0.055 0.375,0.125 0.1054,0.061 0.2075,0.1308 0.2813,0.2188 -0.4069,-0.072 -0.844,0.1214 -1.0625,0.5 -0.2186,0.3783 -0.1719,0.8397 0.094,1.1562 -0.1131,-0.02 -0.2074,-0.064 -0.3125,-0.125 -0.4837,-0.2792 -0.6543,-0.8915 -0.375,-1.375 0.157,-0.2721 0.4319,-0.4513 0.7187,-0.5 z m -3.5313,1.3125 c 0.064,0.01 0.1252,0.026 0.1875,0.062 l 5.1875,3 c 0.2494,0.144 0.3315,0.4382 0.1875,0.6875 -0.144,0.2494 -0.4381,0.3315 -0.6875,0.1875 l -0.8437,-0.4687 c -0.01,-0.011 -0.02,-0.021 -0.031,-0.031 l -3.4688,-2 -0.8437,-0.5 c -0.2494,-0.1439 -0.3315,-0.4381 -0.1875,-0.6875 0.1079,-0.187 0.3065,-0.2772 0.5,-0.25 z m 0.4063,2.4063 0.7187,0.4062 -2.0312,3.5313 -0.7188,-0.4063 2.0313,-3.5312 z m -7.3438,1 c 0.3318,0.028 0.6421,0.2086 0.8438,0.5 0.078,0.113 0.1235,0.2184 0.1562,0.3437 -0.38,-0.2696 -0.9071,-0.2804 -1.3125,0 -0.4052,0.2803 -0.5869,0.7679 -0.4687,1.2188 -0.1057,-0.074 -0.2033,-0.1688 -0.2813,-0.2813 -0.3585,-0.518 -0.2054,-1.2355 0.3125,-1.5937 0.1295,-0.09 0.2621,-0.1259 0.4063,-0.1563 0.108,-0.023 0.2331,-0.041 0.3437,-0.031 z m 1.9063,5.2812 c -0.1952,-0.02 -0.403,0.077 -0.5,0.25 l -9.2500038,16 c -0.058,0.1147 -0.07,0.2522 -0.031,0.375 l 1.0625,3.9375 0.3125,-0.5625 -0.875,-3.2812 9.2500038,-16.0313 1.0625,-0.1875 -0.625,-0.3437 c -0.074,-0.022 -0.1404,-0.049 -0.2188,-0.094 -0.057,-0.033 -0.1224,-0.056 -0.1875,-0.062 z m 1.5,1.2813 c -0.014,0.01 -0.016,0.023 -0.031,0.031 -0.3821,0.2059 -1,0.1563 -1,0.1563 l -8.8438038,15.625 0.3125,2.3125 10.0625038,-17.4375 c -0.2302,-0.2099 -0.3743,-0.4534 -0.5,-0.6875 z m 1.375,1.125 -10.7500038,18.625 3.9062038,-1.0313 c 0.1212,-0.043 0.2243,-0.1347 0.2813,-0.25 l 9.25,-16 c 0.1037,-0.1658 0.076,-0.4013 -0.031,-0.5625 -0.018,-0.027 -0.04,-0.04 -0.062,-0.062 -0.3059,-0.1807 -0.8601,-0.5047 -1.125,-0.6562 l -0.062,0 c -0.12,0.01 -0.2971,0.031 -0.5,0.031 -0.2626,0 -0.5808,-0.016 -0.9063,-0.094 z" color="#000" font-family="Sans" font-weight="400" overflow="visible" transform="translate(-.33 .757)" style="line-height:normal;-inkscape-font-specification:Sans;text-indent:0;text-align:start;text-decoration-line:none;text-transform:none;block-progression:tb;marker:none" fill="#000000" class="color000 svgShape"></path></g></svg></g></svg>