<svg xmlns="http://www.w3.org/2000/svg" viewBox="0 0 48 48"><g data-name="Layer 2"><polygon fill="#ffb963" points="35.447 21.806 23.999 12.677 12.552 21.806 3.038 16.765 3.038 40.91 44.96 40.91 44.96 16.765 35.447 21.806"/><polygon fill="#f6cc7c" points="35.447 21.806 23.999 12.677 12.552 21.806 3.038 16.765 3.038 19.41 11.408 23.845 22.856 14.715 34.303 23.845 42.922 19.376 42.922 40.91 44.96 40.91 44.96 16.765 35.447 21.806"/><path fill="#daa158" d="M11.605,23.935,3.038,19.4V40.91h20.91L24,16.151a.4.4,0,0,0-.657-.318l-9.951,7.936A1.632,1.632,0,0,1,11.605,23.935Z"/><circle cx="23.999" cy="9.883" r="2.793" fill="#f6cc7c"/><circle cx="3.039" cy="14.715" r="2.039" fill="#f6cc7c"/><circle cx="44.961" cy="14.715" r="2.039" fill="#f6cc7c"/><path fill="#ffe7a8" d="M24 7.09A2.785 2.785 0 0 0 21.392 8.9a2.781 2.781 0 0 1 4.215 3.258A2.79 2.79 0 0 0 24 7.09zM3.039 12.677a2.035 2.035 0 0 0-1.976 1.558 2.016 2.016 0 0 1 .976-.259A2.018 2.018 0 0 1 4.015 16.5a2.032 2.032 0 0 0-.976-3.818zM44.961 12.677a2.036 2.036 0 0 0-1.976 1.558 2.019 2.019 0 0 1 .976-.259A2.039 2.039 0 0 1 46 16.015a2 2 0 0 1-.063.48 2.032 2.032 0 0 0-.976-3.818z"/><circle cx="23.559" cy="31.838" r="4.596" fill="#ff8c90"/><path fill="#e28186" d="M23.855,32.262c0,.8.118,3.623.015,4.172-.1.518-1.767,0-2.342-.152-1.292-.342-2.42-1.793-2.42-4s1.083-4,2.42-4S23.855,30.051,23.855,32.262Z"/></g><g data-name="Layer 3"><polygon fill="none" stroke="#323232" stroke-linejoin="round" stroke-width="1.5" points="35.447 21.806 23.999 12.677 12.552 21.806 3.038 16.765 3.038 40.91 44.96 40.91 44.96 16.765 35.447 21.806"/><polyline fill="none" stroke="#323232" stroke-linejoin="round" stroke-width="1.5" points="32.563 24.584 23.999 17.754 15.435 24.584"/><circle cx="23.999" cy="9.883" r="2.793" fill="none" stroke="#323232" stroke-linejoin="round" stroke-width="1.5"/><circle cx="3.039" cy="14.715" r="2.039" fill="none" stroke="#323232" stroke-linejoin="round" stroke-width="1.5"/><circle cx="44.961" cy="14.715" r="2.039" fill="none" stroke="#323232" stroke-linejoin="round" stroke-width="1.5"/><polyline fill="none" stroke="#323232" stroke-linejoin="round" stroke-width="1.5" points="41.581 26.512 41.581 37.531 39.657 37.531"/><polyline fill="none" stroke="#323232" stroke-linejoin="round" stroke-width="1.5" points="6.418 26.512 6.418 37.531 8.341 37.531"/><circle cx="23.559" cy="31.838" r="4.596" fill="none" stroke="#323232" stroke-linejoin="round" stroke-width="1.5"/><line x1="6.418" x2="6.418" y1="22.446" y2="24.497" fill="none" stroke="#323232" stroke-linejoin="round" stroke-width="1.5"/><line x1="41.581" x2="41.581" y1="22.446" y2="24.497" fill="none" stroke="#323232" stroke-linejoin="round" stroke-width="1.5"/></g></svg>