<svg id="SvgjsSvg1001" width="288" height="288" xmlns="http://www.w3.org/2000/svg" version="1.1" xmlns:xlink="http://www.w3.org/1999/xlink" xmlns:svgjs="http://svgjs.com/svgjs"><defs id="SvgjsDefs1002"></defs><g id="SvgjsG1008" transform="matrix(0.9167,0,0,0.9167,11.995200000000011,11.995230505371097)"><svg xmlns="http://www.w3.org/2000/svg" width="288" height="288" viewBox="0 0 48 48"><g transform="translate(0 -1004.362)" fill="#000000" class="color000 svgShape"><circle cx="24" cy="1028.362" r="24" fill="#b429f6" fill-rule="evenodd" class="colorffa40b svgShape"></circle><path fill="#912483" style="line-height:normal;text-indent:0;text-align:start;text-decoration-line:none;text-decoration-style:solid;text-decoration-color:#000;text-transform:none;block-progression:tb;isolation:auto;mix-blend-mode:normal" d="M 24.005859 9.9980469 A 0.50004997 0.50004997 0 0 0 23.847656 10.021484 L 20.171875 11.197266 A 0.50004997 0.50004997 0 0 0 19.845703 11.525391 C 19.393476 12.995891 18.040245 13.995594 16.501953 13.996094 C 15.735589 13.996094 14.991267 13.741391 14.382812 13.275391 A 0.50004997 0.50004997 0 0 0 13.925781 13.197266 L 11.347656 14.021484 A 0.50004997 0.50004997 0 0 0 11 14.498047 L 11 28.478516 C 10.998779 28.778784 11.017043 29.070799 11.046875 29.357422 C 11.05603 29.445508 11.072039 29.530378 11.083984 29.617188 C 11.111101 29.814052 11.142693 30.008868 11.183594 30.199219 C 11.204398 30.296073 11.227733 30.391146 11.251953 30.486328 C 11.296908 30.663008 11.348082 30.836852 11.404297 31.007812 C 11.434863 31.100758 11.464303 31.193888 11.498047 31.285156 C 11.562642 31.459889 11.635261 31.630191 11.710938 31.798828 C 11.746511 31.878103 11.778504 31.959171 11.816406 32.037109 C 11.911699 32.233068 12.01585 32.42374 12.125 32.611328 C 12.150784 32.655635 12.172704 32.70225 12.199219 32.746094 C 12.336951 32.973876 12.486477 33.192805 12.642578 33.408203 C 12.694653 33.480081 12.750735 33.548626 12.804688 33.619141 C 12.896995 33.739768 12.990424 33.859897 13.087891 33.976562 C 13.311667 34.244425 13.54567 34.504647 13.792969 34.751953 L 26.841797 47.800781 A 23.999998 23.999998 0 0 0 47.935547 25.306641 L 36.974609 14.345703 A 0.50004997 0.50004997 0 0 0 36.652344 14.023438 L 34.078125 13.199219 A 0.50004997 0.50004997 0 0 0 33.621094 13.275391 C 33.011716 13.742091 32.267527 13.994894 31.5 13.996094 C 31.282181 13.996094 31.069642 13.972202 30.861328 13.933594 C 30.796341 13.921555 30.733725 13.902323 30.669922 13.886719 C 30.595234 13.868427 30.524053 13.841401 30.451172 13.818359 L 30.449219 13.818359 L 28.160156 11.529297 A 0.50004997 0.50004997 0 0 0 27.833984 11.201172 L 24.152344 10.021484 A 0.50004997 0.50004997 0 0 0 24.005859 9.9980469 z " color="#000" font-family="sans-serif" font-weight="400" transform="translate(0 1004.362)" white-space="normal" class="colorff7712 svgShape"></path><path fill="#ffffff" d="m 24.005894,1014.3609 a 0.50004997,0.50004997 0 0 0 -0.158203,0.023 l -3.675781,1.1758 a 0.50004997,0.50004997 0 0 0 -0.326172,0.3281 c -0.452227,1.4705 -1.805458,2.4702 -3.34375,2.4707 -0.766364,0 -1.510687,-0.2547 -2.119141,-0.7207 a 0.50004997,0.50004997 0 0 0 -0.457031,-0.078 l -2.578125,0.8242 a 0.50004997,0.50004997 0 0 0 -0.347656,0.4769 l 0,13.9805 c -0.01755,4.3164 3.292919,7.2123 6.49414,8.9921 3.201729,1.7801 6.392579,2.5157 6.392579,2.5157 a 0.50004997,0.50004997 0 0 0 0.226562,0 c 0,0 3.18366,-0.7356 6.38086,-2.5157 3.1972,-1.7801 6.505859,-4.6755 6.505859,-8.9921 l 0,-13.9805 a 0.50004997,0.50004997 0 0 0 -0.347656,-0.4746 l -2.574219,-0.8242 a 0.50004997,0.50004997 0 0 0 -0.457031,0.076 c -0.609378,0.4667 -1.353567,0.7195 -2.121094,0.7207 -1.536744,0 -2.887389,-0.9982 -3.339844,-2.4668 a 0.50004997,0.50004997 0 0 0 -0.326172,-0.3281 l -3.68164,-1.1797 a 0.50004997,0.50004997 0 0 0 -0.146485,-0.023 z m -0.0059,1.0254 3.408203,1.0898 c 0.677738,1.6921 2.244991,2.8828 4.091797,2.8848 0.863844,0 1.668499,-0.3458 2.390625,-0.8106 l 2.109375,0.6758 0,13.6153 c 0,3.8034 -2.939407,6.4195 -5.992188,8.1191 -2.962647,1.6495 -5.834663,2.3397 -6.007812,2.3809 -0.173336,-0.041 -3.052599,-0.7313 -6.019531,-2.3809 -3.057022,-1.6996 -5.996859,-4.3127 -5.980469,-8.1152 l 0,-13.6153 2.113281,-0.6758 c 0.720856,0.4639 1.522466,0.8085 2.384766,0.8106 a 0.50004997,0.50004997 0 0 0 0.002,0 c 1.849733,5e-4 3.419633,-1.1916 4.097656,-2.8867 l 3.402347,-1.0918 z m -0.0039,8.1992 a 0.50005,0.50005 0 0 0 -0.04883,0 0.50005,0.50005 0 0 0 -0.390625,0.2656 l -1.648438,3.1817 -3.535156,0.5859 a 0.50005,0.50005 0 0 0 -0.273438,0.8437 l 2.513672,2.5508 -0.535156,3.541 a 0.50005,0.50005 0 0 0 0.716797,0.5235 l 3.205074,-1.5996 3.203125,1.6054 a 0.50005,0.50005 0 0 0 0.716797,-0.5234 l -0.535156,-3.541 2.517578,-2.5508 a 0.50005,0.50005 0 0 0 -0.275391,-0.8437 l -3.535156,-0.586 -1.648438,-3.1816 a 0.50005,0.50005 0 0 0 -0.447265,-0.2715 z m 0.0039,1.5879 1.318359,2.5469 a 0.50005,0.50005 0 0 0 0.363282,0.2636 l 2.830078,0.4707 -2.013672,2.0391 a 0.50005,0.50005 0 0 0 -0.140625,0.4277 l 0.429687,2.834 -2.564453,-1.2851 a 0.50005,0.50005 0 0 0 -0.447265,0 l -2.564453,1.2832 0.429687,-2.836 a 0.50005,0.50005 0 0 0 -0.136719,-0.4238 l -2.013672,-2.043 2.828125,-0.4668 a 0.50005,0.50005 0 0 0 0.363282,-0.2636 l 1.318359,-2.5469 z" color="#000" font-family="sans-serif" font-weight="400" overflow="visible" white-space="normal" style="line-height:normal;text-indent:0;text-align:start;text-decoration-line:none;text-decoration-style:solid;text-decoration-color:#000;text-transform:none;block-progression:tb;isolation:auto;mix-blend-mode:normal" class="colorfff svgShape"></path></g></svg></g></svg>