<?xml version="1.0" encoding="UTF-8" standalone="no"?>
<svg
   xmlns:dc="http://purl.org/dc/elements/1.1/"
   xmlns:cc="http://creativecommons.org/ns#"
   xmlns:rdf="http://www.w3.org/1999/02/22-rdf-syntax-ns#"
   xmlns:svg="http://www.w3.org/2000/svg"
   xmlns="http://www.w3.org/2000/svg"
   xmlns:sodipodi="http://sodipodi.sourceforge.net/DTD/sodipodi-0.dtd"
   xmlns:inkscape="http://www.inkscape.org/namespaces/inkscape"
   sodipodi:docname="email.svg"
   inkscape:version="1.0 (4035a4fb49, 2020-05-01)"
   id="svg14"
   version="1.1"
   viewBox="0 0 3.9715087 2.6458333"
   height="2.6458333mm"
   width="3.9715087mm">
  <defs
     id="defs8" />
  <sodipodi:namedview
     inkscape:window-maximized="0"
     inkscape:window-y="0"
     inkscape:window-x="32"
     inkscape:window-height="1030"
     inkscape:window-width="1339"
     showgrid="false"
     inkscape:document-rotation="0"
     inkscape:current-layer="layer1"
     inkscape:document-units="mm"
     inkscape:cy="1.6822985"
     inkscape:cx="44.588758"
     inkscape:zoom="5.6568543"
     inkscape:pageshadow="2"
     inkscape:pageopacity="0.0"
     borderopacity="1.0"
     bordercolor="#666666"
     pagecolor="#ffffff"
     id="base" />
  <metadata
     id="metadata11">
    <rdf:RDF>
      <cc:Work
         rdf:about="">
        <dc:format>image/svg+xml</dc:format>
        <dc:type
           rdf:resource="http://purl.org/dc/dcmitype/StillImage" />
        <dc:title></dc:title>
      </cc:Work>
    </rdf:RDF>
  </metadata>
  <g
     transform="translate(-172.11834,-215.40915)"
     id="layer1"
     inkscape:groupmode="layer"
     inkscape:label="Capa 1">
    <g
       transform="matrix(0.26458333,0,0,0.26458333,172.12017,-59.588521)"
       id="g24">
      <path
         fill="#c2e4f8"
         style="isolation:auto;mix-blend-mode:normal;fill:#cc4224;fill-opacity:1"
         d="M 0.49360287,1039.8622 H 14.493603 v 9 H 0.49360287 Z"
         color="#000000"
         overflow="visible"
         id="path16" />
      <path
         fill="#ffffff"
         d="m 0.92985,1040.3265 h 13.21429 l 0.0204,1.1303 -6.64163,3.3655 -6.59306,-3.0226 v -0.2642 z"
         id="path18" />
      <path
         fill="#249fe6"
         style="line-height:normal;text-indent:0;text-align:start;text-decoration:none;text-decoration-line:none;text-decoration-style:solid;text-decoration-color:#000000;text-transform:none;isolation:auto;mix-blend-mode:normal;fill:#1a1a1a;fill-opacity:1"
         d="m 0.49414062,1039.3613 a 0.50005,0.50005 0 0 0 -0.5,0.5 v 9 a 0.50005,0.50005 0 0 0 0.5,0.5 H 14.494141 a 0.50005,0.50005 0 0 0 0.5,-0.5 v -9 a 0.50005,0.50005 0 0 0 -0.5,-0.5 z m 0.5,1 H 13.994141 v 8 H 0.99414062 Z"
         color="#000000"
         font-family="sans-serif"
         font-weight="400"
         overflow="visible"
         white-space="normal"
         id="path20" />
      <path
         fill="#249fe6"
         fill-rule="evenodd"
         style="line-height:normal;text-indent:0;text-align:start;text-decoration:none;text-decoration-line:none;text-decoration-style:solid;text-decoration-color:#000000;text-transform:none;isolation:auto;mix-blend-mode:normal;fill:#1a1a1a;fill-opacity:1"
         d="m 14.498047,1041.3613 a 0.50005,0.50005 0 0 0 -0.226563,0.057 l -6.7773434,3.3535 -6.77929685,-3.3535 a 0.50006994,0.50006994 0 0 0 -0.44335937,0.8965 l 7.00000002,3.4628 a 0.50005,0.50005 0 0 0 0.4433594,0 l 7.0000002,-3.4628 a 0.50005,0.50005 0 0 0 -0.216797,-0.9532 z"
         color="#000000"
         font-family="sans-serif"
         font-weight="400"
         overflow="visible"
         white-space="normal"
         id="path22" />
    </g>
  </g>
</svg>
