<?xml version="1.0" encoding="UTF-8" standalone="no"?>
<svg
   xmlns:dc="http://purl.org/dc/elements/1.1/"
   xmlns:cc="http://creativecommons.org/ns#"
   xmlns:rdf="http://www.w3.org/1999/02/22-rdf-syntax-ns#"
   xmlns:svg="http://www.w3.org/2000/svg"
   xmlns="http://www.w3.org/2000/svg"
   xmlns:sodipodi="http://sodipodi.sourceforge.net/DTD/sodipodi-0.dtd"
   xmlns:inkscape="http://www.inkscape.org/namespaces/inkscape"
   sodipodi:docname="fight3.svg"
   inkscape:version="1.0 (4035a4fb49, 2020-05-01)"
   id="svg14"
   version="1.1"
   viewBox="0 0 420.03134 56.896"
   height="56.896mm"
   width="420.03134mm">
  <defs
     id="defs8" />
  <sodipodi:namedview
     inkscape:window-maximized="0"
     inkscape:window-y="0"
     inkscape:window-x="32"
     inkscape:window-height="1030"
     inkscape:window-width="1339"
     showgrid="false"
     inkscape:document-rotation="0"
     inkscape:current-layer="layer1"
     inkscape:document-units="mm"
     inkscape:cy="-97.813314"
     inkscape:cx="712.82626"
     inkscape:zoom="1.4"
     inkscape:pageshadow="2"
     inkscape:pageopacity="0.0"
     borderopacity="1.0"
     bordercolor="#666666"
     pagecolor="#ffffff"
     id="base" />
  <metadata
     id="metadata11">
    <rdf:RDF>
      <cc:Work
         rdf:about="">
        <dc:format>image/svg+xml</dc:format>
        <dc:type
           rdf:resource="http://purl.org/dc/dcmitype/StillImage" />
        <dc:title></dc:title>
      </cc:Work>
    </rdf:RDF>
  </metadata>
  <g
     transform="translate(81.503768,-186.24248)"
     id="layer1"
     inkscape:groupmode="layer"
     inkscape:label="Capa 1">
    <path
       id="path30"
       d="m -81.503768,214.69048 v -28.448 H 128.5119 338.52757 v 28.448 28.448 H 128.5119 -81.503768 Z m 278.436318,24.5593 c 0.44574,-0.21536 1.12783,-0.73716 1.44656,-1.10663 0.50213,-0.58206 0.62258,-0.96183 0.67902,-2.14087 0.0302,-0.63054 0.008,-0.80003 -0.14289,-1.1126 -0.2574,-0.5317 -0.27622,-0.70836 -0.0821,-0.76998 0.15014,-0.0477 0.16372,-0.13822 0.16372,-1.09199 v -1.04002 l -0.6036,-0.2666 c -0.33355,-0.14733 -0.74847,-0.26661 -0.92738,-0.26661 -0.25178,0 -0.35761,-0.0484 -0.4759,-0.21754 -0.17475,-0.24989 -0.71901,-0.92446 -0.96128,-1.19139 -0.0905,-0.0997 -0.16451,-0.21886 -0.16451,-0.2648 0,-0.046 -0.0526,-0.12716 -0.11679,-0.18047 -0.0642,-0.0533 -0.14019,-0.21388 -0.16878,-0.35681 -0.0298,-0.14878 -0.11674,-0.27682 -0.20347,-0.2995 -0.0833,-0.0218 -0.26291,-0.21832 -0.39908,-0.43672 -0.13616,-0.21841 -0.26827,-0.41615 -0.29356,-0.43944 -0.11218,-0.10327 -0.42675,-0.59478 -0.5481,-0.85641 -0.22605,-0.48737 -0.58703,-1.11588 -0.8697,-1.51425 -0.14869,-0.20955 -0.29517,-0.48442 -0.32551,-0.61081 -0.0565,-0.23525 -0.91806,-1.27126 -1.25046,-1.50362 -0.10169,-0.0711 -0.19485,-0.22002 -0.20704,-0.33098 -0.0206,-0.18761 0,-0.19821 0.28839,-0.15134 0.17079,0.0277 0.40937,0.14303 0.53015,0.25626 0.45496,0.42647 1.11611,0.73307 2.75962,1.27976 0.93133,0.30979 1.76953,0.59575 1.86267,0.63547 0.0931,0.0397 0.3676,0.13949 0.60994,0.22173 0.29027,0.0985 0.66242,0.34164 1.09072,0.71261 l 0.65012,0.56309 0.85661,0.10694 c 0.47113,0.0588 1.14236,0.13906 1.49161,0.17832 1.13508,0.1276 1.89656,0.2502 2.32833,0.37487 0.23283,0.0672 0.65193,0.18475 0.93133,0.26115 0.2794,0.0764 0.62806,0.19253 0.7748,0.25807 0.14674,0.0655 0.30873,0.11914 0.35999,0.11914 0.18071,0 1.49807,0.49118 2.16721,0.80804 0.6712,0.31784 2.02143,1.15452 2.11967,1.31348 0.0281,0.0454 0.0848,0.0617 0.12613,0.0362 0.0413,-0.0255 0.20059,0.0106 0.35398,0.0803 0.28363,0.12891 0.45717,0.23507 1.42643,0.87266 0.30019,0.19746 0.58594,0.35939 0.63502,0.35983 0.31992,0.003 1.30777,1.5587 1.30777,2.05968 0,0.25858 0.41216,0.65046 0.68412,0.65046 0.12601,0 0.25103,0.0572 0.27783,0.127 0.0934,0.24337 0.38334,0.14402 0.51762,-0.17736 0.11292,-0.27026 0.11304,-0.3854 10e-4,-1.0277 -0.0694,-0.39783 -0.16146,-0.86094 -0.20462,-1.02914 -0.0432,-0.16819 -0.11994,-0.56122 -0.17062,-0.87339 -0.0687,-0.42353 -0.17772,-0.69648 -0.4294,-1.07539 -0.38903,-0.58569 -0.40177,-0.66521 -0.15656,-0.97695 0.16669,-0.2119 0.17205,-0.25723 0.069,-0.58292 -0.0615,-0.19423 -0.11436,-0.3722 -0.11752,-0.39548 -0.003,-0.0233 -0.0578,-0.21379 -0.12129,-0.42334 -0.0635,-0.20955 -0.12888,-0.42862 -0.14521,-0.48683 -0.0417,-0.14852 -0.62161,-0.1336 -1.41241,0.0363 -0.65362,0.14045 -0.6659,0.13993 -1.01793,-0.0434 -0.19599,-0.10208 -0.45543,-0.25178 -0.57656,-0.33267 -0.55509,-0.37075 -0.74687,-0.49621 -1.26144,-0.82526 -0.52314,-0.33452 -1.19286,-0.74642 -1.51292,-0.93049 -0.081,-0.0466 -0.41186,-0.25273 -0.73532,-0.45814 -0.32345,-0.20541 -0.7405,-0.46855 -0.92676,-0.58475 -0.18627,-0.1162 -0.43392,-0.2756 -0.55034,-0.35424 -0.47056,-0.31784 -0.75871,-0.41415 -1.29061,-0.43137 -0.44527,-0.0144 -0.62003,0.0197 -0.87723,0.1715 -0.48382,0.28546 -0.8337,0.21362 -2.31949,-0.47627 -1.05511,-0.48992 -1.12061,-0.51262 -1.76401,-0.61155 -0.83372,-0.1282 -1.47934,-0.53007 -1.71789,-1.06934 -0.16951,-0.38322 -0.28753,-0.49356 -2.74668,-2.56802 l -0.84109,-0.70951 -0.56893,-1.15219 -0.56893,-1.15218 -1.24499,-0.83712 c -0.68474,-0.46042 -1.34312,-0.84356 -1.46306,-0.85144 -0.11995,-0.008 -0.34002,-0.0793 -0.48905,-0.15869 -0.14903,-0.0794 -0.33381,-0.14436 -0.41063,-0.14436 -0.18962,0 -0.71533,-0.53793 -0.71572,-0.73236 0,-0.0861 -0.0764,-0.28138 -0.16933,-0.43385 -0.093,-0.15247 -0.16902,-0.31 -0.16902,-0.35008 0,-0.13857 0.89347,-0.18168 2.032,-0.098 1.01497,0.0746 1.83041,0.19496 2.921,0.43125 0.18626,0.0404 0.54821,0.11688 0.80433,0.17006 0.25612,0.0532 0.51369,0.13641 0.57238,0.18495 0.0587,0.0485 0.28316,0.12123 0.49883,0.16152 0.31937,0.0597 1.23206,0.50352 1.89212,0.92018 0.0698,0.0441 0.46236,0.27699 0.87225,0.51755 0.58465,0.34313 0.90394,0.61165 1.48166,1.24603 1.78093,1.95556 3.18919,3.32378 3.73637,3.63012 0.60173,0.33688 1.38378,0.52462 2.37639,0.57049 0.34925,0.0161 0.70167,0.0565 0.78317,0.0898 0.28981,0.1183 0.14098,-0.0872 -0.1702,-0.23504 -0.7389,-0.35097 -1.58913,-0.8778 -1.67025,-1.03493 -0.0481,-0.0931 -0.2299,-0.4095 -0.40407,-0.70304 -0.17416,-0.29353 -0.31665,-0.58414 -0.31665,-0.6458 0,-0.0617 -0.0571,-0.15952 -0.127,-0.21749 -0.0699,-0.058 -0.127,-0.16932 -0.127,-0.24744 0,-0.0781 -0.0375,-0.17958 -0.0834,-0.22547 -0.11882,-0.11883 -0.16207,-1.21429 -0.0599,-1.51676 0.0939,-0.27809 0.96826,-1.26788 1.32567,-1.50078 0.19874,-0.1295 0.32958,-0.13691 1.15077,-0.0652 0.50961,0.0445 1.1361,0.11964 1.39221,0.16693 1.49596,0.27625 2.89088,0.29101 3.80043,0.0402 l 0.39057,-0.10771 -0.36404,-0.008 c -0.65807,-0.0137 -1.40257,-0.5186 -1.55472,-1.05441 -0.0547,-0.19259 -0.13113,-0.38636 -0.16985,-0.4306 -0.0387,-0.0442 -0.0704,-0.14374 -0.0704,-0.22112 0,-0.21468 0.47021,-1.20454 0.64751,-1.36312 0.19989,-0.17878 0.95361,-0.57899 1.0904,-0.57899 0.0572,0 0.14802,-0.053 0.20178,-0.11779 0.0538,-0.0648 0.20131,-0.13657 0.32787,-0.15952 0.12656,-0.0229 0.74446,-0.18331 1.37311,-0.35635 1.34214,-0.36944 1.67743,-0.43681 2.921,-0.5869 l 0.93133,-0.1124 -0.69554,-0.0109 c -0.38254,-0.006 -0.85879,-0.0627 -1.05834,-0.12605 -0.96396,-0.30609 -1.28618,-0.3928 -1.45963,-0.3928 -0.17756,0 -0.85095,-0.1605 -1.90882,-0.45497 -0.92894,-0.25857 -1.32541,-0.38415 -2.032,-0.64359 -0.39582,-0.14534 -0.83397,-0.29791 -0.97367,-0.33905 -0.33576,-0.0989 -0.97335,-0.32567 -1.18533,-0.42162 -0.37305,-0.16886 -0.79747,-0.33453 -1.524,-0.59488 -1.09003,-0.3906 -1.39726,-0.52964 -1.39509,-0.63135 0.001,-0.0493 0.14394,-0.21031 0.3175,-0.35791 1.11428,-0.94757 1.03149,-0.90812 2.10985,-1.00529 0.53594,-0.0483 0.71127,-0.0231 1.46294,0.21045 1.3272,0.41233 2.89874,1.1281 3.81262,1.7365 0.458,0.30491 0.85489,0.55438 0.88196,0.55438 0.29999,0 -0.96835,-1.51623 -1.79128,-2.14138 -0.64331,-0.4887 -1.57988,-1.16793 -2.13883,-1.55116 -0.74035,-0.50758 -1.35467,-1.06788 -1.35467,-1.23552 0,-0.3461 0.81596,-0.63203 2.08714,-0.73137 0.71032,-0.0555 1.4474,0.022 3.07753,0.32351 0.85731,0.15859 1.05402,0.18191 0.96807,0.11476 -0.0496,-0.0388 -0.21418,-0.25264 -0.36566,-0.47524 -0.26868,-0.39485 -1.06186,-0.98665 -1.83492,-1.36908 -0.1836,-0.0908 -0.39098,-0.20804 -0.46083,-0.26048 -0.0699,-0.0524 -0.45962,-0.241 -0.86615,-0.41901 -0.40654,-0.17801 -0.80209,-0.3932 -0.87902,-0.47821 -0.0769,-0.085 -0.31581,-0.23856 -0.53085,-0.34124 -0.21504,-0.10268 -0.54298,-0.28133 -0.72876,-0.397 -0.19634,-0.12224 -0.65541,-0.27266 -1.09628,-0.35919 -0.69782,-0.13697 -0.87734,-0.13943 -2.24454,-0.0309 -0.81733,0.0649 -1.89714,0.11908 -2.39957,0.1204 -0.50243,0.001 -1.26443,0.0405 -1.69333,0.087 -0.4289,0.0465 -1.52278,0.11905 -2.43083,0.16115 -0.90805,0.0421 -1.75826,0.11833 -1.88935,0.16939 -0.13109,0.0511 -0.34064,0.0924 -0.46566,0.0918 -0.12503,-6e-4 -0.51307,0.0585 -0.86232,0.13144 -1.4035,0.29291 -1.83833,0.37558 -2.23495,0.42488 -0.22803,0.0283 -0.47568,0.0855 -0.55033,0.12694 -0.24653,0.13696 -1.81796,0.58782 -2.04878,0.58782 -0.14418,0 -0.27377,-0.0722 -0.35664,-0.19867 -0.0853,-0.13023 -0.30014,-0.24636 -0.62358,-0.33711 -0.27136,-0.0761 -0.62674,-0.2464 -0.78972,-0.37834 -0.16299,-0.13195 -0.46779,-0.33646 -0.67734,-0.45446 -0.20955,-0.11801 -0.65605,-0.37271 -0.99223,-0.56599 -0.89049,-0.51199 -1.09319,-0.49118 -1.73138,0.17774 -0.82848,0.86837 -0.8323,1.0444 -0.0397,1.82999 l 0.5268,0.52211 0.92774,0.008 c 0.89894,0.008 0.94934,0.0181 1.62356,0.3417 0.41465,0.19901 0.76518,0.43136 0.86748,0.57502 0.1642,0.23061 0.16588,0.26072 0.0387,0.69417 -0.0731,0.2492 -0.17908,0.54819 -0.23552,0.66441 -0.15525,0.31972 -1.14991,0.92589 -2.42485,1.47777 -0.62865,0.27213 -1.27635,0.60279 -1.43933,0.7348 -0.16299,0.13202 -0.41671,0.30058 -0.56383,0.37458 -0.14759,0.0742 -0.29028,0.22533 -0.31832,0.33706 -0.0365,0.1453 -0.14029,0.22607 -0.36751,0.28591 -0.83046,0.21872 -1.48011,0.34624 -1.76394,0.34624 -0.24609,0 -0.38923,0.0714 -0.67921,0.33866 -0.39013,0.35961 -0.61827,0.41816 -0.82476,0.21167 -0.0699,-0.0699 -0.16783,-0.127 -0.21772,-0.127 -0.11815,0 -0.11754,-0.22743 8.4e-4,-0.30057 0.0522,-0.0323 0.0681,-0.15011 0.0369,-0.27411 -0.0825,-0.32874 -0.65116,-1.54199 -0.72273,-1.54199 -0.0345,0 -0.21971,-0.1524 -0.41165,-0.33866 -0.26664,-0.25877 -0.41612,-0.33867 -0.63365,-0.33867 -0.46784,0 -1.17279,0.16106 -1.39353,0.31838 -0.11366,0.081 -0.26889,0.18539 -0.34495,0.23195 -1.10072,0.67388 -1.56567,1.85128 -1.10602,2.80078 0.0949,0.19612 0.26638,0.45776 0.381,0.58143 0.1146,0.12367 0.20838,0.29475 0.20838,0.38018 0,0.0911 0.20116,0.30323 0.48683,0.51329 0.26776,0.19688 0.61187,0.52507 0.76468,0.72931 0.15282,0.20424 0.34522,0.37135 0.42757,0.37135 0.1671,0 0.35423,0.15597 0.35045,0.2921 -0.001,0.0489 -0.23948,0.2589 -0.52916,0.46668 -0.28969,0.20779 -0.67911,0.50206 -0.86537,0.65395 -0.18627,0.15189 -0.62178,0.50762 -0.96781,0.79052 -0.77902,0.63688 -1.0308,0.97722 -1.28264,1.73375 -0.10852,0.32596 -0.2464,0.68791 -0.3064,0.80433 -0.06,0.11642 -0.10935,0.29514 -0.10963,0.39717 0,0.10203 -0.0411,0.21057 -0.0907,0.24121 -0.0562,0.0348 -0.0736,0.25671 -0.0461,0.59014 0.0242,0.29396 -0.005,0.77438 -0.0648,1.0677 -0.10336,0.5067 -0.13587,0.5557 -0.65239,0.98324 -0.29898,0.24748 -0.7191,0.58203 -0.93359,0.74345 -0.32776,0.24664 -0.41896,0.38172 -0.5715,0.8464 -0.22439,0.68352 -0.22601,0.84984 -0.0122,1.2488 0.1028,0.19182 0.16933,0.4777 0.16933,0.72766 0,0.29734 0.0732,0.55029 0.2633,0.91048 0.27683,0.52437 0.55737,0.87975 0.6945,0.87975 0.0449,0 0.24307,0.14287 0.44043,0.3175 0.19736,0.17462 0.63024,0.54007 0.96197,0.81209 0.42298,0.34685 0.60314,0.55158 0.60314,0.68538 0,0.49527 0.79768,0.70069 1.43933,0.37066 0.34567,-0.17779 0.381,-0.22448 0.381,-0.50353 0,-0.1753 0.0646,-0.37939 0.15021,-0.47458 0.0865,-0.0961 0.12735,-0.22659 0.0964,-0.30735 -0.0296,-0.0772 -0.007,-0.19709 0.0508,-0.26646 0.0623,-0.0751 0.0839,-0.23008 0.0533,-0.38314 -0.0368,-0.18428 -0.0159,-0.27065 0.0741,-0.30518 0.14318,-0.055 0.16504,-0.4231 0.044,-0.74139 -0.0917,-0.24108 -0.95206,-0.72342 -1.4425,-0.80867 -0.26857,-0.0467 -0.29392,-0.0751 -0.2707,-0.30292 0.0786,-0.77105 0.0552,-1.10197 -0.0979,-1.38771 l -0.16115,-0.30067 0.45537,-0.41131 c 0.25047,-0.22621 0.53295,-0.44177 0.62774,-0.47902 0.0948,-0.0372 0.2757,-0.27179 0.402,-0.52121 0.71291,-1.40786 1.22478,-2.10449 1.54635,-2.10449 0.222,0 0.59526,0.41038 0.88416,0.97211 0.10261,0.1995 0.26859,0.40401 0.36885,0.45445 0.5786,0.29111 1.2104,0.51765 1.79971,0.64531 0.9701,0.21013 2.26847,0.8452 2.60153,1.27246 0.1452,0.18627 0.28722,0.35772 0.31559,0.381 0.0284,0.0233 0.21033,0.31125 0.40435,0.63993 0.31664,0.53639 0.35258,0.65344 0.35091,1.143 -0.001,0.35916 -0.0591,0.67144 -0.16934,0.91449 -0.0921,0.20299 -0.16747,0.42709 -0.16747,0.498 0,0.2377 -0.35875,0.73735 -0.8972,1.24958 l -0.534,0.508 0.0915,0.85924 c 0.0744,0.69934 0.1274,0.89801 0.28465,1.06759 0.24794,0.2674 0.92735,0.82484 1.00531,0.82484 0.0536,0 0.5422,0.22446 1.99712,0.91737 0.25611,0.12198 1.05621,0.60571 1.778,1.07497 1.52914,0.99414 2.56187,1.65561 2.77215,1.77557 0.0819,0.0467 0.65691,0.42189 1.27787,0.83376 0.97589,0.64729 1.17336,0.81746 1.45594,1.25466 0.17979,0.27819 0.36972,0.64594 0.42204,0.81723 0.0523,0.17129 0.12739,0.38764 0.16683,0.48077 0.0394,0.0931 0.0895,0.24554 0.11132,0.33867 0.0218,0.0931 0.11599,0.45508 0.20934,0.80433 0.24946,0.93335 0.26755,1.09853 0.28291,2.58234 0.008,0.74506 0.0492,1.44914 0.0921,1.56461 0.14336,0.38544 0.42741,0.43747 0.96647,0.17702 z m -69.47898,-6.08056 c 0.59436,-0.18057 1.27937,-0.54089 1.82996,-0.96259 1.25234,-0.95917 2.1748,-2.88198 2.31053,-4.81615 l 0.0505,-0.71967 0.33866,-0.0423 0.33867,-0.0423 v -1.778 -1.778 l -3.03802,-0.0222 c -2.17178,-0.0159 -3.07104,0.005 -3.15383,0.0739 -0.0906,0.0752 -0.11582,0.45061 -0.11582,1.72687 0,1.55955 0.007,1.63269 0.16934,1.67504 0.34114,0.0892 0.16132,1.37108 -0.20524,1.46308 -0.44712,0.11223 -0.6745,0.0124 -0.87426,-0.38372 -0.18994,-0.37666 -0.1905,-0.3902 -0.1905,-4.58845 v -4.21067 l 0.19665,-0.22862 c 0.16938,-0.19692 0.23855,-0.22077 0.49867,-0.17197 0.37364,0.0701 0.40267,0.16279 0.40418,1.29095 8.5e-4,0.58376 0.0349,0.88414 0.107,0.94101 0.14403,0.11371 5.22633,-0.0406 5.37401,-0.16312 0.22632,-0.18783 0.11068,-1.82372 -0.2383,-3.37102 -0.0473,-0.20955 -0.10642,-0.47625 -0.13146,-0.59267 -0.0885,-0.41167 -0.67956,-1.63492 -0.95395,-1.97445 -0.96185,-1.19017 -1.72037,-1.66074 -3.16166,-1.96143 -1.0016,-0.20895 -2.10327,-0.14601 -3.28048,0.18743 -0.76609,0.21699 -1.71327,0.80185 -2.23644,1.38094 -0.48575,0.53766 -1.17947,1.69302 -1.14438,1.9059 0.004,0.026 -0.0462,0.13092 -0.11213,0.23324 -0.25771,0.39984 -0.55922,1.88708 -0.65563,3.23404 -0.16116,2.2517 -0.0626,7.2743 0.16007,8.15499 0.0433,0.17142 0.14502,0.59742 0.22595,0.94667 0.0809,0.34925 0.1994,0.73938 0.26325,0.86695 0.0638,0.12757 0.10759,0.24187 0.0972,0.254 -0.0394,0.0461 0.31477,0.82577 0.37526,0.82607 0.0349,1.7e-4 0.0635,0.0481 0.0635,0.10642 0,0.16144 0.53348,0.87705 0.95052,1.27505 0.87158,0.83177 1.76919,1.26281 2.94415,1.41381 0.76667,0.0985 2.23758,0.0201 2.794,-0.14889 z m -20.76027,0.0463 c 0.0758,-0.0758 0.1016,-1.0097 0.1016,-3.68002 0,-3.45123 0.006,-3.58154 0.16377,-3.66607 0.0901,-0.0482 0.67989,-0.0876 1.31072,-0.0876 1.11921,0 1.14808,-0.005 1.19343,-0.1905 0.0256,-0.10477 0.0358,-1.3335 0.0228,-2.7305 l -0.0237,-2.54 -1.22191,-0.0236 c -0.72464,-0.014 -1.26732,-0.0613 -1.3335,-0.1162 -0.1498,-0.12433 -0.15855,-2.02306 -0.01,-2.17162 0.0741,-0.0741 0.74375,-0.10195 2.4765,-0.10289 1.30619,-6.8e-4 2.42308,-0.0319 2.48198,-0.0693 0.0834,-0.0529 0.10211,-0.64807 0.0847,-2.68687 l -0.0224,-2.6189 -5.18583,-0.0218 c -2.85221,-0.012 -5.18583,-0.0539 -5.18583,-0.0932 0,-0.0393 -0.21349,-0.30568 -0.47442,-0.59201 -0.38739,-0.42511 -0.52328,-0.52088 -0.74083,-0.52216 -0.448774,-0.003 -1.588853,-0.23348 -2.213752,-0.44826 -0.661119,-0.22723 -0.952288,-0.37517 -1.693333,-0.86036 -0.705917,-0.46218 -0.972143,-0.58096 -1.989667,-0.88765 -0.48895,-0.14738 -1.032645,-0.32276 -1.20821,-0.38973 -0.175573,-0.067 -0.556573,-0.12343 -0.846667,-0.12546 -0.290102,-0.002 -0.698906,-0.0388 -0.908456,-0.0817 -0.20955,-0.0429 -0.8001,-0.11777 -1.312334,-0.16632 -0.809108,-0.0767 -1.342009,-0.18739 -2.455333,-0.51001 -0.1397,-0.0405 -0.4826,-0.13665 -0.762,-0.2137 -0.2794,-0.0771 -0.868231,-0.33158 -1.308523,-0.56562 l -0.800515,-0.42552 -0.977485,0.0308 -0.977477,0.0308 -0.0013,-0.51875 c -8.47e-4,-0.28532 -0.049,-0.60917 -0.107315,-0.71967 -0.05832,-0.1105 -0.233494,-0.59625 -0.38928,-1.07943 -0.15903,-0.49325 -0.310211,-0.8349 -0.344721,-0.77906 -0.04698,0.076 -0.08964,0.0761 -0.180932,3.4e-4 -0.06571,-0.0545 -0.119465,-0.136 -0.119465,-0.18104 0,-0.16746 -0.390686,-0.39984 -0.677333,-0.40287 -0.162984,-0.002 -0.421082,-0.0792 -0.573549,-0.17215 -0.331327,-0.20201 -0.890711,-0.22071 -1.313815,-0.0439 -0.16466,0.0688 -0.44721,0.14366 -0.627897,0.16637 -0.180679,0.0227 -0.468486,0.0998 -0.639572,0.17124 -0.171086,0.0715 -0.36565,0.12997 -0.432359,0.12997 -0.06672,0 -0.706111,-0.55825 -1.420884,-1.24056 -0.714773,-0.6823 -1.560602,-1.47288 -1.879609,-1.75683 -0.319015,-0.28395 -0.738115,-0.73667 -0.931333,-1.00604 -0.565184,-0.78791 -0.903944,-1.25449 -1.578983,-2.17474 -0.627515,-0.85546 -0.643983,-0.86994 -1.397,-1.22829 -0.4191,-0.19945 -1.00965,-0.42151 -1.312333,-0.49349 -0.302683,-0.072 -0.740833,-0.17489 -0.973667,-0.22872 -0.43975,-0.10165 -2.300376,-0.26902 -4.689576,-0.42184 -1.417532,-0.0907 -2.337994,-0.0503 -4.666091,0.20456 -1.465309,0.16041 -3.729532,0.93405 -5.89418,2.01391 l -1.533846,0.76517 -1.102259,1.06894 c -1.153753,1.11887 -2.24735,2.56399 -2.474773,3.27026 -0.05998,0.18627 -0.322537,0.66252 -0.583472,1.05834 -0.490685,0.74435 -0.715831,1.30994 -0.818438,2.05604 -0.03278,0.23826 -0.131031,0.59988 -0.218356,0.80361 -0.18426,0.42986 -0.498009,2.36148 -0.498009,3.06605 0,0.35735 0.05456,0.57902 0.210574,0.85548 0.115816,0.20523 0.232927,0.4303 0.260257,0.50015 0.124562,0.31839 0.294166,0.5491 0.39387,0.53577 0.121581,-0.0163 1.822543,-0.65465 2.238425,-0.84012 0.146745,-0.0654 0.293379,-0.11898 0.325874,-0.11898 0.03249,0 0.179129,-0.0536 0.325874,-0.11902 0.146735,-0.0654 0.457293,-0.18439 0.690126,-0.26431 0.232833,-0.0799 0.543391,-0.19781 0.690126,-0.26199 0.146745,-0.0642 0.293379,-0.11668 0.325874,-0.11668 0.0325,0 0.179129,-0.0546 0.325874,-0.12129 0.146735,-0.0667 0.438243,-0.17906 0.647793,-0.24966 0.20955,-0.0706 0.59055,-0.20847 0.846666,-0.30639 0.875572,-0.33473 1.227794,-0.4508 1.566334,-0.51615 0.186266,-0.036 0.510116,-0.10434 0.719666,-0.15195 1.035846,-0.23534 7.027334,-0.46787 7.027334,-0.27272 0,0.116 -0.281754,0.26349 -0.50336,0.26349 -0.0967,0 -0.337329,0.0705 -0.53473,0.15667 -0.500295,0.2184 -1.093952,0.35133 -1.568949,0.35133 -0.22181,0 -0.478435,0.0503 -0.57029,0.11168 -0.09185,0.0614 -0.376555,0.19946 -0.632671,0.30675 -0.931681,0.39029 -6.005331,2.84048 -6.014356,2.90448 -0.0017,0.0118 -0.03736,0.40242 -0.07934,0.86809 l -0.07632,0.84667 0.265286,0.27516 c 0.178003,0.18464 0.345059,0.27517 0.507755,0.27517 0.140707,0 0.39878,-0.11548 0.614925,-0.27517 0.204843,-0.15134 0.509262,-0.37041 0.676478,-0.48683 0.167217,-0.11642 0.61645,-0.44453 0.998305,-0.72914 0.951586,-0.70927 1.323289,-0.76867 3.1496,-0.50338 1.316406,0.19122 1.81008,0.11895 3.207106,-0.46949 0.658419,-0.27733 0.846548,-0.29552 1.299684,-0.12567 0.175565,0.0658 0.718134,0.24179 1.205696,0.39108 l 0.886494,0.27144 1.590006,-0.061 c 1.803163,-0.0692 1.737004,-0.0981 1.385731,0.60539 -0.27493,0.55059 -0.343798,1.08863 -0.213733,1.66982 0.1323,0.59116 0.03781,0.84556 -0.359495,0.96794 -0.154449,0.0476 -0.680872,0.20698 -1.169822,0.35422 -0.48895,0.14724 -0.951018,0.29308 -1.026812,0.32409 -0.299796,0.12265 -1.092412,1.19714 -1.39369,1.88933 -0.169265,0.38888 -0.338277,0.73993 -0.375581,0.78011 -0.0373,0.0402 -0.25212,0.10691 -0.477368,0.14829 -0.225255,0.0414 -0.600049,0.13038 -0.832882,0.19777 -1.648554,0.47715 -1.590091,0.45025 -2.508682,1.15421 -0.742713,0.56918 -1.990463,0.86547 -2.268093,0.53858 -0.07688,-0.0905 -0.26074,-0.25029 -0.408576,-0.35507 -0.610735,-0.43284 -0.904816,-0.15546 -1.245134,1.17439 -0.07602,0.29706 -0.365235,1.00036 -0.642704,1.56288 -0.502353,1.01846 -0.550816,1.17096 -0.453086,1.42564 0.07416,0.19326 0.129989,0.17593 0.83533,-0.25936 0.408754,-0.25226 0.637278,-0.44753 0.637278,-0.54457 0,-0.18444 0.219388,-0.34158 1.312333,-0.93999 0.849164,-0.46493 1.568492,-0.74682 1.905703,-0.74682 0.0993,0 0.492193,-0.0545 0.873091,-0.12104 1.065251,-0.18618 1.898303,-0.3023 2.16872,-0.3023 0.364558,0 0.365582,0.0152 0.08551,1.27 -0.05717,0.25612 -0.121429,1.11337 -0.142807,1.905 -0.03087,1.14302 -0.01098,1.54643 0.09662,1.95956 0.07452,0.28612 0.135493,0.54329 0.135493,0.5715 0,0.0282 -0.163399,0.0513 -0.363102,0.0513 -0.54063,0 -1.050324,-0.29989 -1.892918,-1.11372 -0.362263,-0.34991 -0.876664,-1.37055 -0.876664,-1.73943 0,-0.16684 -0.07929,-0.40709 -0.181932,-0.55123 -0.165371,-0.23225 -0.215434,-0.25172 -0.550282,-0.21397 -0.202599,0.0228 -0.422106,0.0861 -0.48779,0.14063 -0.06569,0.0545 -0.282372,0.48782 -0.481542,0.96291 -0.199162,0.47508 -0.425763,0.93999 -0.503564,1.03312 -0.523832,0.6271 -0.58889,0.80992 -0.58889,1.65481 0,0.77823 0.0096,0.82041 0.237464,1.03868 0.412141,0.39486 0.63854,0.31832 1.080813,-0.36537 0.642552,-0.99327 0.977451,-1.24976 1.077586,-0.82529 0.02472,0.10478 0.185513,0.5715 0.357328,1.03717 0.171805,0.46567 0.336998,0.93129 0.367089,1.03471 0.0301,0.10343 0.496798,0.65588 1.037116,1.22767 0.540325,0.57179 1.254032,1.32866 1.586027,1.68194 0.521944,0.55539 0.67072,0.66263 1.099464,0.79244 0.49033,0.14846 0.502581,0.14795 1.103952,-0.0457 0.645321,-0.20784 0.736024,-0.29843 1.136438,-1.13503 0.273414,-0.57123 0.314588,-0.66849 0.394318,-0.93133 0.04238,-0.1397 0.159317,-0.46355 0.259868,-0.71967 0.10055,-0.25612 0.205164,-0.54024 0.232477,-0.63139 0.02731,-0.0911 0.133477,-0.28924 0.235924,-0.44021 0.102455,-0.15096 0.271797,-0.55264 0.376326,-0.89261 0.10453,-0.33997 0.229066,-0.71337 0.27675,-0.82979 0.04769,-0.11642 0.116366,-0.34502 0.15262,-0.508 0.03625,-0.16298 0.202565,-0.73448 0.369579,-1.27 0.167022,-0.53552 0.323401,-1.08797 0.347523,-1.22767 0.02411,-0.1397 0.07821,-0.34925 0.120201,-0.46566 0.042,-0.11642 0.121962,-0.41516 0.177707,-0.66388 0.110134,-0.49138 -0.06771,-0.32116 2.663097,-2.54886 0.2794,-0.22793 0.8086,-0.66197 1.176011,-0.96455 0.76305,-0.62841 0.97967,-0.74642 1.744989,-0.95063 0.584022,-0.15583 1.960059,-0.58889 2.243667,-0.70611 0.348377,-0.14399 1.108058,-0.41989 1.312333,-0.4766 0.252738,-0.0702 0.897467,-0.54512 1.481667,-1.0915 0.232833,-0.21776 0.510954,-0.45674 0.618041,-0.53106 0.326779,-0.2268 1.716608,-2.1474 2.009673,-2.77715 0.318228,-0.68385 0.435466,-0.77068 1.528902,-1.13241 0.414732,-0.1372 1.125441,-0.38111 1.579364,-0.54202 0.713977,-0.2531 0.873887,-0.28218 1.185333,-0.21557 0.19801,0.0423 1.08392,0.1105 1.968687,0.15145 1.566875,0.0725 2.275044,0.17017 2.794,0.3853 0.243814,0.10108 0.915382,0.31627 1.27,0.40696 0.09313,0.0238 0.455083,0.12787 0.804333,0.23122 0.716644,0.21206 1.381506,0.23319 2.515811,0.08 1.062296,-0.1435 2.039578,-0.0772 2.902856,0.19683 0.395817,0.12566 0.769307,0.29473 0.829979,0.37571 0.07323,0.0977 0.09318,0.27533 0.05933,0.52824 -0.05084,0.37998 -0.04989,0.38171 0.355355,0.64695 0.226212,0.14806 0.428945,0.22986 0.457355,0.18453 0.0281,-0.0448 0.168,0.0356 0.31099,0.17855 0.21444,0.21445 0.32782,0.25997 0.64747,0.25997 h 0.38751 v 9.02257 c 0,6.05757 0.0288,9.07638 0.0877,9.18633 0.0836,0.15628 0.20284,0.16377 2.60773,0.16377 1.84718,0 2.54722,-0.0271 2.62169,-0.1016 z m 11.56701,0.0502 c 0.1211,-0.0465 0.13392,-1.03823 0.13392,-10.3626 0,-9.32438 -0.0128,-10.31614 -0.13392,-10.36261 -0.0737,-0.0283 -1.20904,-0.0514 -2.52307,-0.0514 -1.74533,0 -2.41652,0.0274 -2.49074,0.1016 -0.13489,0.13489 -0.14859,20.31107 -0.0139,20.56263 0.0835,0.15601 0.20152,0.16377 2.49074,0.16377 1.3217,0 2.46336,-0.0231 2.53702,-0.0514 z m 20.03059,-3.84327 0.0423,-3.85233 0.57065,-0.025 0.57064,-0.025 0.022,3.87734 0.022,3.87735 h 2.49766 2.49767 v -10.37166 -10.37167 l -2.44978,-0.0225 c -1.34738,-0.0124 -2.48239,0.0101 -2.52226,0.05 -0.0399,0.0399 -0.0702,1.75322 -0.0674,3.80746 0.005,3.62163 7e-5,3.73765 -0.16034,3.8235 -0.2344,0.12545 -0.81546,0.10984 -0.92729,-0.0249 -0.0652,-0.0786 -0.10093,-1.26917 -0.11621,-3.8735 l -0.0221,-3.76006 h -2.49767 -2.49767 l -0.0215,10.22843 c -0.0147,7.00522 0.006,10.28064 0.0672,10.39413 0.0853,0.1594 0.18101,0.16484 2.51918,0.14323 l 2.4305,-0.0225 z m 16.23907,3.79307 c 0.0775,-0.0775 0.1016,-1.87208 0.1016,-7.56074 0,-5.68866 0.0241,-7.48325 0.1016,-7.56073 0.0718,-0.0718 0.56754,-0.1016 1.69035,-0.1016 1.48411,0 1.59453,-0.0108 1.6764,-0.16377 0.0547,-0.10225 0.0876,-1.10015 0.0876,-2.65663 0,-1.99893 -0.0228,-2.51181 -0.11518,-2.58846 -0.0838,-0.0695 -1.78689,-0.0897 -6.24417,-0.0739 l -6.12899,0.0217 -0.0224,2.6145 c -0.0159,1.85861 0.005,2.64803 0.0739,2.7305 0.075,0.0903 0.436,0.11629 1.63107,0.1173 0.84415,6.7e-4 1.58181,0.0311 1.63928,0.0676 0.0813,0.0516 0.10946,1.72174 0.127,7.52105 0.0186,6.16934 0.0426,7.47883 0.13872,7.59468 0.10331,0.12445 0.39508,0.13999 2.6289,0.13999 1.84144,0 2.53985,-0.0272 2.61431,-0.1016 z m 11.77691,-0.0149 c 0.0676,-0.0815 0.0898,-0.67372 0.0739,-1.9685 l -0.0228,-1.85196 -1.81437,-0.0229 c -0.99791,-0.0126 -1.84713,0.01 -1.88717,0.0499 -0.0814,0.0814 -0.10268,3.6977 -0.0225,3.8274 0.0305,0.0494 0.75935,0.0826 1.81368,0.0826 1.39313,0 1.78291,-0.0244 1.85935,-0.11654 z m -0.008,-4.98518 c 0.0902,-0.10865 0.22586,-2.62296 0.35752,-6.62462 0.0398,-1.21073 0.11008,-3.07763 0.15608,-4.14866 0.046,-1.07104 0.096,-2.61409 0.11109,-3.429 l 0.0274,-1.48167 h -2.49767 -2.49766 l 0.0229,0.889 c 0.0545,2.12039 0.19094,5.84311 0.2699,7.366 0.0471,0.90805 0.12703,2.86355 0.17768,4.34556 0.0998,2.92072 0.10809,3.01701 0.26841,3.11875 0.18794,0.11928 3.50302,0.0868 3.60437,-0.0354 z"
       style="fill:#00a23d;fill-opacity:1;stroke-width:0.0846667" />
  </g>
</svg>
