<?xml version="1.0" encoding="UTF-8" standalone="no"?>
<svg
   xmlns:dc="http://purl.org/dc/elements/1.1/"
   xmlns:cc="http://creativecommons.org/ns#"
   xmlns:rdf="http://www.w3.org/1999/02/22-rdf-syntax-ns#"
   xmlns:svg="http://www.w3.org/2000/svg"
   xmlns="http://www.w3.org/2000/svg"
   xmlns:sodipodi="http://sodipodi.sourceforge.net/DTD/sodipodi-0.dtd"
   xmlns:inkscape="http://www.inkscape.org/namespaces/inkscape"
   sodipodi:docname="fightB.svg"
   inkscape:version="1.0 (4035a4fb49, 2020-05-01)"
   id="svg8"
   version="1.1"
   viewBox="0 0 419.61316 87.397133"
   height="87.397133mm"
   width="419.61316mm">
  <defs
     id="defs2" />
  <sodipodi:namedview
     inkscape:window-maximized="1"
     inkscape:window-y="-9"
     inkscape:window-x="-9"
     inkscape:window-height="1001"
     inkscape:window-width="1920"
     showgrid="false"
     inkscape:document-rotation="0"
     inkscape:current-layer="layer1"
     inkscape:document-units="mm"
     inkscape:cy="-31.098801"
     inkscape:cx="790.84676"
     inkscape:zoom="0.98994949"
     inkscape:pageshadow="2"
     inkscape:pageopacity="0.0"
     borderopacity="1.0"
     bordercolor="#666666"
     pagecolor="#ffffff"
     id="base" />
  <metadata
     id="metadata5">
    <rdf:RDF>
      <cc:Work
         rdf:about="">
        <dc:format>image/svg+xml</dc:format>
        <dc:type
           rdf:resource="http://purl.org/dc/dcmitype/StillImage" />
        <dc:title></dc:title>
      </cc:Work>
    </rdf:RDF>
  </metadata>
  <g
     transform="translate(86.80442,-114.41649)"
     id="layer1"
     inkscape:groupmode="layer"
     inkscape:label="Capa 1">
    <path
       id="path44"
       d="m -86.80442,158.11506 v -43.69857 h 209.80658 209.80658 v 43.69857 43.69856 H 123.00216 -86.80442 Z m 299.02849,34.68053 c 1.56794,-1.01668 2.30464,-2.5852 2.08059,-4.42978 -0.0926,-0.7621 -0.1614,-2.24034 -0.15293,-3.28497 l 0.0155,-1.89932 -1.21089,-0.33903 c -0.88148,-0.2468 -1.46667,-0.65118 -2.15117,-1.48653 -0.51714,-0.63112 -0.94028,-1.22451 -0.94028,-1.31864 0,-0.0941 -0.35245,-0.61511 -0.78321,-1.15773 -0.43076,-0.54262 -1.3979,-2.06903 -2.14919,-3.39201 -0.75132,-1.32299 -1.6756,-2.68221 -2.05397,-3.02049 -0.98882,-0.88404 -0.58994,-1.01532 0.63068,-0.20756 0.57128,0.37807 2.24733,1.09443 3.72456,1.5919 3.03185,1.02103 3.71868,1.33864 4.56881,2.11276 0.45059,0.41033 1.41217,0.6604 3.92539,1.02086 3.93207,0.56397 7.61777,1.73038 10.0907,3.1934 0.98121,0.58048 1.84622,1.05542 1.92229,1.05542 0.0761,0 0.92371,0.49246 1.88369,1.09436 1.44705,0.9073 1.86813,1.34521 2.46337,2.56184 0.65833,1.34559 1.37419,1.95646 2.29271,1.95646 0.41515,0 0.0926,-3.32894 -0.46641,-4.81297 -0.24869,-0.66033 -0.48384,-1.74181 -0.52254,-2.40331 -0.0387,-0.66149 -0.20577,-1.54207 -0.37126,-1.95685 -0.29261,-0.7334 -0.34074,-0.74916 -1.74947,-0.57315 l -1.44857,0.18099 -4.33495,-2.7317 -4.33495,-2.7317 -1.76617,0.16705 c -1.53704,0.14538 -1.95163,0.08 -3.19588,-0.50374 -0.78633,-0.36893 -1.62823,-0.67343 -1.87089,-0.67666 -0.81324,-0.0108 -2.65957,-1.00843 -2.82375,-1.52574 -0.0893,-0.28149 -1.18182,-1.37529 -2.42772,-2.43068 -1.73372,-1.46859 -2.45383,-2.29241 -3.06884,-3.5107 -0.63308,-1.25412 -1.12994,-1.81034 -2.34214,-2.62186 -0.84623,-0.56652 -2.09199,-1.23615 -2.76838,-1.48808 -1.1396,-0.42446 -1.84381,-1.22457 -1.84381,-2.0949 0,-0.40442 3.82185,-0.0597 6.64812,0.59974 3.71342,0.86634 5.59595,2.02273 9.12079,5.6026 1.69048,1.71688 3.46787,3.3243 3.94976,3.57205 0.48189,0.24775 1.6846,0.51037 2.67269,0.58361 1.93522,0.14343 1.93672,0.18463 -0.0398,-1.09862 -1.17922,-0.76562 -2.29237,-2.90266 -2.30012,-4.41583 -0.005,-1.03803 0.12781,-1.34703 0.90487,-2.10019 0.84438,-0.81842 1.00584,-0.87165 2.20497,-0.72686 3.22846,0.38981 6.72004,0.49173 7.2046,0.2103 0.47678,-0.27693 0.47267,-0.29301 -0.0771,-0.3007 -0.86008,-0.012 -2.22548,-1.26957 -2.22548,-2.04968 0,-1.29088 0.71425,-2.16359 2.237,-2.73332 1.83825,-0.68778 4.1729,-1.27444 6.04836,-1.51985 l 1.46998,-0.19235 -2.27179,-0.46285 c -1.24948,-0.25456 -3.18727,-0.71437 -4.30617,-1.02181 -2.61803,-0.71931 -9.59198,-3.28495 -9.59198,-3.52874 0,-0.10268 0.45749,-0.50373 1.01664,-0.89121 0.74384,-0.5155 1.35153,-0.70453 2.26482,-0.70453 1.42163,0 4.48874,1.12713 6.5969,2.42429 0.75555,0.4649 1.45585,0.76315 1.55623,0.66278 0.26145,-0.26145 -3.22078,-3.52363 -5.38836,-5.04789 -1.71384,-1.20518 -1.80819,-1.32272 -1.39411,-1.73725 0.3463,-0.34665 0.95739,-0.4446 2.77367,-0.4446 1.28126,0 2.90084,0.10385 3.59908,0.23079 1.51336,0.27513 1.66143,-0.0513 0.51072,-1.12582 -0.97534,-0.9108 -6.82023,-4.06622 -8.05328,-4.34766 -0.53136,-0.12128 -3.80258,-0.0472 -7.49135,0.1696 -6.3406,0.3727 -10.56647,0.95461 -13.59774,1.87245 -1.5976,0.48373 -1.33707,0.56648 -5.3784,-1.70848 -0.80849,-0.45512 -1.70395,-0.82967 -1.9899,-0.83234 -0.7034,-0.007 -2.01914,1.29651 -2.01914,1.99968 0,0.31249 0.33732,0.89135 0.74961,1.28635 0.5978,0.57273 1.00592,0.71817 2.01518,0.71817 0.7536,0 1.70556,0.22448 2.35331,0.55494 0.99817,0.50924 1.07421,0.62268 0.92321,1.37769 -0.24023,1.20106 -0.53283,1.4495 -3.21229,2.72735 -1.33547,0.63689 -2.73125,1.4614 -3.10177,1.83226 -0.45281,0.45321 -1.19047,0.76981 -2.2499,0.96566 -0.86694,0.16026 -1.78899,0.48392 -2.04902,0.71924 -0.49597,0.44886 -1.14405,0.28065 -0.96455,-0.25036 0.1497,-0.4429 -0.56469,-2.0749 -1.21774,-2.78184 -1.12474,-1.21758 -3.97322,-0.46905 -4.87873,1.28206 -0.89359,1.72801 -0.21492,3.49635 2.13158,5.55396 0.55776,0.4891 0.90914,0.98153 0.78085,1.0943 -0.12831,0.11277 -1.08514,0.87433 -2.12631,1.69237 -1.65686,1.30176 -1.96176,1.6821 -2.4437,3.04837 -0.30287,0.85858 -0.62121,2.22254 -0.70746,3.03103 -0.14527,1.36166 -0.26554,1.57046 -1.63217,2.83353 -1.62812,1.50475 -1.72394,1.86098 -1.1812,4.39166 0.23138,1.07887 0.52897,1.58077 1.39449,2.35177 0.60517,0.5391 1.59984,1.49134 2.21034,2.11608 1.7627,1.80377 2.66406,1.48964 3.44906,-1.20198 0.46906,-1.60829 0.46927,-1.68925 0.006,-2.20152 -0.26473,-0.2925 -0.85494,-0.66727 -1.31162,-0.8328 -0.77378,-0.28047 -0.83033,-0.38946 -0.83033,-1.60017 0,-1.11598 0.11859,-1.40754 0.84086,-2.06747 0.46245,-0.42255 1.04825,-1.17735 1.30176,-1.67733 0.5858,-1.15541 1.18884,-1.8445 1.61417,-1.8445 0.18319,0 0.57779,0.41472 0.87686,0.92161 0.47654,0.80771 0.82985,1.00888 2.85858,1.62768 3.50051,1.06772 5.44009,3.10385 4.96317,5.21022 -0.27472,1.21334 -0.90468,2.40761 -1.60362,3.04014 -0.39903,0.36111 -0.5619,0.82994 -0.5619,1.61737 0,1.3965 0.97492,2.3886 3.4745,3.5358 0.95549,0.43852 3.68468,2.07107 6.06491,3.62788 3.59501,2.35137 4.42098,3.01351 4.87895,3.91118 0.85195,1.66996 1.35054,3.95067 1.35054,6.17773 0,2.84597 0.42269,3.19305 2.35932,1.93732 z m -122.5933,-7.55267 h 1.031774 v -4.90642 -4.90641 l 1.658734,-0.17337 c 0.912302,-0.0954 1.75795,-0.27259 1.879208,-0.39385 0.121261,-0.12126 0.186661,-1.77424 0.145336,-3.67329 l -0.07514,-3.45282 -1.817606,-0.0793 -1.8176,-0.0793 0.08035,-1.39065 0.08035,-1.39064 3.407685,-0.0748 3.407688,-0.0748 v -3.73379 -3.73379 h -6.966265 -6.966262 l -0.64851,-0.77071 c -0.51807,-0.61569 -0.950955,-0.8085 -2.152129,-0.95858 -0.963816,-0.12042 -2.236022,-0.57491 -3.543731,-1.26599 -2.851229,-1.50678 -3.704793,-1.76924 -7.652771,-2.35315 -3.716745,-0.54971 -5.816198,-1.08755 -7.406079,-1.89733 -0.583613,-0.29724 -1.545836,-0.50505 -2.33861,-0.50505 -1.286248,0 -1.34793,-0.0332 -1.367708,-0.73499 -0.01138,-0.40425 -0.230542,-1.33124 -0.486994,-2.05998 -0.384821,-1.09352 -0.66869,-1.43203 -1.624942,-1.93771 -1.349713,-0.71374 -2.111377,-0.75773 -3.88381,-0.22431 l -1.290564,0.3884 -2.399376,-2.19047 c -1.319655,-1.20476 -3.274375,-3.34588 -4.343818,-4.75805 -2.117654,-2.79629 -2.644074,-3.16063 -5.625082,-3.89321 -1.42885,-0.35114 -3.153515,-0.45663 -7.719827,-0.47219 l -5.87993,-0.02 -2.849128,0.98681 c -4.554032,1.5773 -6.255513,2.55649 -8.442034,4.85833 -1.05662,1.11235 -2.24118,2.65767 -2.632353,3.43405 -0.391176,0.77637 -0.921768,1.71227 -1.179097,2.07977 -0.613504,0.87615 -1.5918815,4.48998 -1.7900166,6.61176 -0.1211988,1.29788 -0.047504,1.92344 0.3235272,2.74624 0.2642627,0.58603 0.5598067,1.06551 0.6567641,1.06551 0.096957,0 2.5865173,-0.89871 5.5323593,-1.99714 5.881714,-2.19313 7.744508,-2.56047 12.785403,-2.52128 2.802543,0.0218 2.74592,0.2545 -0.19032,0.78217 -0.692669,0.12448 -3.229828,1.17896 -5.638133,2.3433 -4.582761,2.2156 -4.715679,2.33034 -4.725044,4.07901 -0.0042,0.7853 0.438573,1.32298 1.089481,1.32298 0.248427,0 1.205779,-0.55513 2.127452,-1.23363 2.129486,-1.56764 2.84061,-1.766 5.083592,-1.41798 1.610066,0.24981 1.984491,0.21461 3.646416,-0.34278 1.813102,-0.6081 1.882658,-0.61159 3.302931,-0.16607 0.882031,0.27668 2.378887,0.46151 3.818027,0.47144 2.152679,0.0149 2.348291,0.0587 2.158492,0.48405 -0.114792,0.25724 -0.278,1.18274 -0.362683,2.05665 l -0.153969,1.58892 -1.559832,0.46183 c -1.856362,0.54963 -2.395305,0.9919 -3.425695,2.81121 -0.746586,1.31821 -0.847874,1.39045 -2.54834,1.81759 -0.973968,0.24466 -2.263121,0.79728 -2.864787,1.22806 -1.427704,1.0222 -2.62172,1.25933 -3.486836,0.69248 -0.36404,-0.23852 -0.829698,-0.43369 -1.034793,-0.43369 -0.347106,0 -2.58587,5.03718 -2.58587,5.81816 0,0.62182 0.771335,0.32728 2.055083,-0.78475 0.707182,-0.61259 1.887143,-1.38613 2.622134,-1.71899 1.26891,-0.57466 5.620263,-1.39138 5.903576,-1.10807 0.07327,0.0733 0.0039,1.17329 -0.154006,2.44451 -0.157967,1.27121 -0.207833,2.9097 -0.110813,3.64107 0.14269,1.07565 0.100759,1.32978 -0.219411,1.32978 -1.135231,0 -3.414826,-2.39934 -3.414826,-3.59421 0,-0.7492 -0.486278,-1.21664 -1.265665,-1.21664 -0.487558,0 -0.739965,0.27003 -1.15292,1.23341 -0.290787,0.67838 -0.767598,1.56891 -1.059579,1.97896 -0.599892,0.84248 -0.726452,2.89961 -0.210154,3.41591 0.357962,0.35796 1.282893,0.4374 1.282893,0.11018 0,-0.1158 0.341926,-0.62012 0.759837,-1.12071 l 0.759836,-0.91016 0.581434,1.72172 c 0.502589,1.48825 0.897144,2.03891 2.909549,4.06068 2.129848,2.13976 2.416561,2.33894 3.366725,2.33894 0.793353,0 1.195937,-0.17356 1.704821,-0.73499 0.893292,-0.98552 2.282894,-4.44321 3.67888,-9.15398 l 1.148435,-3.87541 3.012099,-2.46455 c 2.930353,-2.39766 3.103411,-2.4949 6.376439,-3.58295 3.319185,-1.10339 3.389842,-1.14385 5.264346,-3.01447 1.045006,-1.04284 2.21207,-2.51249 2.59348,-3.26589 0.38141,-0.75339 0.909529,-1.4576 1.173594,-1.5649 3.285133,-1.33484 4.193717,-1.50578 7.028222,-1.32225 1.909781,0.12365 3.615108,0.42969 5.337919,0.95795 2.302105,0.70589 2.76243,0.7614 5.078121,0.61243 3.164279,-0.20356 4.637373,0.20137 4.769496,1.31105 0.0634,0.53246 0.362817,0.84659 1.186098,1.24435 0.605708,0.29265 1.257892,0.53209 1.449294,0.53209 0.279747,0 0.361644,2.39843 0.417521,12.22758 l 0.06951,12.22758 1.469982,0.16997 c 0.80849,0.0935 1.997925,0.12355 2.643183,0.0668 0.64526,-0.0567 1.637498,-0.10314 2.204974,-0.10314 z m 15.66478,0.002 0.86863,-0.002 v -14.03166 -14.03165 h -3.44591 c -2.895668,0 -3.471817,0.0675 -3.608141,0.42277 -0.236188,0.61549 -0.191175,26.91397 0.0467,27.28803 0.240483,0.37814 2.089321,0.59247 3.933751,0.45602 0.73499,-0.0544 1.72723,-0.0999 2.20497,-0.10119 z m 14.16228,-0.57093 c 2.28322,-1.09897 4.34613,-4.39781 4.34613,-6.95007 0,-0.8593 0.11084,-1.11306 0.53454,-1.22386 0.48663,-0.12726 0.53454,-0.36456 0.53454,-2.64768 v -2.50789 h -4.31564 -4.31563 l 0.14858,3.22498 c 0.12718,2.76036 0.0888,3.24793 -0.26659,3.38429 -0.96541,0.37047 -1.13969,-0.60379 -1.13969,-6.37122 0,-5.67231 0.0741,-6.38525 0.66336,-6.38525 0.3569,0 0.67299,1.14548 0.67299,2.43884 0,0.74065 0.0468,0.7684 1.29529,0.7684 0.71241,0 2.41179,-0.0793 3.77642,-0.17612 l 2.48114,-0.17611 -0.13847,-2.29613 c -0.32387,-5.37075 -2.68848,-8.23387 -7.03469,-8.5178 -4.84755,-0.31667 -7.74087,2.10988 -8.80808,7.38709 -0.66762,3.30129 -0.44595,12.2431 0.36562,14.74846 1.4118,4.35828 4.15547,6.3305 8.33004,5.98783 0.95549,-0.0784 2.24705,-0.38797 2.87014,-0.68785 z m 12.69831,0.57084 0.73499,-0.002 v -5.21176 -5.21175 h 0.66817 0.66818 v 5.17299 5.17299 l 1.81476,0.15215 c 0.99812,0.0837 2.54611,0.0858 3.43998,0.005 l 1.62522,-0.14737 0.16816,-1.60883 c 0.21924,-2.09758 0.21423,-23.15783 -0.006,-24.99102 l -0.16945,-1.41087 -3.36955,0.0745 -3.36955,0.0745 -0.0727,5.16276 -0.0726,5.16276 -0.59553,-0.0846 c -0.58937,-0.0838 -0.59627,-0.13779 -0.66811,-5.22958 l -0.0726,-5.14493 h -3.46873 -3.46874 v 14.01768 14.01768 l 1.40317,0.11238 c 0.77174,0.0618 2.00452,0.0691 2.73951,0.0163 0.735,-0.0529 1.6671,-0.0971 2.07134,-0.0984 z m 21.64883,0 1.00226,-0.002 v -10.11805 -10.11805 l 2.12087,-0.14537 c 1.16647,-0.0799 2.24892,-0.22451 2.40543,-0.32123 0.30439,-0.18813 0.41018,-6.1877 0.12232,-6.93784 -0.14307,-0.37274 -1.13337,-0.42268 -8.38402,-0.42268 h -8.22179 l -0.16566,1.00226 c -0.24185,1.4632 -0.20034,5.7548 0.0596,6.16478 0.13596,0.21441 1.01262,0.41137 2.24619,0.50467 1.76565,0.13353 2.04248,0.22486 2.17469,0.71742 0.0833,0.31042 0.15314,4.85782 0.15514,10.10532 l 0.004,9.54092 1.40316,0.11238 c 0.77174,0.0618 2.00452,0.0691 2.73952,0.0163 0.73499,-0.0528 1.78736,-0.0971 2.33861,-0.0984 z m 16.00276,-0.002 h 0.7684 v -2.67269 -2.6727 h -2.67269 -2.6727 v 2.65733 2.65732 l 1.1359,0.11123 c 0.62474,0.0612 1.48167,0.0681 1.90429,0.0154 0.42262,-0.0526 1.11418,-0.0958 1.5368,-0.0958 z m 0.62921,-6.94002 c 0.13099,-0.21194 0.91935,-17.26957 0.93612,-20.25465 l 0.005,-0.86855 h -3.4745 -3.4745 l 0.006,1.5368 c 0.004,1.10016 0.72479,19.16461 0.78884,19.77795 0.0218,0.20851 5.08081,0.0227 5.21318,-0.19147 z"
       style="fill:#353535;fill-opacity:1;stroke-width:0.267269" />
  </g>
</svg>
