<svg id="SvgjsSvg1014" width="288" height="288" xmlns="http://www.w3.org/2000/svg" version="1.1" xmlns:xlink="http://www.w3.org/1999/xlink" xmlns:svgjs="http://svgjs.com/svgjs"><defs id="SvgjsDefs1015"></defs><g id="SvgjsG1016" transform="matrix(0.9167,0,0,0.9167,11.9952003177643,12.230167620849613)"><svg xmlns="http://www.w3.org/2000/svg" width="288" height="288" viewBox="0 0 32 32"><g transform="translate(0 -1020.362)" fill="#303043" class="color000 svgShape"><path fill="#f05542" fill-rule="evenodd" d="m 6.32377,1028.3201 c -2.43669,2.4458 -2.43669,6.3836 0,8.8295 l 0.87967,0.883 8.79671,8.8296 8.79671,-8.8296 0.87967,-0.883 c 2.43669,-2.4459 2.43669,-6.3837 0,-8.8295 -2.43669,-2.4459 -6.36002,-2.4459 -8.79671,0 l -0.87967,0.8829 -0.87967,-0.8829 c -2.43669,-2.4459 -6.36002,-2.4459 -8.79671,0 z" class="colorf05542 svgShape"></path><path style="line-height:normal;text-indent:0;text-align:start;text-decoration-line:none;text-decoration-style:solid;text-decoration-color:#000;text-transform:none;block-progression:tb;isolation:auto;mix-blend-mode:normal" fill-rule="evenodd" d="m 10.722656,1025.9902 c -1.7197663,0 -3.4408644,0.6586 -4.753906,1.9766 -2.6260776,2.6359 -2.626066,6.8992 0,9.5352 l 0.8808594,0.8828 8.7968746,8.83 a 0.50005,0.50005 0 0 0 0.707032,0 l 8.796875,-8.83 0.880859,-0.8828 c 2.626066,-2.636 2.626078,-6.8993 0,-9.5352 -2.626083,-2.636 -6.879776,-2.636 -9.505859,0 L 16,1028.4941 l -0.525391,-0.5273 c -1.313041,-1.318 -3.032186,-1.9766 -4.751953,-1.9766 z m 0,0.9903 c 1.460244,0 2.919321,0.5654 4.042969,1.6933 l 0.880859,0.8828 a 0.50005,0.50005 0 0 0 0.707032,0 l 0.880859,-0.8828 c 2.247297,-2.2558 5.840594,-2.2558 8.087891,0 2.247302,2.2557 2.247314,5.8673 0,8.1231 l -0.878907,0.8828 -8.443359,8.4746 -8.4414062,-8.4746 -0.8808594,-0.8828 c -2.2473141,-2.2558 -2.2473024,-5.8674 0,-8.1231 1.1236484,-1.1279 2.5846784,-1.6933 4.0449216,-1.6933 z" color="#000" font-family="sans-serif" font-weight="400" overflow="visible" white-space="normal" fill="#303043" class="color000 svgShape"></path><path style="line-height:normal;text-indent:0;text-align:start;text-decoration-line:none;text-decoration-style:solid;text-decoration-color:#000;text-transform:none;block-progression:tb;isolation:auto;mix-blend-mode:normal" fill-rule="evenodd" d="m 10.75,1027.9902 c -1.6962101,0 -3.2651762,0.9061 -4.1132812,2.375 -0.8481051,1.469 -0.848105,3.2811 0,4.75 a 0.50005,0.50005 0 1 0 0.8652343,-0.5 c -0.6702737,-1.1609 -0.6702738,-2.589 0,-3.75 0.6702738,-1.1609 1.9074993,-1.875 3.2480469,-1.875 a 0.50005,0.50005 0 1 0 0,-1 z" color="#000" font-family="sans-serif" font-weight="400" overflow="visible" white-space="normal" fill="#303043" class="color000 svgShape"></path></g></svg></g></svg>