<svg id="SvgjsSvg1001" width="288" height="288" xmlns="http://www.w3.org/2000/svg" version="1.1" xmlns:xlink="http://www.w3.org/1999/xlink" xmlns:svgjs="http://svgjs.com/svgjs"><defs id="SvgjsDefs1002"></defs><g id="SvgjsG1008" transform="matrix(0.9167,0,0,0.9167,11.995200000000011,11.995230505371097)"><svg xmlns="http://www.w3.org/2000/svg" width="288" height="288" viewBox="0 0 48 48"><g transform="translate(0 -1004.362)" fill="#f6944c" class="color000 svgShape"><circle cx="24" cy="1028.362" r="24" fill="#fa681c" class="color239fdb svgShape"></circle><path fill="#f6944c" fill-rule="evenodd" style="line-height:normal;text-indent:0;text-align:start;text-decoration-line:none;text-decoration-style:solid;text-decoration-color:#000;text-transform:none;block-progression:tb;isolation:auto;mix-blend-mode:normal" d="M 27.818359 47.681641 A 23.999992 23.999992 0 0 0 28.080078 47.650391 A 23.999992 23.999992 0 0 0 30.419922 47.125 A 23.999992 23.999992 0 0 0 32.697266 46.369141 A 23.999992 23.999992 0 0 0 34.886719 45.388672 A 23.999992 23.999992 0 0 0 36.966797 44.195312 A 23.999992 23.999992 0 0 0 38.917969 42.800781 A 23.999992 23.999992 0 0 0 40.720703 41.216797 A 23.999992 23.999992 0 0 0 42.355469 39.460938 A 23.999992 23.999992 0 0 0 43.808594 37.550781 A 23.999992 23.999992 0 0 0 45.0625 35.505859 A 23.999992 23.999992 0 0 0 46.105469 33.345703 A 23.999992 23.999992 0 0 0 46.927734 31.091797 A 23.999992 23.999992 0 0 0 47.521484 28.767578 A 23.999992 23.999992 0 0 0 47.535156 28.677734 L 35.189453 16.332031 C 35.174364 16.316943 35.15592 16.305877 35.140625 16.291016 C 34.960543 16.116007 34.770474 15.952638 34.564453 15.810547 C 34.562523 15.809216 34.560526 15.807969 34.558594 15.806641 C 34.548726 15.799856 34.537265 15.795769 34.527344 15.789062 C 34.333717 15.658221 34.128133 15.546826 33.916016 15.447266 C 33.852453 15.417437 33.787659 15.392118 33.722656 15.365234 C 33.550437 15.293966 33.374399 15.233369 33.193359 15.183594 C 33.122371 15.164065 33.052613 15.143051 32.980469 15.126953 C 32.975825 15.125917 32.971446 15.124069 32.966797 15.123047 L 31.15625 13.3125 C 31.153304 13.309554 31.149439 13.307624 31.146484 13.304688 C 30.959151 13.118239 30.754528 12.952018 30.537109 12.800781 C 30.483787 12.763677 30.426056 12.734025 30.371094 12.699219 C 30.203804 12.593289 30.030841 12.497371 29.849609 12.414062 C 29.769073 12.377013 29.688491 12.342845 29.605469 12.310547 C 29.430224 12.242369 29.249625 12.188359 29.064453 12.142578 C 28.983464 12.12256 28.904939 12.099491 28.822266 12.083984 C 28.555069 12.033798 28.28192 12 28 12 C 27.781226 12 27.565605 12.016231 27.355469 12.046875 C 26.514924 12.169452 25.75217 12.52857 25.130859 13.052734 C 24.724025 13.395957 24.385985 13.814246 24.119141 14.279297 L 23.152344 13.3125 C 23.12224 13.282396 23.085617 13.259717 23.054688 13.230469 C 22.912167 13.095732 22.760513 12.97278 22.601562 12.857422 C 22.54627 12.81727 22.494633 12.773972 22.4375 12.736328 C 22.226798 12.597508 22.004775 12.475076 21.771484 12.373047 C 21.727543 12.353828 21.681381 12.340091 21.636719 12.322266 C 21.434774 12.241671 21.226937 12.177455 21.011719 12.126953 C 20.943453 12.110911 20.876085 12.094873 20.806641 12.082031 C 20.54446 12.033586 20.276393 12 20 12 C 18.042094 12 16.386165 13.266578 15.769531 15.017578 C 14.050033 15.106578 12.516679 16.164978 11.847656 17.767578 C 11.517771 18.557778 11.435785 19.404044 11.566406 20.214844 C 9.9724318 21.492644 9.2075888 23.5505 9.6035156 25.5625 C 9.6629975 25.864753 9.7508943 26.155235 9.8574219 26.4375 C 9.8914049 26.52755 9.9361181 26.611492 9.9746094 26.699219 C 10.056925 26.886866 10.146076 27.07008 10.248047 27.246094 C 10.303912 27.342563 10.364321 27.434687 10.425781 27.527344 C 10.528918 27.68282 10.637789 27.832669 10.755859 27.976562 C 10.831103 28.068299 10.907312 28.157466 10.988281 28.244141 C 11.03114 28.290026 11.066921 28.34231 11.111328 28.386719 L 11.560547 28.835938 C 11.555187 28.871766 11.555273 28.907506 11.550781 28.943359 C 11.534459 29.073527 11.516719 29.203946 11.511719 29.333984 C 11.510973 29.353532 11.514164 29.373043 11.513672 29.392578 C 11.50961 29.552278 11.510757 29.710978 11.523438 29.869141 C 11.527276 29.917212 11.537603 29.963867 11.542969 30.011719 C 11.55787 30.144429 11.573113 30.277718 11.599609 30.408203 C 11.60282 30.423999 11.607949 30.439321 11.611328 30.455078 C 11.644026 30.60768 11.682175 30.758001 11.730469 30.90625 C 11.757025 30.987835 11.791064 31.066511 11.822266 31.146484 C 11.855744 31.232249 11.887026 31.318684 11.925781 31.402344 C 11.958572 31.473161 11.998631 31.540236 12.035156 31.609375 C 12.081824 31.697695 12.125049 31.787758 12.177734 31.873047 C 12.224763 31.949183 12.280272 32.020275 12.332031 32.09375 C 12.38155 32.164028 12.42863 32.235101 12.482422 32.302734 C 12.546974 32.383936 12.618829 32.460038 12.689453 32.537109 C 12.73311 32.584741 12.772412 32.635696 12.818359 32.681641 L 12.882812 32.746094 L 27.818359 47.681641 z " color="#000" font-family="sans-serif" font-weight="400" transform="translate(0 1004.362)" white-space="normal" class="color0b5ecd svgShape"></path><path fill="#ffffff" fill-rule="evenodd" style="line-height:normal;text-indent:0;text-align:start;text-decoration-line:none;text-decoration-style:solid;text-decoration-color:#000;text-transform:none;block-progression:tb;isolation:auto;mix-blend-mode:normal" d="m 11.5,3.96875 c -1.9579065,0 -3.6138349,1.2665923 -4.2304688,3.0175781 -1.7194982,0.089283 -3.2528527,1.147353 -3.921875,2.75 -0.3298853,0.7901949 -0.4118709,1.6365089 -0.28125,2.4472659 -1.5939753,1.277842 -2.35881739,3.335712 -1.9628906,5.347656 0.2554902,1.298271 0.9641835,2.432033 1.9609375,3.230469 -0.2309666,1.44909 0.2513512,2.928687 1.3183594,3.953125 0.7916286,0.760036 1.8225569,1.183319 2.8886719,1.238281 0.6988379,1.989622 2.695692,3.257661 4.8164066,2.978516 1.514669,-0.19944 2.758263,-1.152378 3.412109,-2.441407 0.653846,1.289029 1.89744,2.241967 3.412109,2.441407 2.120715,0.279145 4.117569,-0.988894 4.816407,-2.978516 1.066114,-0.05496 2.097043,-0.478245 2.888672,-1.238281 1.067007,-1.024438 1.549325,-2.504035 1.318359,-3.953125 0.996754,-0.798436 1.705448,-1.932198 1.960937,-3.230469 0.395927,-2.011944 -0.368914,-4.069814 -1.96289,-5.347656 0.130621,-0.810757 0.04864,-1.657071 -0.28125,-2.4472659 -0.669023,-1.602647 -2.202377,-2.6607166 -3.921875,-2.75 C 23.113835,5.2353423 21.457906,3.96875 19.5,3.96875 c -1.750195,0 -3.256382,1.0160967 -4,2.4804688 C 14.756382,4.9848467 13.250195,3.96875 11.5,3.96875 Z m 0,1 c 1.938919,0 3.5,1.5611 3.5,3.5 a 0.50004997,0.50004997 0 0 0 0,0.033203 l 0,15.966797 c 9e-6,1.7603 -1.297749,3.240903 -3.042969,3.470703 -1.561404,0.205508 -3.0288195,-0.65291 -3.6484372,-2.052734 0.1186557,-0.02171 0.2377873,-0.03878 0.3554687,-0.07031 A 0.5002923,0.5002923 0 0 0 8.40625,24.849609 c -1.1839804,0.3173 -2.445885,-0.01007 -3.3300781,-0.855468 -0.7227269,-0.693887 -1.097643,-1.655892 -1.0664063,-2.636719 0.3384295,0.172598 0.6904935,0.325069 1.0664063,0.425781 a 0.5005448,0.5005448 0 0 0 0.2597656,-0.966797 c -1.6592648,-0.4446 -2.9202712,-1.793015 -3.2519531,-3.478515 -0.2971694,-1.50999 0.203466,-3.047226 1.2929687,-4.09961 0.2211955,0.516485 0.5290035,1.001651 0.9414063,1.414063 A 0.50004997,0.50004997 0 1 0 5.0253906,13.945312 C 4.020874,12.940812 3.7222578,11.432094 4.2695312,10.121094 4.7552647,8.9576012 5.8203552,8.1596511 7.046875,8 7.0304076,8.1560285 7,8.3084647 7,8.46875 a 0.50004997,0.50004997 0 1 0 1,0 c -1e-7,-1.9389 1.5610811,-3.5 3.5,-3.5 z m 8,0 c 1.938919,0 3.5,1.5611 3.5,3.5 a 0.50004997,0.50004997 0 1 0 1,0 C 24,8.3084647 23.969592,8.1560285 23.953125,8 c 1.22652,0.1596511 2.29161,0.9576012 2.777344,2.121094 0.547273,1.311 0.248657,2.819718 -0.75586,3.824218 a 0.50004997,0.50004997 0 1 0 0.707032,0.707032 c 0.412402,-0.412412 0.72021,-0.897578 0.941406,-1.414063 1.089503,1.052384 1.590138,2.58962 1.292969,4.09961 -0.331682,1.6855 -1.592688,3.033915 -3.251954,3.478515 a 0.50054486,0.50054486 0 0 0 0.259766,0.966797 c 0.375913,-0.100712 0.727977,-0.253183 1.066406,-0.425781 0.03124,0.980827 -0.343679,1.942832 -1.066406,2.636719 -0.884193,0.8454 -2.146098,1.172768 -3.330078,0.855468 a 0.50029223,0.50029223 0 0 0 -0.257812,0.966797 c 0.117681,0.03154 0.236813,0.0486 0.355468,0.07031 -0.619617,1.399824 -2.087033,2.258242 -3.648437,2.052734 C 17.297749,27.709653 15.999991,26.22905 16,24.46875 l 0,-16 c 0,-1.9389 1.561081,-3.5 3.5,-3.5 z m -8.050781,1 a 0.50064426,0.50064426 0 0 0 0.05078,1 c 0.834352,0 1.499996,0.6656 1.5,1.5 a 0.50004997,0.50004997 0 1 0 1,0 c -6e-6,-1.3748 -1.12521,-2.5 -2.5,-2.5 a 0.50004997,0.50004997 0 0 0 -0.05078,0 z m 8.050781,0 c -1.37479,0 -2.499994,1.1252 -2.5,2.5 a 0.50004997,0.50004997 0 1 0 1,0 c 4e-6,-0.8344 0.665649,-1.5 1.5,-1.5 a 0.50004997,0.50004997 0 1 0 0,-1 z M 7.7929688,9.8183594 A 0.50028124,0.50028124 0 0 0 7.3144531,10.478516 c 0.104043,0.312162 0.2512244,0.602246 0.4179688,0.880859 C 7.1602763,11.282068 6.5766431,11.280737 6,11.386719 a 0.50048019,0.50048019 0 0 0 0.1796875,0.984375 c 1.0516894,-0.1933 2.1384076,-0.0074 3.0644531,0.527344 a 0.50004997,0.50004997 0 0 0 0.027344,0.01562 0.50004997,0.50004997 0 0 0 0.00977,0.0039 0.50004997,0.50004997 0 0 0 0.027344,0.01367 0.50004997,0.50004997 0 0 0 0.011719,0.0039 0.50004997,0.50004997 0 0 0 0.041016,0.01367 0.50004997,0.50004997 0 0 0 0.00781,0.002 0.50004997,0.50004997 0 0 0 0.035156,0.0078 0.50004997,0.50004997 0 0 0 0.0625,0.0098 0.50004997,0.50004997 0 0 0 0.1835937,-0.02344 0.50004997,0.50004997 0 0 0 0.013672,-0.0039 0.50004997,0.50004997 0 0 0 0.078125,-0.03516 0.50004997,0.50004997 0 0 0 0.011719,-0.0059 0.50004997,0.50004997 0 0 0 0.070313,-0.05078 0.50004997,0.50004997 0 0 0 0.011719,-0.0098 0.50004997,0.50004997 0 0 0 0.025391,-0.02539 0.50004997,0.50004997 0 0 0 0.00977,-0.0098 0.50004997,0.50004997 0 0 0 0.050781,-0.06836 0.50004997,0.50004997 0 0 0 0.00781,-0.01172 0.50004997,0.50004997 0 0 0 0.017578,-0.03125 0.50004997,0.50004997 0 0 0 0.00586,-0.01172 0.50004997,0.50004997 0 0 0 0.029297,-0.08203 0.50004997,0.50004997 0 0 0 0.00391,-0.01172 0.50004997,0.50004997 0 0 0 0.00781,-0.03711 0.50004997,0.50004997 0 0 0 0.00195,-0.01367 0.50004997,0.50004997 0 0 0 0.00391,-0.08594 0.50004997,0.50004997 0 0 0 0,-0.01367 0.50004997,0.50004997 0 0 0 -0.00391,-0.03711 0.50004997,0.50004997 0 0 0 -0.00195,-0.01172 0.50004997,0.50004997 0 0 0 -0.041016,-0.13086 0.50004997,0.50004997 0 0 0 -0.00586,-0.01172 0.50004997,0.50004997 0 0 0 -0.017578,-0.0332 0.50004997,0.50004997 0 0 0 -0.00586,-0.0098 0.50004997,0.50004997 0 0 0 -0.021484,-0.03125 0.50004997,0.50004997 0 0 0 -0.00781,-0.0098 0.50004997,0.50004997 0 0 0 -0.023437,-0.0293 0.50004997,0.50004997 0 0 0 -0.00781,-0.0098 0.50004997,0.50004997 0 0 0 -0.027344,-0.02539 0.50004997,0.50004997 0 0 0 -0.00977,-0.0078 0.50004997,0.50004997 0 0 0 -0.029297,-0.02344 0.50004997,0.50004997 0 0 0 -0.00977,-0.0078 0.50004997,0.50004997 0 0 0 -0.03125,-0.01953 C 9.0527079,11.608363 8.5244161,10.944409 8.2636719,10.162109 A 0.50028124,0.50028124 0 0 0 7.7929688,9.8183594 Z m 15.4140622,0 a 0.50028134,0.50028134 0 0 0 -0.470703,0.3437496 c -0.260744,0.7823 -0.789036,1.446254 -1.492187,1.876953 a 0.50004997,0.50004997 0 0 0 -0.01367,0.0098 0.50004997,0.50004997 0 0 0 -0.01758,0.0098 0.50004997,0.50004997 0 0 0 -0.0098,0.0078 0.50004997,0.50004997 0 0 0 -0.0293,0.02344 0.50004997,0.50004997 0 0 0 -0.01758,0.01563 0.50004997,0.50004997 0 0 0 -0.01953,0.01758 0.50004997,0.50004997 0 0 0 -0.0078,0.0098 0.50004997,0.50004997 0 0 0 -0.02344,0.0293 0.50004997,0.50004997 0 0 0 -0.01953,0.02734 0.50004997,0.50004997 0 0 0 -0.01172,0.01953 0.50004997,0.50004997 0 0 0 -0.01563,0.02539 0.50004997,0.50004997 0 0 0 -0.0078,0.01758 0.50004997,0.50004997 0 0 0 -0.0059,0.0098 0.50004997,0.50004997 0 0 0 -0.03906,0.132812 0.50004997,0.50004997 0 0 0 -0.002,0.01953 A 0.50004997,0.50004997 0 0 0 21,12.4375 a 0.50004997,0.50004997 0 0 0 0,0.01367 0.50004997,0.50004997 0 0 0 0.0059,0.09375 0.50004997,0.50004997 0 0 0 0.0039,0.01953 0.50004997,0.50004997 0 0 0 0.0039,0.02344 0.50004997,0.50004997 0 0 0 0.0039,0.01172 0.50004997,0.50004997 0 0 0 0.0332,0.08984 0.50004997,0.50004997 0 0 0 0.0098,0.01563 0.50004997,0.50004997 0 0 0 0.0098,0.01953 0.50004997,0.50004997 0 0 0 0.0078,0.01172 0.50004997,0.50004997 0 0 0 0.05078,0.06836 0.50004997,0.50004997 0 0 0 0.0098,0.0098 0.50004997,0.50004997 0 0 0 0.02539,0.02539 0.50004997,0.50004997 0 0 0 0.01172,0.0098 0.50004997,0.50004997 0 0 0 0.07031,0.05078 0.50004997,0.50004997 0 0 0 0.01172,0.0059 0.50004997,0.50004997 0 0 0 0.09375,0.03906 0.50004997,0.50004997 0 0 0 0.181641,0.02344 0.50004997,0.50004997 0 0 0 0.0625,-0.0098 0.50004997,0.50004997 0 0 0 0.03516,-0.0078 0.50004997,0.50004997 0 0 0 0.01367,-0.0039 0.50004997,0.50004997 0 0 0 0.03516,-0.01172 0.50004997,0.50004997 0 0 0 0.01172,-0.0039 0.50004997,0.50004997 0 0 0 0.0332,-0.01563 0.50004997,0.50004997 0 0 0 0.01172,-0.0059 0.50004997,0.50004997 0 0 0 0.01953,-0.01172 c 0.0025,-0.0015 0.0053,-0.0024 0.0078,-0.0039 a 0.50004997,0.50004997 0 0 0 0.0039,-0.002 c 0.923547,-0.529638 2.005376,-0.713988 3.052734,-0.521484 A 0.50048024,0.50048024 0 1 0 25,11.386719 c -0.576643,-0.105982 -1.160276,-0.104651 -1.732422,-0.02734 0.166744,-0.278613 0.313926,-0.568697 0.417969,-0.880859 A 0.50028134,0.50028134 0 0 0 23.207031,9.8183594 Z M 12.007812,11.712891 a 0.50004997,0.50004997 0 0 0 -0.410156,0.755859 c 0.680131,1.178 0.485281,2.661247 -0.476562,3.623047 a 0.50004997,0.50004997 0 1 0 0.707031,0.707031 c 1.278472,-1.2785 1.540742,-3.264278 0.636719,-4.830078 a 0.50004997,0.50004997 0 0 0 -0.457032,-0.255859 z m 6.933594,0 a 0.50004997,0.50004997 0 0 0 -0.40625,0.255859 c -0.904023,1.5658 -0.641753,3.551578 0.636719,4.830078 a 0.50004997,0.50004997 0 1 0 0.707031,-0.707031 c -0.961843,-0.9618 -1.156693,-2.445047 -0.476562,-3.623047 a 0.50004997,0.50004997 0 0 0 -0.410156,-0.755859 0.50004997,0.50004997 0 0 0 -0.05078,0 z M 3.6289062,16.367188 a 0.50004997,0.50004997 0 0 0 -0.050781,0.002 0.50004997,0.50004997 0 0 0 -0.4414062,0.634765 c 0.1817224,0.6782 0.5386832,1.298422 1.0351562,1.794922 a 0.50004997,0.50004997 0 1 0 0.707031,-0.707078 C 4.5065203,17.719397 4.2378658,17.254794 4.1015625,16.746094 A 0.50004997,0.50004997 0 0 0 3.6289062,16.367188 Z m 23.7421878,0 a 0.50004997,0.50004997 0 0 0 -0.472656,0.378906 c -0.136304,0.5087 -0.404958,0.973303 -0.777344,1.345703 a 0.50004997,0.50004997 0 1 0 0.707031,0.707031 c 0.496473,-0.4965 0.853434,-1.116722 1.035156,-1.794922 a 0.50004997,0.50004997 0 0 0 -0.441406,-0.634765 0.50004997,0.50004997 0 0 0 -0.05078,-0.002 z M 10.503906,20.96875 a 0.50004997,0.50004997 0 0 0 -0.134765,0.01758 0.50004997,0.50004997 0 0 0 -0.002,0 0.50004997,0.50004997 0 0 0 -0.01172,0.0039 0.50004997,0.50004997 0 0 0 -0.03516,0.01172 0.50004997,0.50004997 0 0 0 -0.07226,0.03516 0.50004997,0.50004997 0 0 0 -0.0039,0.002 c -0.9260464,0.5347 -2.012764,0.720644 -3.0644535,0.527344 A 0.50128099,0.50128099 0 0 0 7,22.552734 c 0.5766432,0.105982 1.1602763,0.102698 1.7324219,0.02539 -0.1667444,0.278613 -0.3139258,0.570651 -0.4179688,0.882813 a 0.50028219,0.50028219 0 1 0 0.9492188,0.316406 C 9.52292,22.999532 10.047022,22.337137 10.744141,21.90625 a 0.50004997,0.50004997 0 0 0 0.0078,-0.0059 c 0.0012,-7.57e-4 0.0027,-0.0012 0.0039,-0.002 a 0.50004997,0.50004997 0 0 0 0.03125,-0.01953 0.50004997,0.50004997 0 0 0 0.0098,-0.0078 0.50004997,0.50004997 0 0 0 0.0293,-0.02344 0.50004997,0.50004997 0 0 0 0.0098,-0.0078 0.50004997,0.50004997 0 0 0 0.02734,-0.02539 0.50004997,0.50004997 0 0 0 0.002,-0.002 0.50004997,0.50004997 0 0 0 -0.361328,-0.84375 z m 9.970703,0 a 0.50004997,0.50004997 0 0 0 -0.339843,0.84375 0.50004997,0.50004997 0 0 1 0.002,0.002 0.50004997,0.50004997 0 0 0 0.0098,0.0078 0.50004997,0.50004997 0 0 0 0.05664,0.04883 0.50004997,0.50004997 0 0 0 0.04492,0.0293 c 0.701305,0.430761 1.227995,1.096025 1.488281,1.876953 a 0.50028229,0.50028229 0 1 0 0.949219,-0.316406 c -0.104043,-0.312162 -0.251225,-0.6042 -0.417969,-0.882813 0.572146,0.07731 1.155779,0.08059 1.732422,-0.02539 a 0.50128103,0.50128103 0 0 0 -0.179688,-0.986328 c -1.051688,0.1933 -2.138407,0.0074 -3.064453,-0.527344 a 0.50004997,0.50004997 0 0 0 -0.0039,-0.002 0.50004997,0.50004997 0 0 0 -0.07227,-0.03516 0.50004997,0.50004997 0 0 0 -0.03516,-0.01172 0.50004997,0.50004997 0 0 0 -0.01367,-0.0039 0.50004997,0.50004997 0 0 1 -0.002,0 0.50004997,0.50004997 0 0 0 -0.0957,-0.01563 0.50004997,0.50004997 0 0 0 -0.05859,-0.002 z m -6.982421,2.994141 A 0.50004997,0.50004997 0 0 0 13,24.46875 c 0,0.8343 -0.665651,1.5 -1.5,1.5 a 0.50004997,0.50004997 0 1 0 0,1 c 1.37479,0 2.5,-1.1252 2.5,-2.5 a 0.50004997,0.50004997 0 0 0 -0.507812,-0.505859 z m 3.966796,0 A 0.50004997,0.50004997 0 0 0 17,24.46875 c 0,1.3748 1.12521,2.5 2.5,2.5 a 0.50004997,0.50004997 0 1 0 0,-1 c -0.834349,0 -1.5,-0.6657 -1.5,-1.5 a 0.50004997,0.50004997 0 0 0 -0.492188,-0.505859 0.50004997,0.50004997 0 0 0 -0.04883,0 z" color="#000" font-family="sans-serif" font-weight="400" overflow="visible" transform="translate(8.5 1012.393)" white-space="normal" class="colorfff svgShape"></path></g></svg></g></svg>