<svg xmlns="http://www.w3.org/2000/svg" width="32" height="32" viewBox="0 0 32 32"><g transform="translate(341.087 -643.926)"><path fill="#ffdc7b" d="m 11.022799,5.9524031 a 4.5,4.5 0 0 1 2.110414,-4.2797153 4.5,4.5 0 0 1 4.771712,0.023849 4.5,4.5 0 0 1 2.067531,4.3005964" transform="rotate(32.832 -1247.867 -240.52)"/><path fill="#ff5855" d="m -326.8747,669.74632 10.30145,-15.9649 -7.5647,-4.876 -10.30144,15.9649 z"/><path fill="none" stroke="#373449" d="M-321.6318 650.55452l-10.25493 15.893M-319.11103 652.18112l-10.25487 15.8929"/><path fill="#ffdc7b" d="m -334.42957,664.87152 -0.0216,8.3169 7.56899,-3.4469 z"/><path fill="#ed4343" d="m -317.72862,653.03582 -10.3015,15.965 1.15332,0.7487 10.30145,-15.9649 -1.15332,-0.7487 z"/><path fill="#f9c441" d="M-317.85579 647.04052c-.0953-.049-.19991-.075-.2963-.1172 1.41951 1.337 1.85222 3.4933.92048 5.3171-.14443.2827-.30783.5417-.50833.7878l1.14508.7433c.2005-.2461.3639-.5051.50833-.7878 1.13071-2.2132.44212-4.8098-1.7711-5.9403zM-328.03009 669.00082l-6.24291 3.5724-.17818.6152 7.57648-3.4421z"/><path fill="#ffee8f" d="m -333.10511,665.72962 -0.90009,7.4297 -0.45709,0.1334 0.20104,-8.3074 z"/><path fill="none" stroke="#373449" stroke-linecap="round" stroke-linejoin="round" d="m -334.41773,664.87222 -0.0216,8.3169 7.56894,-3.4469 z"/><path fill="#ff7a6c" d="m -324.04302,648.96592 -10.30144,15.9649 1.15332,0.7487 10.3015,-15.965 -1.15333,-0.7487 z"/><path fill="#ffee8f" d="m -317.37955,647.34742 c 0.0834,0.067 0.15116,0.1506 0.22913,0.2215 -1.80385,-0.7407 -3.94648,-0.2442 -5.22258,1.3575 -0.19786,0.2483 -0.36629,0.5042 -0.50758,0.7884 l -1.15052,-0.735 c 0.14136,-0.2842 0.30973,-0.54 0.50757,-0.7883 1.54864,-1.9438 4.19783,-2.389 6.14152,-0.8403 z"/><path fill="none" stroke="#373449" stroke-linecap="round" stroke-linejoin="round" d="m -326.8747,669.74632 10.30145,-15.9649 -7.5647,-4.876 -10.30144,15.9649 z"/><path fill="none" stroke="#373449" d="m 11.022799,5.9524031 a 4.5,4.5 0 0 1 2.110414,-4.2797153 4.5,4.5 0 0 1 4.771712,0.023849 4.5,4.5 0 0 1 2.067531,4.3005964" transform="rotate(32.832 -1247.64 -241.294)"/><path fill="#373449" d="m -331.93479,671.88592 -2.85816,1.6107 0.30769,-3.2663"/></g></svg>