<svg xmlns="http://www.w3.org/2000/svg" width="16" height="16" viewBox="0 0 16 16"><g transform="translate(0 -1036.362)"><path fill="#c2e4f8" style="isolation:auto;mix-blend-mode:normal" d="m 0.49360287,1039.8622 14.00000013,0 0,9 -14.00000013,0 z" color="#000" overflow="visible"/><path fill="#fff" d="m 0.92985,1040.3265 13.21429,0 0.0204,1.1303 -6.64163,3.3655 -6.59306,-3.0226 0,-0.2642 z"/><path fill="#249fe6" style="line-height:normal;text-indent:0;text-align:start;text-decoration-line:none;text-decoration-style:solid;text-decoration-color:#000;text-transform:none;block-progression:tb;isolation:auto;mix-blend-mode:normal" d="m 0.49414062,1039.3613 a 0.50005,0.50005 0 0 0 -0.5,0.5 l 0,9 a 0.50005,0.50005 0 0 0 0.5,0.5 l 14.00000038,0 a 0.50005,0.50005 0 0 0 0.5,-0.5 l 0,-9 a 0.50005,0.50005 0 0 0 -0.5,-0.5 l -14.00000038,0 z m 0.5,1 13.00000038,0 0,8 -13.00000038,0 0,-8 z" color="#000" font-family="sans-serif" font-weight="400" overflow="visible" white-space="normal"/><path fill="#249fe6" fill-rule="evenodd" style="line-height:normal;text-indent:0;text-align:start;text-decoration-line:none;text-decoration-style:solid;text-decoration-color:#000;text-transform:none;block-progression:tb;isolation:auto;mix-blend-mode:normal" d="m 14.498047,1041.3613 a 0.50005,0.50005 0 0 0 -0.226563,0.057 l -6.7773434,3.3535 -6.77929685,-3.3535 a 0.50006994,0.50006994 0 0 0 -0.44335937,0.8965 l 7.00000002,3.4628 a 0.50005,0.50005 0 0 0 0.4433594,0 l 7.0000002,-3.4628 a 0.50005,0.50005 0 0 0 -0.216797,-0.9532 z" color="#000" font-family="sans-serif" font-weight="400" overflow="visible" white-space="normal"/></g></svg>