<?xml version="1.0" encoding="UTF-8"?><svg xmlns="http://www.w3.org/2000/svg" xmlns:xlink="http://www.w3.org/1999/xlink" version="1.1" id="Layer_1" x="0px" y="0px" viewBox="0 0 24 24" xml:space="preserve"><path fill="#303C42" d="M12 23H.5a.5.5 0 0 1-.353-.854l2.867-2.867C1.066 17.264 0 14.698 0 12 0 5.935 5.383 1 12 1s12 4.935 12 11-5.383 11-12 11z"/><path fill="#4FC3F7" d="M1.707 22H12c6.065 0 11-4.486 11-10S18.065 2 12 2 1 6.486 1 12c0 2.584 1.089 5.04 3.066 6.915a.501.501 0 0 1 .01.716L1.707 22z"/><path opacity="0.1" d="M19.338 4.571C20.69 6.232 21.5 8.28 21.5 10.5c0 5.514-4.935 10-11 10H3.207l-1.5 1.5H12c6.065 0 11-4.486 11-10 0-2.95-1.42-5.597-3.662-7.429z"/><path fill="#303C42" d="M17.5 9h-11a.5.5 0 1 0 0 1h11a.5.5 0 1 0 0-1z"/><path fill="#303C42" d="M17.5 12h-11a.5.5 0 1 0 0 1h11a.5.5 0 1 0 0-1z"/><path fill="#303C42" d="M12.5 15h-6a.5.5 0 1 0 0 1h6a.5.5 0 1 0 0-1z"/><linearGradient id="SVGID_1_" gradientUnits="userSpaceOnUse" x1="0.5004336" y1="8.6747351" x2="21.9391708" y2="18.6717815"><stop offset="0" stop-color="#FFF" stop-opacity="0.2"/><stop offset="1" stop-color="#FFF" stop-opacity="0"/></linearGradient><path fill="url(#SVGID_1_)" d="M12 23H.5a.5.5 0 0 1-.353-.854l2.867-2.867C1.066 17.264 0 14.698 0 12 0 5.935 5.383 1 12 1s12 4.935 12 11-5.383 11-12 11z"/><metadata><rdf:RDF xmlns:rdf="http://www.w3.org/1999/02/22-rdf-syntax-ns#" xmlns:rdfs="http://www.w3.org/2000/01/rdf-schema#" xmlns:dc="http://purl.org/dc/elements/1.1/"><rdf:Description about="https://iconscout.com/legal#licenses" dc:title="message,chat,bubble" dc:description="message,chat,bubble" dc:publisher="Iconscout" dc:date="2017-08-16" dc:format="image/svg+xml" dc:language="en"><dc:creator><rdf:Bag><rdf:li>Those Icons</rdf:li></rdf:Bag></dc:creator></rdf:Description></rdf:RDF></metadata></svg>