<svg xmlns="http://www.w3.org/2000/svg" id="Layer_1" enable-background="new 0 0 32 32" viewBox="0 0 32 32"><path fill="#f2696a" d="M19.369,21.695c1.48-2.124,1.541-4.934,0.192-7.119l2.499-2.499c0.831,0.294,1.748,0.274,2.561-0.068   c0.63-0.265,0.746-1.12,0.263-1.603L21.58,7.103c-0.484-0.484-1.34-0.367-1.605,0.265c-0.348,0.828-0.363,1.762-0.053,2.604   l-2.483,2.483c-2.186-1.349-4.995-1.288-7.119,0.192c-0.501,0.349-0.542,1.084-0.11,1.516l7.643,7.643   C18.285,22.237,19.019,22.196,19.369,21.695z"/><polygon fill="#e2e2e2" points="6.264 25.75 12.982 16.912 15.103 19.033"/><path fill="#1a4875" d="M25.236,10.052l-3.303-3.303c-0.359-0.359-0.875-0.516-1.375-0.416c-0.479,0.094-0.86,0.401-1.045,0.841  c-0.355,0.846-0.41,1.779-0.162,2.661l-1.995,1.995c-2.316-1.255-5.148-1.109-7.323,0.407c-0.353,0.245-0.577,0.636-0.616,1.07  c-0.04,0.45,0.12,0.891,0.438,1.209l2.454,2.454l-6.444,8.479c-0.151,0.199-0.132,0.479,0.044,0.656  c0.097,0.097,0.225,0.146,0.354,0.146c0.106,0,0.212-0.034,0.303-0.102l8.479-6.444l2.454,2.454  c0.286,0.286,0.671,0.444,1.073,0.444c0.045,0,0.09-0.002,0.136-0.006c0.435-0.039,0.825-0.263,1.07-0.616  c1.515-2.174,1.662-5.007,0.407-7.323l2.014-2.014c0.871,0.234,1.788,0.175,2.615-0.174c0.439-0.184,0.745-0.564,0.839-1.043  C25.751,10.925,25.596,10.411,25.236,10.052z M8.881,23.133l4.143-5.451l1.308,1.308L8.881,23.133z M24.427,11.548  c-0.697,0.293-1.478,0.313-2.201,0.058c-0.181-0.065-0.384-0.019-0.52,0.118l-2.499,2.499c-0.164,0.164-0.194,0.419-0.072,0.616  c1.256,2.035,1.187,4.614-0.177,6.571c-0.104,0.149-0.257,0.184-0.338,0.191c-0.155,0.015-0.305-0.041-0.414-0.149l-2.71-2.71  c-0.015-0.02-0.022-0.044-0.04-0.062l-2.121-2.121c-0.018-0.018-0.042-0.025-0.062-0.04l-2.71-2.71  c-0.108-0.108-0.163-0.259-0.149-0.414c0.007-0.082,0.042-0.234,0.191-0.338c1.024-0.714,2.219-1.073,3.417-1.073  c1.09,0,2.184,0.298,3.153,0.896c0.196,0.121,0.451,0.092,0.616-0.072l2.483-2.482c0.138-0.138,0.183-0.344,0.116-0.526  c-0.27-0.732-0.254-1.526,0.044-2.238c0.074-0.175,0.229-0.23,0.316-0.247c0.174-0.033,0.352,0.019,0.475,0.142l3.303,3.303  c0.122,0.122,0.176,0.303,0.143,0.475C24.655,11.32,24.601,11.475,24.427,11.548z"/></svg>