<svg id="SvgjsSvg1001" width="288" height="288" xmlns="http://www.w3.org/2000/svg" version="1.1" xmlns:xlink="http://www.w3.org/1999/xlink" xmlns:svgjs="http://svgjs.com/svgjs"><defs id="SvgjsDefs1002"></defs><g id="SvgjsG1008" transform="matrix(0.9167,0,0,0.9167,11.995200000000011,11.995087364780687)"><svg xmlns="http://www.w3.org/2000/svg" width="288" height="288" viewBox="0 0 26 26"><g fill="#abc811" transform="translate(5 -1031.362)" class="colorfff svgShape"><circle cx="8" cy="1044.362" r="13" fill="#ffc627" fill-rule="evenodd" class="coloref4c45 svgShape"></circle><path fill="#f1b422" style="line-height:normal;text-indent:0;text-align:start;text-decoration-line:none;text-decoration-style:solid;text-decoration-color:#000;text-transform:none;block-progression:tb;isolation:auto;mix-blend-mode:normal;marker:none" d="M 14.878906 25.851562 A 12.999989 12.999989 0 0 0 15.208984 25.810547 A 12.999989 12.999989 0 0 0 16.476562 25.525391 A 12.999989 12.999989 0 0 0 17.710938 25.117188 A 12.999989 12.999989 0 0 0 18.896484 24.585938 A 12.999989 12.999989 0 0 0 20.023438 23.939453 A 12.999989 12.999989 0 0 0 21.080078 23.183594 A 12.999989 12.999989 0 0 0 22.056641 22.326172 A 12.999989 12.999989 0 0 0 22.943359 21.375 A 12.999989 12.999989 0 0 0 23.728516 20.339844 A 12.999989 12.999989 0 0 0 24.408203 19.232422 A 12.999989 12.999989 0 0 0 24.974609 18.0625 A 12.999989 12.999989 0 0 0 25.419922 16.841797 A 12.999989 12.999989 0 0 0 25.691406 15.771484 L 15.431641 5.5117188 A 0.50005001 0.50005001 0 0 0 14.931641 5.0117188 L 10.791016 5.0117188 A 0.50005001 0.50005001 0 0 0 10.306641 5.390625 L 8.8339844 11.335938 A 0.50005001 0.50005001 0 0 0 9.3183594 11.953125 L 10.332031 12.966797 L 8.8691406 15.994141 A 0.50005001 0.50005001 0 0 0 9.3183594 16.710938 L 10.398438 17.791016 L 9.3222656 20.294922 A 0.50005001 0.50005001 0 0 0 9.9785156 20.951172 L 14.878906 25.851562 z " color="#000" font-family="sans-serif" font-weight="400" transform="translate(-5 1031.362)" white-space="normal" class="colordf2209 svgShape"></path><path style="line-height:normal;text-indent:0;text-align:start;text-decoration-line:none;text-decoration-style:solid;text-decoration-color:#000;text-transform:none;block-progression:tb;isolation:auto;mix-blend-mode:normal;marker:none" d="M 5.7910156,0.00976563 A 0.50005001,0.50005001 0 0 0 5.3066406,0.38867188 L 3.8339844,6.3339844 a 0.50005001,0.50005001 0 0 0 0.484375,0.6191406 l 1.5039062,0 -1.953125,4.041016 a 0.50005001,0.50005001 0 0 0 0.4492188,0.716797 l 1.5429687,0 -1.5390625,3.583984 a 0.50005001,0.50005001 0 0 0 0.8046875,0.55664 L 12.027344,9.1914062 a 0.50005001,0.50005001 0 0 0 -0.347656,-0.859375 l -1.960938,0 1.951172,-4.0390624 a 0.50005001,0.50005001 0 0 0 -0.449219,-0.71875 l -1.6386718,0 0.8320308,-2.92968755 A 0.50005001,0.50005001 0 0 0 9.9316406,0.00976563 l -4.140625,0 z m 0.3925782,0.99804687 3.0859374,0 -0.8300781,2.9316406 a 0.50005001,0.50005001 0 0 0 0.4804688,0.6367188 l 1.5019531,0 -1.9511719,4.0390625 a 0.50005001,0.50005001 0 0 0 0.4492188,0.7167968 l 1.5234371,0 L 6.2207031,13.40625 7.078125,11.408203 A 0.50005001,0.50005001 0 0 0 6.6210938,10.710938 l -1.5039063,0 1.953125,-4.039063 A 0.50005001,0.50005001 0 0 0 6.6210938,5.953125 l -1.6621094,0 1.2246094,-4.9453125 z" color="#000" font-family="sans-serif" font-weight="400" overflow="visible" transform="translate(0 1036.363)" white-space="normal" fill="#000000" class="color000 svgShape"></path></g></svg></g></svg>