<svg id="SvgjsSvg1001" width="288" height="288" xmlns="http://www.w3.org/2000/svg" version="1.1" xmlns:xlink="http://www.w3.org/1999/xlink" xmlns:svgjs="http://svgjs.com/svgjs"><defs id="SvgjsDefs1002"></defs><g id="SvgjsG1008" transform="matrix(0.9167,0,0,0.9167,11.995200000000011,11.995087364780687)"><svg xmlns="http://www.w3.org/2000/svg" width="288" height="288" viewBox="0 0 26 26"><g transform="translate(0 -1026.362)" fill="#45c2f4" class="color000 svgShape"><circle cx="13" cy="1039.362" r="13" fill="#45c2f4" fill-rule="evenodd" class="color50b748 svgShape"></circle><path fill="#4597ff" style="line-height:normal;text-indent:0;text-align:start;text-decoration-line:none;text-decoration-style:solid;text-decoration-color:#000;text-transform:none;block-progression:tb;isolation:auto;mix-blend-mode:normal" d="M 15.539062 25.736328 A 12.999989 12.999989 0 0 0 16.476562 25.525391 A 12.999989 12.999989 0 0 0 17.710938 25.117188 A 12.999989 12.999989 0 0 0 18.896484 24.585938 A 12.999989 12.999989 0 0 0 20.023438 23.939453 A 12.999989 12.999989 0 0 0 21.080078 23.183594 A 12.999989 12.999989 0 0 0 22.056641 22.326172 A 12.999989 12.999989 0 0 0 22.943359 21.375 A 12.999989 12.999989 0 0 0 23.728516 20.339844 A 12.999989 12.999989 0 0 0 24.408203 19.232422 A 12.999989 12.999989 0 0 0 24.841797 18.333984 L 16.353516 9.8457031 A 0.50016337 0.49969427 44.998693 0 0 16.5 9.5019531 L 24.998047 18 A 12.999989 12.999989 0 0 0 25 17.992188 L 16.5 9.4921875 A 0.50016337 0.49969427 44.998693 0 0 16.396484 9.1816406 L 25.054688 17.839844 A 12.999989 12.999989 0 0 0 25.056641 17.833984 L 16.353516 9.1308594 L 13.361328 6.1464844 A 0.50016337 0.49969427 44.998693 0 0 13 6 A 0.50016337 0.49969427 44.998693 0 0 12.654297 6.1464844 L 9.6484375 9.1464844 A 0.50016337 0.49969427 44.998693 0 0 10.003906 10 L 11.300781 11.296875 L 11.300781 15.501953 A 0.50016337 0.49969427 44.998693 0 0 11.800781 16.001953 L 12.796875 16.998047 L 11.802734 16.998047 A 0.49992888 0.49992888 0 1 0 11.802734 17.996094 L 12.804688 18.998047 L 11.802734 18.998047 A 0.5 0.5 0 0 0 11.802734 19.998047 L 12.802734 20.998047 L 11.802734 20.998047 A 0.501 0.501 0 0 0 11.802734 22 L 15.539062 25.736328 z " color="#000" font-family="sans-serif" font-weight="400" transform="translate(0 1026.362)" white-space="normal" class="color10a711 svgShape"></path><path fill="#ffffff" style="line-height:normal;text-indent:0;text-align:start;text-decoration-line:none;text-decoration-style:solid;text-decoration-color:#000;text-transform:none;block-progression:tb;isolation:auto;mix-blend-mode:normal" d="m 11.749018,1040.6014 a 0.46901223,0.46857235 44.998693 0 0 -0.1373,-0.3388 l -2.8052001,-2.7978 a 0.46901223,0.46857235 44.998693 0 0 -0.6628,0 l -2.8198,2.8125 a 0.46901223,0.46857235 44.998693 0 0 0.3332,0.802 l 1.2158,0 0,5.1581 a 0.46901223,0.46857235 44.998693 0 0 0.4688,0.4688 l 1.9189,0 a 0.46901223,0.46857235 44.998693 0 0 0.4687,-0.4688 l 0,-5.1654 0.1502,0 1.4026001,0 a 0.46901223,0.46857235 44.998693 0 0 0.4669,-0.4614 z m -1.5985,-0.4724 -0.2747001,0 a 0.46901223,0.46857235 44.998693 0 0 -0.011,0 l -0.6115,0.015 a 0.46901223,0.46857235 44.998693 0 0 -0.4596,0.4668 l 0,5.1563 -0.9814,0 0,-5.1563 a 0.46901223,0.46857235 44.998693 0 0 -0.4633,-0.4686 l -0.2801,0 a 0.46901223,0.46857235 44.998693 0 0 -0.01,0 l -0.2673,0 1.6845,-1.6791 1.6736001,1.6699 z m -0.4102001,7.9741 a 0.46879235,0.46879235 0 0 0 -0.476,-0.4632 l -1.9208,0 a 0.46879235,0.46879235 0 1 0 0,0.9375 l 1.9208,0 a 0.46879235,0.46879235 0 0 0 0.476,-0.4761 z m 0,1.8751 a 0.46879235,0.46879235 0 0 0 -0.476,-0.4615 l -1.9208,0 a 0.46879235,0.46879235 0 1 0 0,0.9375 l 1.9208,0 a 0.46879235,0.46879235 0 0 0 0.476,-0.4761 z m 0,1.8749 a 0.46879235,0.46879235 0 0 0 -0.476,-0.4614 l -1.9208,0 a 0.46966081,0.46966081 0 1 0 0,0.9393 l 1.9208,0 a 0.46879235,0.46879235 0 0 0 0.476,-0.4761 z" color="#000" font-family="sans-serif" font-weight="400" overflow="visible" transform="matrix(1.06642 0 0 1.06642 3.97 -73.863)" white-space="normal" class="colorfff svgShape"></path></g></svg></g></svg>