<?xml version="1.0" encoding="UTF-8"?><svg xmlns="http://www.w3.org/2000/svg" xmlns:xlink="http://www.w3.org/1999/xlink" version="1.1" id="Layer_1" x="0px" y="0px" viewBox="0 0 24 24" xml:space="preserve"><path fill="#EE3325" d="M12 0C7.738 0 4 3.505 4 7.5V13c0 2.943 1.447 5.704 2.07 6.755C6.77 20.935 9.198 24 12 24s5.23-3.064 5.93-4.245C18.553 18.705 20 15.943 20 13V7.5C20 3.505 16.262 0 12 0z"/><path opacity="0.1" fill="#010101" d="M12 23.75c-2.802 0-5.23-3.064-5.93-4.245C5.447 18.455 4 15.693 4 12.75V13c0 2.943 1.447 5.704 2.07 6.755C6.77 20.935 9.198 24 12 24s5.23-3.064 5.93-4.245C18.553 18.705 20 15.943 20 13v-.25c0 2.943-1.447 5.704-2.07 6.755-.7 1.18-3.128 4.245-5.93 4.245z"/><path fill="#1A1A1A" d="M16.5 15c-2.068 0-3.752-2.924-3.937-3.257l-.252-.454L20 7.392V10.5c0 1.306-1.227 4.5-3.5 4.5z"/><path fill="#FFF" d="M13.708 11.702C14.298 12.6 15.442 14 16.5 14c1.444 0 2.5-2.456 2.5-3.5V9.02l-5.292 2.682z"/><path fill="#1A1A1A" d="M4 10.5V7.392l7.69 3.897-.253.454C11.252 12.076 9.567 15 7.5 15 5.227 15 4 11.806 4 10.5z"/><path fill="#FFF" d="M5 9.02v1.48C5 11.544 6.056 14 7.5 14c1.058 0 2.201-1.4 2.792-2.298L5 9.02z"/><path opacity="0.1" fill="#010101" d="M17.827 2.487c-.165.846-.81 2.414-1.518 3.98-.737.008-3.233-.782-3.809-1.166V.025C12.334.015 12.168 0 12 0s-.334.015-.5.025v5.277c-.56.377-2.804 1.124-3.565 1.15-.783-1.63-1.46-3.185-1.672-4.058a8.12 8.12 0 0 0-.778.882c.344 1.011.956 2.375 1.596 3.702-.088.328-.906 1.142-1.247 1.344l.916.464c.312-.228.611-.532.82-.812.297.597.583 1.157.84 1.653l1.538.779A113.015 113.015 0 0 1 8.4 7.405c.192-.031.39-.071.59-.12.092-.022 1.504-.369 2.509-.859v4.48l-.092.24.281.143-.252.454c-.061.11-.288.503-.635.98l-1.443 3.75a8.543 8.543 0 0 0-1.25-1.563c-.198.054-.401.09-.609.09-.35 0-.671-.083-.97-.215l-1.856 1.92c.124.365.254.712.39 1.035l2.196-2.272c.558.47 1.536 1.79 1.607 2.285l-1.446 3.761c.238.256.498.514.778.763l1.49-3.872C9.974 18.292 10.823 18 12 18c1.175 0 2.025.291 2.312.405l1.489 3.872c.28-.249.54-.506.778-.763l-1.442-3.749c.072-.51 1.047-1.827 1.603-2.298l2.196 2.273c.136-.323.266-.67.39-1.036l-1.855-1.92c-.3.133-.621.216-.971.216-.208 0-.41-.036-.61-.09a8.548 8.548 0 0 0-1.25 1.563l-1.442-3.75c-.347-.477-.574-.87-.635-.98l-.252-.454.281-.143-.092-.24v-4.48c1.005.49 2.417.837 2.508.86.298.071.587.123.857.15-.503 1.075-.986 2.06-1.314 2.717l1.485-.752c.163-.335.336-.695.514-1.073.158.19.35.374.547.535l1.074-.544a.47.47 0 0 0-.15-.032c-.258-.072-.806-.649-.981-1.013.63-1.379 1.246-2.823 1.576-3.868a8.084 8.084 0 0 0-.789-.919zM13.856 17.22A7.864 7.864 0 0 0 12 17c-.746 0-1.375.103-1.856.22L12 12.394l1.856 4.826z"/><linearGradient id="SVGID_1_" gradientUnits="userSpaceOnUse" x1="5.4150052" y1="4.7972918" x2="17.0714722" y2="16.4537582"><stop offset="0" stop-color="#010101" stop-opacity="0.1"/><stop offset="1" stop-color="#010101" stop-opacity="0"/></linearGradient><path fill="url(#SVGID_1_)" d="M17.827 2.487c-.165.846-.81 2.414-1.518 3.98-.737.008-3.233-.782-3.809-1.166V.025C12.334.015 12.168 0 12 0s-.334.015-.5.025v5.277c-.56.377-2.804 1.124-3.565 1.15-.783-1.63-1.46-3.185-1.672-4.058a8.12 8.12 0 0 0-.778.882c.344 1.011.956 2.375 1.596 3.702-.088.328-.906 1.142-1.247 1.344l.916.464c.312-.228.611-.532.82-.812.297.597.583 1.157.84 1.653l1.538.779A113.015 113.015 0 0 1 8.4 7.405c.192-.031.39-.071.59-.12.092-.022 1.504-.369 2.509-.859v4.48l-.092.24.281.143-.252.454c-.061.11-.288.503-.635.98l-1.443 3.75a8.543 8.543 0 0 0-1.25-1.563c-.198.054-.401.09-.609.09-.35 0-.671-.083-.97-.215l-1.856 1.92c.124.365.254.712.39 1.035l2.196-2.272c.558.47 1.536 1.79 1.607 2.285l-1.446 3.761c.238.256.498.514.778.763l1.49-3.872C9.974 18.292 10.823 18 12 18c1.175 0 2.025.291 2.312.405l1.489 3.872c.28-.249.54-.506.778-.763l-1.442-3.749c.072-.51 1.047-1.827 1.603-2.298l2.196 2.273c.136-.323.266-.67.39-1.036l-1.855-1.92c-.3.133-.621.216-.971.216-.208 0-.41-.036-.61-.09a8.548 8.548 0 0 0-1.25 1.563l-1.442-3.75c-.347-.477-.574-.87-.635-.98l-.252-.454.281-.143-.092-.24v-4.48c1.005.49 2.417.837 2.508.86.298.071.587.123.857.15-.503 1.075-.986 2.06-1.314 2.717l1.485-.752c.163-.335.336-.695.514-1.073.158.19.35.374.547.535l1.074-.544a.47.47 0 0 0-.15-.032c-.258-.072-.806-.649-.981-1.013.63-1.379 1.246-2.823 1.576-3.868a8.084 8.084 0 0 0-.789-.919zM13.856 17.22A7.864 7.864 0 0 0 12 17c-.746 0-1.375.103-1.856.22L12 12.394l1.856 4.826z"/><path opacity="0.2" fill="#FFF" d="M12 0C7.738 0 4 3.505 4 7.5v.25c0-3.995 3.738-7.5 8-7.5s8 3.505 8 7.5V7.5C20 3.505 16.262 0 12 0z"/><linearGradient id="SVGID_2_" gradientUnits="userSpaceOnUse" x1="3.2180951" y1="7.7148819" x2="19.9836731" y2="15.5327988"><stop offset="0" stop-color="#FFF" stop-opacity="0.2"/><stop offset="1" stop-color="#FFF" stop-opacity="0"/></linearGradient><path fill="url(#SVGID_2_)" d="M12 0C7.738 0 4 3.505 4 7.5V13c0 2.943 1.447 5.704 2.07 6.755C6.77 20.935 9.198 24 12 24s5.23-3.064 5.93-4.245C18.553 18.705 20 15.943 20 13V7.5C20 3.505 16.262 0 12 0z"/><metadata><rdf:RDF xmlns:rdf="http://www.w3.org/1999/02/22-rdf-syntax-ns#" xmlns:rdfs="http://www.w3.org/2000/01/rdf-schema#" xmlns:dc="http://purl.org/dc/elements/1.1/"><rdf:Description about="https://iconscout.com/legal#licenses" dc:title="people,avatar,head,spiderman,marvel,spider,man" dc:description="people,avatar,head,spiderman,marvel,spider,man" dc:publisher="Iconscout" dc:date="2017-11-13" dc:format="image/svg+xml" dc:language="en"><dc:creator><rdf:Bag><rdf:li>Those Icons</rdf:li></rdf:Bag></dc:creator></rdf:Description></rdf:RDF></metadata></svg>