<svg id="SvgjsSvg1001" width="288" height="288" xmlns="http://www.w3.org/2000/svg" version="1.1" xmlns:xlink="http://www.w3.org/1999/xlink" xmlns:svgjs="http://svgjs.com/svgjs"><defs id="SvgjsDefs1002"></defs><g id="SvgjsG1008" transform="matrix(0.9167,0,0,0.9167,11.995200000000011,11.995087364780687)"><svg xmlns="http://www.w3.org/2000/svg" width="288" height="288" viewBox="0 0 26 26"><g fill="#3aff56" transform="translate(5 -1031.863)" class="colorfff svgShape"><circle cx="8" cy="1044.863" r="13" fill="#7bd74f" fill-rule="evenodd" class="colorffa40b svgShape"></circle><path fill="#70a74d" style="line-height:normal;text-indent:0;text-align:start;text-decoration-line:none;text-decoration-style:solid;text-decoration-color:#000;text-transform:none;block-progression:tb;isolation:auto;mix-blend-mode:normal" d="M 15.205078 25.810547 A 12.999996 12.999996 0 0 0 15.208984 25.810547 A 12.999996 12.999996 0 0 0 16.476562 25.525391 A 12.999996 12.999996 0 0 0 17.710938 25.117188 A 12.999996 12.999996 0 0 0 18.896484 24.585938 A 12.999996 12.999996 0 0 0 20.023438 23.939453 A 12.999996 12.999996 0 0 0 21.080078 23.183594 A 12.999996 12.999996 0 0 0 22.056641 22.326172 A 12.999996 12.999996 0 0 0 22.943359 21.375 A 12.999996 12.999996 0 0 0 23.728516 20.339844 A 12.999996 12.999996 0 0 0 24.408203 19.232422 A 12.999996 12.999996 0 0 0 24.974609 18.0625 A 12.999996 12.999996 0 0 0 25.419922 16.841797 A 12.999996 12.999996 0 0 0 25.740234 15.582031 A 12.999996 12.999996 0 0 0 25.798828 15.191406 L 19.716797 9.109375 L 16.888672 6.28125 C 16.597928 5.99055 16.213082 5.8457031 15.828125 5.8457031 C 15.443168 5.8457031 15.058327 5.99055 14.767578 6.28125 C 14.186089 6.86275 14.186089 7.8208436 14.767578 8.4023438 L 15.121094 8.7558594 L 8.7578125 15.119141 L 8.4042969 14.767578 C 7.8228066 14.186078 6.8627432 14.186078 6.28125 14.767578 C 5.6997608 15.348978 5.6997608 16.307172 6.28125 16.888672 L 9.1113281 19.716797 L 15.205078 25.810547 z " color="#000" font-family="sans-serif" font-weight="400" transform="translate(-5 1031.863)" white-space="normal" class="colorff7712 svgShape"></path><path style="line-height:normal;text-indent:0;text-align:start;text-decoration-line:none;text-decoration-style:solid;text-decoration-color:#000;text-transform:none;block-progression:tb;isolation:auto;mix-blend-mode:normal" d="m 10.675781,1 c -0.384957,0 -0.7697984,0.1447969 -1.0605466,0.4355469 -0.5814893,0.5815 -0.5814893,1.5395937 0,2.1210937 L 9.96875,3.9101562 3.6054688,10.273438 3.2519531,9.921875 c -0.5814893,-0.5815 -1.5415505,-0.5815 -2.1230469,0 -0.58148916,0.5814 -0.58148916,1.539594 0,2.121094 l 2.8300782,2.828125 c 0.5814892,0.5815 1.5396044,0.5815 2.1210937,0 0.5814963,-0.5815 0.5814893,-1.539594 0,-2.121094 L 5.7265625,12.396484 12.089844,6.03125 12.443359,6.3847656 c 0.581489,0.5815 1.539605,0.5815 2.121094,0 0.581496,-0.5815 0.581489,-1.5395937 0,-2.1210937 L 11.736328,1.4355469 C 11.445584,1.1447969 11.060738,1 10.675781,1 Z m 0,0.9921875 c 0.126281,0 0.252523,0.049391 0.353516,0.1503906 l 2.828125,2.828125 c 0.201985,0.202 0.201985,0.5050313 0,0.7070313 -0.201978,0.202 -0.505046,0.202 -0.707031,0 L 12.796875,5.3242188 10.675781,3.203125 10.322266,2.8496094 c -0.201985,-0.202 -0.201978,-0.5050313 0,-0.7070313 0.100992,-0.101 0.227235,-0.1503906 0.353515,-0.1503906 z m 0,2.625 0.707031,0.7070313 L 5.0195312,11.689453 4.3125,10.982422 10.675781,4.6171875 Z M 2.1894531,10.476562 c 0.1262805,0 0.2525231,0.05134 0.3535157,0.152344 l 0.3535156,0.353516 -0.013672,0.01367 0.3535156,0.353515 1.7695313,1.767579 0.013672,-0.01367 0.3535157,0.353515 c 0.2019851,0.202 0.2019851,0.505032 0,0.707031 -0.201978,0.202 -0.5050462,0.202 -0.7070313,0 L 1.8359375,11.335938 c -0.201985,-0.202 -0.201978,-0.505132 0,-0.707032 0.1009925,-0.101 0.2272352,-0.152344 0.3535156,-0.152344 z" color="#000" font-family="sans-serif" font-weight="400" overflow="visible" transform="translate(.153 1036.71)" white-space="normal" fill="#000000" class="color000 svgShape"></path></g></svg></g></svg>