<svg xmlns="http://www.w3.org/2000/svg" viewBox="0 0 512 512"><path fill="#e1e1e3" d="M349,288.56l-21.23,21.28-38.23-38.32-26-26.09-15-15-25.14-25.2L98.45,80l9.62-55a15,15,0,0,1,12.61,5l128.7,145.72,25.2,28.53,14.05,15.91,25.79,29.21Z"/><path fill="#c8c5cc" d="M327.75,309.84,306.54,331.1l-42.09-37.34-26.09-23.15-15.88-14.09-24.9-22.09-149-132.17a15,15,0,0,1-5-12.58L98.45,80,223.37,205.23l25.14,25.2,15,15,26,26.09Z"/><path fill="#aeadb3" d="M108.07,25.06,98.45,80,43.61,89.68l4.25-46.8A15,15,0,0,1,61.43,29.31Z"/><polygon fill="#a17855" points="425.63 457.74 475.31 407.93 379.85 312.27 330.17 362.09 425.63 457.74"/><path fill="#896848" d="M379.85,312.27l-7.5,7.52,80.91,81.08a10,10,0,0,1,0,14.13l-35.13,35.22,7.5,7.52,49.68-49.81Z"/><path fill="#f9a242" d="M395.2,296.9l-15.34,15.38-24.56,24.6-.41.42-40,40.1,0,0a15,15,0,0,1-21.21,0l-6.09-6.09a15,15,0,0,1,0-21.19l19-19,21.21-21.26L349,288.56l18.9-18.95,0,0a15,15,0,0,1,21.21,0l6.08,6.1A15,15,0,0,1,395.2,296.9Z"/><path fill="#f69531" d="M395.2,275.71l-6.08-6.1A15,15,0,0,0,371,267.23a15.36,15.36,0,0,1,3.12,2.38l6.08,6.1a15,15,0,0,1,0,21.19l-15.34,15.38-24.56,24.6-.41.42-40,40.1,0,0a15.08,15.08,0,0,1-3.09,2.36,15,15,0,0,0,18.09-2.36l0,0,40-40.1.41-.42,24.56-24.6L395.2,296.9A15,15,0,0,0,395.2,275.71Z"/><path fill="#f9a242" d="M451.6,481.81,499.32,434a17.74,17.74,0,0,0,0-25.06h0a17.64,17.64,0,0,0-24.95-.05l-.05.05L426.6,456.76a17.74,17.74,0,0,0,0,25.05h0a17.64,17.64,0,0,0,25,0Z"/><path fill="#f69531" d="M499.32,408.92a17.64,17.64,0,0,0-20-3.5,17.47,17.47,0,0,1,5,3.5,17.74,17.74,0,0,1,0,25.06L436.6,481.81l0,0a17.49,17.49,0,0,1-5,3.46,17.64,17.64,0,0,0,20-3.46l0,0L499.32,434A17.74,17.74,0,0,0,499.32,408.92Z"/><polygon fill="#8b8893" points="274.58 204.31 248.51 230.43 222.48 256.52 197.58 234.43 223.37 205.23 249.38 175.78 274.58 204.31"/><polygon fill="#aeadb3" points="248.51 230.43 222.48 256.52 197.58 234.43 223.37 205.23 248.51 230.43"/><polygon fill="#aeadb3" points="314.42 249.43 289.52 271.52 264.45 293.76 238.36 270.61 263.48 245.43 288.63 220.22 314.42 249.43"/><polygon fill="#8b8893" points="263.48 245.43 288.63 220.22 314.42 249.43 289.52 271.52 263.48 245.43"/><path fill="#e1e1e3" d="M163.4,287.55l21.23,21.28,38.23-38.32,26-26.09,15-15L289,204.22,413.93,79l-9.62-55a15,15,0,0,0-12.6,5L263,174.77,237.8,203.3l-14.05,15.91L198,248.42Z"/><path fill="#c8c5cc" d="M184.63,308.83l21.21,21.26,42.09-37.34L274,269.6l15.88-14.09,24.9-22.09,149-132.17a15,15,0,0,0,5-12.58L413.93,79,289,204.22l-25.14,25.2-15,15-26,26.09Z"/><path fill="#aeadb3" d="M404.31,24.05l9.62,55,54.84,9.66-4.25-46.8A15,15,0,0,0,451,28.3Z"/><polygon fill="#a17855" points="86.76 456.73 37.08 406.92 132.54 311.26 182.22 361.08 86.76 456.73"/><path fill="#896848" d="M132.54,311.26,125,318.78,153.13,347a20,20,0,0,1,0,28.25l-73.86,74,7.5,7.51,95.46-95.65Z"/><path fill="#f9a242" d="M117.18,295.89l15.34,15.38,24.56,24.6.41.42,40,40.1,0,0a15,15,0,0,0,21.21,0l6.09-6.09a15,15,0,0,0,0-21.19l-19-19-21.21-21.26L163.4,287.55,144.5,268.6l0,0a15,15,0,0,0-21.22,0l-6.08,6.1A15,15,0,0,0,117.18,295.89Z"/><path fill="#f69531" d="M224.82,349.11l-19-19-21.2-21.26-21.23-21.28L144.5,268.6l0,0a15,15,0,0,0-18.1-2.36,15.14,15.14,0,0,1,3.1,2.36l0,0,18.91,18.95,21.23,21.28,21.2,21.26,19,19a15,15,0,0,1,0,21.19l-6.09,6.09a15.3,15.3,0,0,1-3.11,2.38,15,15,0,0,0,18.11-2.38l6.09-6.09A15,15,0,0,0,224.82,349.11Z"/><path fill="#f9a242" d="M60.79,480.8,13.07,433a17.74,17.74,0,0,1,0-25.06h0A17.64,17.64,0,0,1,38,407.86l.06.05,47.72,47.84a17.74,17.74,0,0,1,0,25.05h0a17.64,17.64,0,0,1-25,0Z"/><path fill="#f69531" d="M85.79,455.75,38.07,407.91l-.06-.05a17.62,17.62,0,0,0-19.94-3.45A17.71,17.71,0,0,1,23,407.86l.06.05,47.72,47.84a17.69,17.69,0,0,1-5,28.55,17.69,17.69,0,0,0,20-28.55Z"/></svg>