<?xml version="1.0" encoding="UTF-8" standalone="no"?>
<svg
   xmlns:dc="http://purl.org/dc/elements/1.1/"
   xmlns:cc="http://creativecommons.org/ns#"
   xmlns:rdf="http://www.w3.org/1999/02/22-rdf-syntax-ns#"
   xmlns:svg="http://www.w3.org/2000/svg"
   xmlns="http://www.w3.org/2000/svg"
   xmlns:sodipodi="http://sodipodi.sourceforge.net/DTD/sodipodi-0.dtd"
   xmlns:inkscape="http://www.inkscape.org/namespaces/inkscape"
   sodipodi:docname="team.svg"
   inkscape:version="1.0 (4035a4fb49, 2020-05-01)"
   id="svg52"
   version="1.1"
   viewBox="0 0 23.712477 12.78182"
   height="12.78182mm"
   width="23.712477mm">
  <defs
     id="defs46" />
  <sodipodi:namedview
     inkscape:window-maximized="0"
     inkscape:window-y="33"
     inkscape:window-x="680"
     inkscape:window-height="1030"
     inkscape:window-width="1339"
     showgrid="false"
     inkscape:document-rotation="0"
     inkscape:current-layer="layer1"
     inkscape:document-units="mm"
     inkscape:cy="26.530713"
     inkscape:cx="81.982135"
     inkscape:zoom="5.6"
     inkscape:pageshadow="2"
     inkscape:pageopacity="0.0"
     borderopacity="1.0"
     bordercolor="#666666"
     pagecolor="#ffffff"
     id="base" />
  <metadata
     id="metadata49">
    <rdf:RDF>
      <cc:Work
         rdf:about="">
        <dc:format>image/svg+xml</dc:format>
        <dc:type
           rdf:resource="http://purl.org/dc/dcmitype/StillImage" />
        <dc:title></dc:title>
      </cc:Work>
    </rdf:RDF>
  </metadata>
  <g
     transform="translate(-114.60229,-160.98582)"
     id="layer1"
     inkscape:groupmode="layer"
     inkscape:label="Capa 1">
    <g
       transform="matrix(0.26458333,0,0,0.26458333,120.15854,160.98582)"
       id="g102">
      <path
         fill="#333333"
         d="m 12,2 c 3.5,0 6,2 6,2 L 19.5,0 C 19.833,3.665 20,7.82 20,11.5 V 15 c 0,2.94 0,6 1,9 H 3 C 4,21 4,17.94 4,15 V 11.5 C 4,7.82 4.167,3.665 4.5,0 L 6,4 C 6,4 8.5,2 12,2 Z"
         id="path54" />
      <path
         opacity="0.2"
         fill="#010101"
         d="M 3.073,23.75 C 3.047,23.833 3.028,23.917 3,24 h 18 c -0.028,-0.083 -0.047,-0.167 -0.073,-0.25 z"
         id="path56" />
      <path
         opacity="0.2"
         fill="#ffffff"
         d="m 6,4.25 c 0,0 2.5,-2 6,-2 3.5,0 6,2 6,2 l 1.5,-4 C 19.833,3.915 20,8.07 20,11.75 V 11.5 C 20,7.82 19.833,3.665 19.5,0 L 18,4 C 18,4 15.5,2 12,2 8.5,2 6,4 6,4 L 4.5,0 C 4.167,3.665 4,7.82 4,11.5 v 0.25 C 4,8.07 4.167,3.915 4.5,0.25 Z"
         id="path58" />
      <path
         fill="#f3f3f3"
         d="M 16.817,10.113 A 0.503,0.503 0 0 0 16.402,10.01 l -2.5,0.5 A 0.5,0.5 0 0 0 13.5,11 c 0,0.598 0.703,1 1.75,1 1.047,0 1.75,-0.402 1.75,-1 v -0.5 a 0.502,0.502 0 0 0 -0.183,-0.387 z"
         id="path60" />
      <path
         fill="#f3f3f3"
         d="m 10.098,10.51 -2.5,-0.5 A 0.502,0.502 0 0 0 7,10.5 V 11 c 0,0.598 0.703,1 1.75,1 1.047,0 1.75,-0.402 1.75,-1 a 0.5,0.5 0 0 0 -0.402,-0.49 z"
         id="path62" />
      <path
         fill="#fcd3c0"
         d="M 7,15.875 C 7,17 8.154,20 12,20 c 3.846,0 5,-3 5,-4.125 V 14 L 13.364,14.375 12,15.5 10.636,14.375 7,14 Z"
         id="path64" />
      <path
         opacity="0.1"
         fill="#010101"
         d="M 16.817,10.113 A 0.503,0.503 0 0 0 16.402,10.01 l -2.5,0.5 A 0.5,0.5 0 0 0 13.5,11 c 0,0.047 0.012,0.09 0.02,0.135 a 0.495,0.495 0 0 1 0.382,-0.375 l 2.5,-0.5 A 0.502,0.502 0 0 1 17,10.75 V 10.5 a 0.502,0.502 0 0 0 -0.183,-0.387 z"
         id="path66" />
      <path
         opacity="0.1"
         fill="#010101"
         d="m 7.598,10.26 2.5,0.5 c 0.194,0.039 0.337,0.189 0.382,0.375 C 10.488,11.09 10.5,11.047 10.5,11 a 0.5,0.5 0 0 0 -0.402,-0.49 l -2.5,-0.5 A 0.502,0.502 0 0 0 7,10.5 v 0.25 a 0.502,0.502 0 0 1 0.598,-0.49 z"
         id="path68" />
      <path
         opacity="0.1"
         fill="#010101"
         d="M 13.364,14.375 12,15.5 10.636,14.375 7,14 v 0.25 L 10.636,14.625 12,15.75 13.364,14.625 17,14.25 V 14 Z"
         id="path70" />
      <path
         fill="#d8a580"
         d="m 13,18 h -2 a 0.5,0.5 0 1 1 0,-1 h 2 a 0.5,0.5 0 1 1 0,1 z"
         id="path72" />
      <path
         opacity="0.1"
         fill="#010101"
         d="M 10.5,17.5 A 0.5,0.5 0 0 1 11,17 h 2 a 0.5,0.5 0 0 1 0.5,0.5 z"
         id="path74" />
      <path
         fill="url(#SVGID_1_)"
         d="m 12,2 c 3.5,0 6,2 6,2 L 19.5,0 C 19.833,3.665 20,7.82 20,11.5 V 15 c 0,2.94 0,6 1,9 H 3 C 4,21 4,17.94 4,15 V 11.5 C 4,7.82 4.167,3.665 4.5,0 L 6,4 C 6,4 8.5,2 12,2 Z"
         id="path81" />
    </g>
    <g
       transform="matrix(0.26458333,0,0,0.26458333,124.42951,167.41764)"
       id="g166">
      <path
         id="XMLID_1401_"
         fill="#e6e6e5"
         d="M 21.497,13.023 C 21.461,10.153 21.107,8.773 21,8.421 20.986,6.155 20.406,4.075 19.403,2.705 18.043,0.846 14.613,0 12,0 9.387,0 5.957,0.846 4.597,2.705 3.594,4.075 3.014,6.155 3,8.42 2.894,8.772 2.54,10.152 2.503,13.022 0.926,13.177 0,14.078 0,15.5 0,17.391 1.9,19.338 3.014,19.863 3.134,21.473 4.068,24 7,24 9.117,24 10.294,23.331 11.073,22.888 11.455,22.671 11.756,22.5 12,22.5 c 0.244,0 0.545,0.171 0.927,0.388 C 13.707,23.331 14.883,24 17,24 19.932,24 20.865,21.472 20.986,19.863 22.1,19.338 24,17.39 24,15.5 24,14.078 23.074,13.177 21.497,13.023 Z" />
      <path
         id="XMLID_1387_"
         fill="url(#XMLID_9_)"
         fill-opacity="0.51"
         d="m 6.5,17.25 c 1.562,0 2.656,-2.5 5.5,-2.5 2.844,0 3.937,2.5 5.5,2.5 1.649,0 3.392,1.196 3.471,2.755 0.005,-0.047 0.012,-0.096 0.015,-0.142 C 20.986,18.25 19.187,17 17.5,17 15.937,17 14.844,14.5 12,14.5 9.156,14.5 8.062,17 6.5,17 4.812,17 3.014,18.25 3.014,19.863 3.017,19.909 3.024,19.958 3.029,20.005 3.109,18.446 4.851,17.25 6.5,17.25 Z" />
      <path
         opacity="0.16"
         fill="#303c42"
         d="m 20.986,19.613 c -0.12,1.61 -1.054,4.137 -3.986,4.137 -2.117,0 -3.294,-0.669 -4.073,-1.112 C 12.545,22.421 12.244,22.25 12,22.25 c -0.244,0 -0.545,0.171 -0.927,0.388 C 10.293,23.081 9.117,23.75 7,23.75 4.068,23.75 3.135,21.222 3.014,19.613 1.92,19.098 0.08,17.212 0.012,15.354 0.01,15.404 0,15.449 0,15.5 0,17.391 1.9,19.338 3.014,19.863 3.134,21.473 4.068,24 7,24 9.117,24 10.294,23.331 11.073,22.888 11.455,22.671 11.756,22.5 12,22.5 c 0.244,0 0.545,0.171 0.927,0.388 C 13.707,23.331 14.883,24 17,24 19.932,24 20.865,21.472 20.986,19.863 22.1,19.338 24,17.39 24,15.5 c 0,-0.051 -0.01,-0.096 -0.012,-0.146 -0.068,1.858 -1.909,3.744 -3.002,4.259 z"
         id="XMLID_1384_" />
      <path
         id="XMLID_1383_"
         fill="#f2f1f1"
         d="M 21,8.421 C 20.986,6.155 20.406,4.075 19.403,2.705 18.043,0.846 14.613,0 12,0 9.387,0 5.957,0.846 4.597,2.705 3.594,4.075 3.014,6.155 3,8.42 V 8.67 C 3.014,6.404 3.594,4.324 4.597,2.954 5.957,1.096 9.387,0.25 12,0.25 c 2.613,0 6.043,0.846 7.403,2.705 1.003,1.37 1.583,3.45 1.597,5.716 z" />
      <path
         id="XMLID_1382_"
         fill="#37474f"
         d="M 17.5,17 C 15.937,17 14.844,13.5 12,13.5 9.156,13.5 8.062,17 6.5,17 c 1.562,0 2.656,-2.5 5.5,-2.5 2.844,0 3.937,2.5 5.5,2.5 z" />
      <path
         id="XMLID_1380_"
         fill="#37474f"
         d="M 10.506,9 C 10.356,8.998 6.81,8.964 5.321,9.533 A 0.5,0.5 0 0 0 5,10.017 c 0.001,0.034 0.13,3.483 1.5,3.483 4.237,0 4.497,-3.934 4.499,-3.973 A 0.498,0.498 0 0 0 10.506,9 Z" />
      <path
         id="XMLID_1379_"
         fill="#37474f"
         d="M 18.679,9.533 C 17.189,8.963 13.641,8.999 13.494,9 a 0.501,0.501 0 0 0 -0.493,0.527 c 0.002,0.04 0.262,3.973 4.499,3.973 1.37,0 1.499,-3.449 1.5,-3.483 A 0.5,0.5 0 0 0 18.679,9.533 Z" />
      <path
         opacity="0.1"
         fill="#010101"
         d="M 5.321,9.783 C 6.81,9.213 10.356,9.248 10.506,9.25 a 0.501,0.501 0 0 1 0.36,0.158 0.491,0.491 0 0 1 0.117,0.263 c 0.011,-0.084 0.016,-0.14 0.016,-0.144 A 0.498,0.498 0 0 0 10.506,9 C 10.356,8.998 6.81,8.964 5.321,9.533 A 0.5,0.5 0 0 0 5,10.017 l 0.012,0.207 a 0.494,0.494 0 0 1 0.31,-0.441 z"
         id="path116" />
      <path
         opacity="0.1"
         fill="#010101"
         d="m 13.135,9.408 a 0.501,0.501 0 0 1 0.36,-0.158 c 0.146,-10e-4 3.694,-0.036 5.184,0.533 0.184,0.07 0.297,0.246 0.309,0.44 L 19,10.017 A 0.5,0.5 0 0 0 18.679,9.533 C 17.189,8.963 13.641,8.999 13.494,9 a 0.501,0.501 0 0 0 -0.493,0.527 c 0,0.004 0.005,0.06 0.016,0.144 a 0.491,0.491 0 0 1 0.118,-0.263 z"
         id="path118" />
      <path
         id="XMLID_1372_"
         fill="#37474f"
         d="M 8.554,20.003 C 8.058,19.95 7.484,19.787 7.374,19.668 L 7.284,19.56 C 7.03,19.243 6.775,19 6,19 c -0.607,0 -1,0.393 -1,1 0,1.805 1.398,2 2,2 1.582,0 2,-0.981 2,-1.5 A 0.5,0.5 0 0 0 8.554,20.003 Z" />
      <path
         id="XMLID_1369_"
         fill="#37474f"
         d="m 18,19 c -0.775,0 -1.03,0.243 -1.284,0.56 l -0.09,0.108 c -0.11,0.118 -0.683,0.28 -1.18,0.335 A 0.5,0.5 0 0 0 15,20.5 c 0,0.519 0.418,1.5 2,1.5 0.602,0 2,-0.195 2,-2 0,-0.607 -0.393,-1 -1,-1 z" />
      <path
         fill="#37474f"
         d="m 11.5,17.5 h 1 v 3 h -1 z"
         id="path122" />
      <path
         fill="#37474f"
         d="m 13,18.5 h 1 v 2 h -1 z"
         id="path124" />
      <path
         fill="#37474f"
         d="m 10,18.5 h 1 v 2 h -1 z"
         id="path126" />
      <path
         id="XMLID_1354_"
         fill="#37474f"
         d="M 21.195,9.28 A 7.758,7.758 0 0 0 21,8.422 13.088,13.088 0 0 0 20.916,7.06 C 18.223,6.277 15.89,6 12,6 8.11,6 5.777,6.277 3.084,7.059 3.035,7.503 3.003,7.957 3,8.421 2.96,8.554 2.885,8.832 2.805,9.281 5.243,8.64 8.752,8 12,8 c 3.248,0 6.757,0.641 9.195,1.28 z" />
      <path
         id="XMLID_1350_"
         fill="#ffffff"
         fill-opacity="0.24"
         d="M 3.084,7.309 C 5.777,6.527 8.11,6.25 12,6.25 c 3.89,0 6.223,0.277 8.916,1.059 0.049,0.444 0.049,0.194 0,-0.25 C 18.223,6.277 15.89,6 12,6 8.11,6 5.777,6.277 3.084,7.059 c -0.049,0.444 -0.049,0.694 0,0.25 z" />
      <path
         opacity="0.16"
         fill="#303c42"
         d="M 12,7.75 C 8.773,7.75 5.291,8.383 2.855,9.018 2.839,9.099 2.822,9.184 2.805,9.281 5.243,8.64 8.752,8 12,8 c 3.248,0 6.757,0.641 9.195,1.28 A 11.043,11.043 0 0 0 21.145,9.018 C 18.709,8.383 15.227,7.75 12,7.75 Z"
         id="XMLID_1347_" />
      <path
         id="XMLID_1340_"
         fill="#ffffff"
         fill-opacity="0.24"
         d="M 2.503,13.023 C 0.926,13.177 0,14.078 0,15.5 c 0,0.035 0.011,0.07 0.012,0.104 0.064,-1.335 0.97,-2.183 2.49,-2.33 C 4.033,13.273 6,17 6,17 6,17 4.625,13.023 2.503,13.023 Z" />
      <path
         opacity="0.16"
         fill="#303c42"
         d="M 21.497,13.023 C 23.074,13.177 24,14.078 24,15.5 c 0,0.035 -0.011,0.07 -0.012,0.104 -0.064,-1.335 -0.97,-2.183 -2.49,-2.33 C 19.967,13.273 18,17 18,17 c 0,0 1.375,-3.977 3.497,-3.977 z"
         id="XMLID_1336_" />
      <path
         id="XMLID_1349_"
         fill="url(#XMLID_10_)"
         d="M 21.497,13.023 C 21.461,10.153 21.107,8.773 21,8.421 20.986,6.155 20.406,4.075 19.403,2.705 18.043,0.846 14.613,0 12,0 9.387,0 5.957,0.846 4.597,2.705 3.594,4.075 3.014,6.155 3,8.42 2.894,8.772 2.54,10.152 2.503,13.022 0.926,13.177 0,14.078 0,15.5 0,17.391 1.9,19.338 3.014,19.863 3.134,21.473 4.068,24 7,24 9.117,24 10.294,23.331 11.073,22.888 11.455,22.671 11.756,22.5 12,22.5 c 0.244,0 0.545,0.171 0.927,0.388 C 13.707,23.331 14.883,24 17,24 19.932,24 20.865,21.472 20.986,19.863 22.1,19.338 24,17.39 24,15.5 24,14.078 23.074,13.177 21.497,13.023 Z" />
    </g>
    <g
       transform="matrix(0.26458333,0,0,0.26458333,128.66845,160.99358)"
       id="g221">
      <path
         fill="#c6ccd0"
         d="M 21,8.83 C 21,5 17.795,1.5 12,1.5 v 21.064 c 0.365,0.163 1.042,0.436 1.5,0.436 0.771,0 3,-1.152 3,-2.932 0,-0.588 0.098,-1.954 1,-1.954 2.066,0 2.5,-1.329 2.5,-2.444 0,-1 -0.214,-1.611 -0.4,-1.953 C 20.032,13.043 21,11.259 21,8.83 Z"
         id="path168" />
      <path
         opacity="0.2"
         fill="#ffffff"
         d="M 20.994,8.96 C 20.994,8.915 21,8.875 21,8.83 21,5 17.795,1.5 12,1.5 v 0.25 c 5.734,0 8.927,3.428 8.994,7.21 z"
         id="path170" />
      <path
         fill="#5d4b3f"
         d="M 13.416,4.277 A 0.5,0.5 0 0 0 13.5,4 C 13.5,1.756 12.354,1.118 12.224,1.053 A 0.508,0.508 0 0 0 12,1 C 9.285,1 4,2.588 4,5.5 v 7 c 0,0.202 1.05,3.387 1.146,3.292 C 5.263,15.674 6.625,14.672 6.625,13.5 6.625,12.312 10.38,9 12,9 A 0.5,0.5 0 0 0 12.354,8.854 C 12.698,8.509 13.5,7.639 13.5,7 13.5,6.504 13.015,5.866 12.637,5.445 Z"
         id="path172" />
      <path
         opacity="0.2"
         fill="#ffffff"
         d="m 12.351,1.25 c 0.07,0 0.136,0.02 0.2,0.045 A 1.715,1.715 0 0 0 12.224,1.053 0.508,0.508 0 0 0 12,1 C 9.552,1 5.025,2.295 4.158,4.685 5.298,2.454 9.852,1.25 12.351,1.25 Z"
         id="path174" />
      <path
         fill="#e53a35"
         d="m 16.99,11.5 0.5,1.5 c 0,0 0.23,0.5 -1.5,0.5 -2.5,0 -2.5,-1.263 -2.5,-1.263 z"
         id="path176" />
      <path
         opacity="0.1"
         fill="#010101"
         d="m 14.313,18 c 0,0.501 -0.005,0.75 -0.313,0.874 V 18.5 h -1 v 0.49 c -0.148,0.004 -0.315,0.007 -0.5,0.008 V 18.5 H 12 v 2 h 0.5 v -0.503 c 0.175,0 0.342,-0.005 0.5,-0.01 V 20.5 h 1 v -0.603 c 0.873,-0.174 1.313,-0.64 1.313,-1.897 0,-0.94 0.99,-0.998 1.187,-1 v -1 c -0.879,0 -2.188,0.532 -2.188,2 z"
         id="path178" />
      <path
         fill="#fcd3c0"
         d="M 8.784,7.362 C 8.263,6.827 7.923,6.5 7.5,6.5 c -0.918,0 -1.387,2.818 -1.5,4 -0.11,1.159 -0.48,4.438 -0.48,4.438 0,0 -0.27,-0.918 -0.666,-2.084 C 4.458,11.687 4.09,12.15 4.09,12.15 3.118,12.716 3,13.751 3,14.5 c 0,0.958 0.889,3.104 2.15,3.452 l 0.038,0.094 c 0.516,1.275 1.888,4.665 6.283,4.927 H 11.5 a 0.503,0.503 0 0 0 0.5,-0.5 V 9 C 10.38,9 9.495,8.092 8.784,7.362 Z"
         id="path180" />
      <path
         opacity="0.1"
         fill="#010101"
         d="m 17.5,17.864 c -0.902,0 -1,1.366 -1,1.954 0,1.78 -2.229,2.932 -3,2.932 -0.458,0 -1.135,-0.273 -1.5,-0.436 v 0.25 c 0.365,0.163 1.042,0.436 1.5,0.436 0.771,0 3,-1.152 3,-2.932 0,-0.588 0.098,-1.954 1,-1.954 2.066,0 2.5,-1.329 2.5,-2.444 0,-0.046 -0.006,-0.08 -0.007,-0.124 -0.032,1.086 -0.503,2.318 -2.493,2.318 z"
         id="path182" />
      <path
         opacity="0.1"
         fill="#010101"
         d="M 11.5,22.724 11.47,22.723 C 7.076,22.461 5.704,19.071 5.188,17.796 A 10.047,10.047 0 0 1 5.15,17.702 C 3.907,17.359 3.03,15.276 3.005,14.298 3.003,14.366 3,14.435 3,14.5 c 0,0.958 0.889,3.104 2.15,3.452 l 0.038,0.094 c 0.516,1.275 1.888,4.665 6.283,4.927 H 11.5 a 0.503,0.503 0 0 0 0.5,-0.5 v -0.25 a 0.5,0.5 0 0 1 -0.5,0.5 z"
         id="path184" />
      <path
         opacity="0.1"
         fill="#010101"
         d="m 12,14.5 v 2 h 1 z"
         id="path186" />
      <path
         opacity="0.1"
         fill="#010101"
         d="M 17.068,11.734 16.99,11.5 l -3.5,0.737 c 0,0 0.002,0.099 0.055,0.239 z"
         id="path188" />
      <path
         fill="#333333"
         d="M 8.5,14 A 1.0005001,1.0005001 0 1 1 8.501,11.999 1.0005001,1.0005001 0 0 1 8.5,14 Z"
         id="XMLID_1421_" />
      <path
         fill="#5d4b3f"
         d="m 9.5,13 h -2 a 0.5,0.5 0 1 1 0,-1 h 2 a 0.5,0.5 0 1 1 0,1 z"
         id="path191" />
      <path
         fill="url(#SVGID_1_)"
         d="M 21,8.83 C 21,5.174 18.074,1.827 12.77,1.53 12.515,1.22 12.279,1.08 12.224,1.053 A 0.508,0.508 0 0 0 12,1 C 9.285,1 4,2.588 4,5.5 v 6.715 c -0.882,0.576 -1,1.562 -1,2.285 0,0.958 0.889,3.104 2.15,3.452 l 0.038,0.094 c 0.516,1.275 1.888,4.665 6.283,4.927 H 11.5 a 0.503,0.503 0 0 0 0.5,-0.5 v 0.09 c 0.365,0.164 1.042,0.437 1.5,0.437 0.771,0 3,-1.152 3,-2.932 0,-0.588 0.098,-1.954 1,-1.954 2.066,0 2.5,-1.329 2.5,-2.444 0,-1 -0.214,-1.611 -0.4,-1.953 C 20.032,13.043 21,11.259 21,8.83 Z"
         id="path198" />
    </g>
    <g
       transform="matrix(0.26458333,0,0,0.26458333,132.75852,167.38781)"
       id="g265">
      <path
         fill="#ee3325"
         d="M 18.94,1.763 A 0.5,0.5 0 0 0 18.745,1.564 C 18.63,1.5 15.915,0 12,0 8.085,0 5.37,1.5 5.255,1.564 A 0.5,0.5 0 0 0 5.06,1.764 C 4.976,1.918 3,5.625 3,8.5 V 12 c 0,1.11 1.037,5.226 2.6,7.3 2.352,3.12 4.505,4.7 6.4,4.7 1.895,0 4.049,-1.581 6.4,-4.7 C 19.963,17.226 21,13.11 21,12 V 8.5 C 21,5.626 19.024,1.92 18.94,1.763 Z"
         id="path223" />
      <path
         opacity="0.2"
         fill="#ffffff"
         d="M 18.94,1.763 A 0.5,0.5 0 0 0 18.745,1.564 C 18.63,1.5 15.915,0 12,0 8.085,0 5.37,1.5 5.255,1.564 A 0.5,0.5 0 0 0 5.06,1.764 C 4.976,1.918 3,5.625 3,8.5 V 8.75 C 3,5.876 4.976,2.17 5.06,2.013 A 0.5,0.5 0 0 1 5.255,1.814 C 5.37,1.75 8.085,0.25 12,0.25 c 3.915,0 6.63,1.5 6.745,1.564 a 0.5,0.5 0 0 1 0.195,0.2 C 19.024,2.168 21,5.875 21,8.75 V 8.5 C 21,5.626 19.024,1.92 18.94,1.763 Z"
         id="path225" />
      <path
         opacity="0.1"
         fill="#010101"
         d="m 12,23.75 c -1.896,0 -4.049,-1.581 -6.4,-4.7 C 4.037,16.976 3,12.86 3,11.75 V 12 c 0,1.11 1.037,5.226 2.6,7.3 2.352,3.12 4.505,4.7 6.4,4.7 1.895,0 4.049,-1.581 6.4,-4.7 C 19.963,17.226 21,13.11 21,12 v -0.25 c 0,1.11 -1.037,5.226 -2.6,7.3 -2.351,3.119 -4.504,4.7 -6.4,4.7 z"
         id="path227" />
      <path
         opacity="0.1"
         fill="#010101"
         d="m 3,12 c 0,1.11 1.037,5.226 2.6,7.3 0.24,0.318 0.476,0.609 0.71,0.894 L 7.317,17.177 6.131,4.893 5.06,1.763 C 4.976,1.92 3,5.626 3,8.5 Z"
         id="path229" />
      <path
         opacity="0.1"
         fill="#010101"
         d="m 21,12 c 0,1.11 -1.037,5.226 -2.6,7.3 -0.24,0.318 -0.476,0.609 -0.71,0.894 L 16.683,17.177 17.869,4.893 18.94,1.763 C 19.024,1.92 21,5.626 21,8.5 Z"
         id="path231" />
      <path
         fill="#010101"
         d="m 17.986,5.384 -0.117,-0.49 -0.49,0.12 C 16.714,5.18 14.507,5.795 14.046,6.79 13.593,7.767 13,11.575 13,12.5 c 0,1.26 1.14,3.243 3.254,4.436 l 0.429,0.241 0.52,-0.883 C 18.086,14.81 19,13.272 19,11.5 19,9.65 18.028,5.557 17.986,5.384 Z"
         id="path233" />
      <path
         fill="#ffffff"
         d="m 13.5,12.5 c 0,0 1.395,1 2.5,1 1.105,0 1.5,-1.406 1.5,-1.406 0,0 -0.6,-0.582 -1.705,-0.582 -1.105,0 -2.295,0.988 -2.295,0.988 z"
         id="path235" />
      <path
         fill="#010101"
         d="m 6.014,5.384 0.117,-0.49 0.49,0.12 C 7.286,5.18 9.493,5.795 9.954,6.79 10.407,7.767 11,11.575 11,12.5 11,13.76 9.86,15.743 7.746,16.936 L 7.317,17.177 6.797,16.294 C 5.914,14.81 5,13.272 5,11.5 5,9.65 5.972,5.557 6.014,5.384 Z"
         id="path237" />
      <path
         fill="#ffffff"
         d="m 10.5,12.5 c 0,0 -1.395,1 -2.5,1 -1.105,0 -1.5,-1.406 -1.5,-1.406 0,0 0.6,-0.582 1.705,-0.582 1.105,0 2.295,0.988 2.295,0.988 z"
         id="path239" />
      <path
         fill="url(#SVGID_1_)"
         d="M 18.94,1.763 A 0.5,0.5 0 0 0 18.745,1.564 C 18.63,1.5 15.915,0 12,0 8.085,0 5.37,1.5 5.255,1.564 A 0.5,0.5 0 0 0 5.06,1.764 C 4.976,1.918 3,5.625 3,8.5 V 12 c 0,1.11 1.037,5.226 2.6,7.3 2.352,3.12 4.505,4.7 6.4,4.7 1.895,0 4.049,-1.581 6.4,-4.7 C 19.963,17.226 21,13.11 21,12 V 8.5 C 21,5.626 19.024,1.92 18.94,1.763 Z"
         id="path246" />
    </g>
    <g
       transform="matrix(0.26458333,0,0,0.26458333,114.33771,167.33582)"
       id="g329">
      <path
         fill="#f7c214"
         d="M 12,1 C 8.318,1 4.248,2.9 4.012,7.07 a 0.5,0.5 0 0 0 0.07,0.284 L 10,16.5 c 0.09,0.151 1.5,2 1.5,2 h 1 c 0,0 0.91,-1.849 1,-2 L 19.918,7.354 A 0.5,0.5 0 0 0 19.988,7.07 C 19.752,2.9 15.682,1 12,1 Z"
         id="path267" />
      <path
         opacity="0.2"
         fill="#ffffff"
         d="m 12,1.25 c 3.63,0 7.63,1.851 7.968,5.901 0.003,-0.028 0.021,-0.052 0.02,-0.08 C 19.752,2.898 15.682,1 12,1 8.318,1 4.248,2.9 4.012,7.07 4.011,7.099 4.029,7.123 4.032,7.151 4.37,3.101 8.369,1.25 12,1.25 Z"
         id="path269" />
      <path
         fill="#fcd3c0"
         d="m 12.5,18.5 h -1 c 0,0 -2.031,-1.5 -5,-1.5 0.378,0.757 0.613,1.8 0.76,2.804 0.126,0.872 0.186,1.71 0.214,2.31 C 8.24,23.097 9.505,24 12,24 c 2.495,0 3.76,-0.903 4.526,-1.886 0.028,-0.6 0.088,-1.438 0.215,-2.31 0.146,-1.004 0.38,-2.047 0.759,-2.804 -2.969,0 -5,1.5 -5,1.5 z"
         id="path271" />
      <path
         fill="url(#SVGID_1_)"
         d="m 12.5,18.5 h -1 c 0,0 -2.031,-1.5 -5,-1.5 0.378,0.757 0.613,1.8 0.76,2.804 0.126,0.872 0.186,1.71 0.214,2.31 C 8.24,23.097 9.505,24 12,24 c 2.495,0 3.76,-0.903 4.526,-1.886 0.028,-0.6 0.088,-1.438 0.215,-2.31 0.146,-1.004 0.38,-2.047 0.759,-2.804 -2.969,0 -5,1.5 -5,1.5 z"
         id="path278" />
      <path
         opacity="0.1"
         fill="#010101"
         d="m 12,23.75 c -2.461,0 -3.745,-0.845 -4.534,-1.789 l 0.008,0.153 C 8.24,23.097 9.505,24 12,24 c 2.495,0 3.76,-0.903 4.526,-1.886 l 0.008,-0.153 C 15.744,22.905 14.461,23.75 12,23.75 Z"
         id="path280" />
      <path
         opacity="0.1"
         fill="#010101"
         d="m 19.93,7.104 -6.42,9.146 c -0.09,0.151 -1,2 -1,2 h -1 c 0,0 -1.41,-1.849 -1.5,-2 L 4.093,7.104 C 4.057,7.043 4.051,6.971 4.043,6.901 4.039,6.959 4.027,7.012 4.023,7.071 a 0.5,0.5 0 0 0 0.07,0.283 L 10.01,16.5 c 0.09,0.151 1.5,2 1.5,2 h 1 c 0,0 0.91,-1.849 1,-2 L 19.929,7.354 A 0.5,0.5 0 0 0 20,7.07 C 19.996,7.012 19.984,6.959 19.98,6.901 19.972,6.971 19.966,7.043 19.93,7.104 Z"
         id="path282" />
      <path
         fill="#303c42"
         d="m 17.5,17 c -2.969,0 -5,1.5 -5,1.5 0,0 0.031,-2.563 0.5,-3.5 v -2 c 0,0 6.708,-3.375 10,-13 v 8 c 0,2.333 -4,7.333 -4,12 l -2.5,3 c 0,0 0,-4 1,-6 z"
         id="path284" />
      <path
         fill="#303c42"
         d="m 6.5,17 c 2.969,0 5,1.5 5,1.5 0,0 -0.031,-2.563 -0.5,-3.5 V 13 C 11,13 4.292,9.625 1,0 v 8 c 0,2.333 4,7.333 4,12 l 2.5,3 c 0,0 0,-4 -1,-6 z"
         id="path286" />
      <path
         opacity="0.1"
         fill="#010101"
         d="m 17.614,16.743 c -2.943,0 -5.073,1.477 -5.108,1.503 C 12.501,18.404 12.5,18.5 12.5,18.5 c 0,0 2.108,-1.531 5,-1.5 0.037,-0.087 0.073,-0.176 0.114,-0.257 z"
         id="path288" />
      <path
         opacity="0.1"
         fill="#010101"
         d="M 16.504,22.746 C 16.5,22.903 16.5,23 16.5,23 L 19,20 c 0,-4.667 4,-9.667 4,-12 V 7.75 c 0,2.333 -4,7.333 -4,12 z"
         id="path290" />
      <path
         fill="#ffffff"
         d="m 6.55,14.014 c 0.19,0.34 1.15,0.985 1.966,0.985 H 8.781 C 9.047,15 9.343,15.002 9.501,14.982 9.336,14.675 8.351,13.999 7.516,13.999 H 7.25 a 7.309,7.309 0 0 0 -0.7,0.015 z"
         id="path292" />
      <path
         fill="#ffffff"
         d="m 14.531,14.982 c 0.158,0.02 0.451,0.018 0.72,0.017 h 0.265 c 0.836,0 1.82,-0.676 1.984,-0.983 a 6.652,6.652 0 0 0 -0.719,-0.017 h -0.265 c -0.836,0 -1.82,0.676 -1.985,0.983 z"
         id="path294" />
      <path
         opacity="0.1"
         fill="#010101"
         d="m 6.386,16.743 c 2.943,0 5.073,1.477 5.108,1.503 0.005,0.158 0.006,0.254 0.006,0.254 0,0 -2.108,-1.531 -5,-1.5 C 6.463,16.913 6.427,16.824 6.386,16.743 Z"
         id="path296" />
      <path
         opacity="0.1"
         fill="#010101"
         d="M 7.496,22.746 C 7.5,22.903 7.5,23 7.5,23 L 5,20 C 5,15.333 1,10.333 1,8 V 7.75 c 0,2.333 4,7.333 4,12 z"
         id="path298" />
      <path
         fill="url(#SVGID_2_)"
         d="M 19.898,6.308 C 19.24,2.668 15.45,1 12,1 8.55,1 4.76,2.668 4.102,6.308 A 26.97,26.97 0 0 1 1,0 v 8 c 0,2.333 4,7.333 4,12 L 7.5,23 7.474,22.114 C 8.24,23.097 9.505,24 12,24 c 2.495,0 3.76,-0.903 4.526,-1.886 V 22.112 A 21.92,21.92 0 0 0 16.5,23 L 19,20 c 0,-4.667 4,-9.667 4,-12 V 0 a 26.97,26.97 0 0 1 -3.102,6.308 z"
         id="path305" />
    </g>
  </g>
</svg>
