<svg xmlns="http://www.w3.org/2000/svg" width="32" height="32" viewBox="0 0 32 32"><g transform="translate(0 -1020.362)"><path fill="#586597" style="line-height:normal;font-variant-ligatures:normal;font-variant-position:normal;font-variant-caps:normal;font-variant-numeric:normal;font-variant-alternates:normal;font-feature-settings:normal;text-indent:0;text-align:start;text-decoration-line:none;text-decoration-style:solid;text-decoration-color:#000;text-transform:none;text-orientation:mixed;shape-padding:0;isolation:auto;mix-blend-mode:normal" d="m 13.996208,1023.8603 c -0.822372,-1e-4 -1.49805,0.6776 -1.49805,1.4999 v 0.502 H 7.5001074 c -0.8223496,0 -1.4980422,0.6757 -1.4980422,1.498 v 1.5059 c 0,0.8223 0.6756926,1.498 1.4980422,1.498 H 7.52732 l 0.9765505,17.0293 c 0.044901,0.7862 0.6752731,1.4707 1.4980495,1.4707 h 11.996103 c 0.822777,0 1.452907,-0.6847 1.498039,-1.4707 l 0.976618,-17.0293 h 0.02721 c 0.82235,0 1.49805,-0.6757 1.49805,-1.498 v -1.5059 c 0,-0.8223 -0.6757,-1.498 -1.49805,-1.498 h -5.003902 v -0.502 c 0,-0.8223 -0.677639,-1.5 -1.5,-1.4999 z" color="#000" font-family="sans-serif" font-weight="400" overflow="visible" white-space="normal"/><path fill="#91a6b8" style="line-height:normal;font-variant-ligatures:normal;font-variant-position:normal;font-variant-caps:normal;font-variant-numeric:normal;font-variant-alternates:normal;font-feature-settings:normal;text-indent:0;text-align:start;text-decoration-line:none;text-decoration-style:solid;text-decoration-color:#000;text-transform:none;text-orientation:mixed;shape-padding:0;isolation:auto;mix-blend-mode:normal" d="M13.996208 1024.8641h3.999999c.285656 0 .501951.2106.501951.4961v.502h-4.996093v-.502c0-.2857.208479-.4961.494143-.4961zM7.5001074 1026.8661H24.500108c.285657 0 .501948.2086.501959.4941v1.5059c0 .2857-.216302.4942-.501959.4942-5.666672 0-11.333332 0-17.0000006 0-.2856567 0-.5019515-.2087-.5019515-.4942v-1.5059c0-.2857.2163024-.4941.5019515-.4941z" color="#000" font-family="sans-serif" font-weight="400" overflow="visible" white-space="normal"/><path fill="#b0dae4" style="line-height:normal;font-variant-ligatures:normal;font-variant-position:normal;font-variant-caps:normal;font-variant-numeric:normal;font-variant-alternates:normal;font-feature-settings:normal;text-indent:0;text-align:start;text-decoration-line:none;text-decoration-style:solid;text-decoration-color:#000;text-transform:none;text-orientation:mixed;shape-padding:0;isolation:auto;mix-blend-mode:normal" d="m 8.525497,1030.3641 h 2.505861 l 0.970707,13.5235 c 0.0443,0.6653 1.042311,0.5989 0.998041,-0.067 l -0.964838,-13.457 h 3.466798 v 13.4941 c -0.0652,0.7264 1.061329,0.7264 0.996091,0 v -13.494 h 3.46289 l -0.960941,13.457 c -0.0443,0.6654 0.953779,0.7318 0.998052,0.066 l 0.962888,-13.5234 h 2.505861 l -0.9668,16.9707 c -0.01852,0.3197 -0.216794,0.5254 -0.501951,0.5254 H 10.002068 c -0.2851657,0 -0.4836929,-0.2056 -0.5019632,-0.5254 z" color="#000" font-family="sans-serif" font-weight="400" overflow="visible" white-space="normal"/></g></svg>