<?xml version="1.0" encoding="UTF-8" standalone="no"?>
<!DOCTYPE svg PUBLIC "-//W3C//DTD SVG 1.1//EN"
 "http://www.w3.org/Graphics/SVG/1.1/DTD/svg11.dtd">
<!-- Generated by graphviz version 2.40.1 (20161225.0304)
 -->
<!-- Title: dependencies Pages: 1 -->
<svg width="785pt" height="284pt"
 viewBox="0.00 0.00 785.00 284.00" xmlns="http://www.w3.org/2000/svg" xmlns:xlink="http://www.w3.org/1999/xlink">
<g id="graph0" class="graph" transform="scale(1 1) rotate(0) translate(4 280)">
<title>dependencies</title>
<polygon fill="#ffffff" stroke="transparent" points="-4,4 -4,-280 781,-280 781,4 -4,4"/>
<text text-anchor="start" x="367.5091" y="-42.4" font-family="sans-serif" font-weight="bold" font-size="14.00" fill="#000000">Legend</text>
<polygon fill="#ffffb3" stroke="transparent" points="154.5,-10 154.5,-30 174.5,-30 174.5,-10 154.5,-10"/>
<text text-anchor="start" x="178.129" y="-15.4" font-family="sans-serif" font-size="14.00" fill="#000000"> &#160;Declarations</text>
<polygon fill="#8dd3c7" stroke="transparent" points="267.5,-10 267.5,-30 287.5,-30 287.5,-10 267.5,-10"/>
<text text-anchor="start" x="291.2251" y="-15.4" font-family="sans-serif" font-size="14.00" fill="#000000"> &#160;Module</text>
<polygon fill="#80b1d3" stroke="transparent" points="353.5,-10 353.5,-30 373.5,-30 373.5,-10 353.5,-10"/>
<text text-anchor="start" x="377.2812" y="-15.4" font-family="sans-serif" font-size="14.00" fill="#000000"> &#160;Bootstrap</text>
<polygon fill="#fdb462" stroke="transparent" points="450.5,-10 450.5,-30 470.5,-30 470.5,-10 450.5,-10"/>
<text text-anchor="start" x="474.1732" y="-15.4" font-family="sans-serif" font-size="14.00" fill="#000000"> &#160;Providers</text>
<polygon fill="#fb8072" stroke="transparent" points="546.5,-10 546.5,-30 566.5,-30 566.5,-10 546.5,-10"/>
<text text-anchor="start" x="570.2258" y="-15.4" font-family="sans-serif" font-size="14.00" fill="#000000"> &#160;Exports</text>
<g id="clust1" class="cluster">
<title>cluster_AdminModule</title>
<polygon fill="none" stroke="#000000" stroke-dasharray="1,5" points="8,-70 8,-268 769,-268 769,-70 8,-70"/>
</g>
<g id="clust2" class="cluster">
<title>cluster_AdminModule_declarations</title>
<polygon fill="none" stroke="#000000" points="184,-78 184,-130 761,-130 761,-78 184,-78"/>
</g>
<g id="clust7" class="cluster">
<title>cluster_AdminModule_imports</title>
<polygon fill="none" stroke="#000000" points="16,-78 16,-130 176,-130 176,-78 16,-78"/>
</g>
<g id="clust8" class="cluster">
<title>cluster_AdminModule_exports</title>
<polygon fill="none" stroke="#000000" points="187,-208 187,-260 626,-260 626,-208 187,-208"/>
</g>
<!-- AddHeroComponent -->
<g id="node1" class="node">
<title>AddHeroComponent</title>
<polygon fill="#ffffb3" stroke="#000000" points="752.9215,-122 619.0785,-122 619.0785,-86 752.9215,-86 752.9215,-122"/>
<text text-anchor="middle" x="686" y="-99.8" font-family="Times,serif" font-size="14.00" fill="#000000">AddHeroComponent</text>
</g>
<!-- AdminModule -->
<g id="node5" class="node">
<title>AdminModule</title>
<polygon fill="#8dd3c7" stroke="#000000" points="444.4386,-187 441.4386,-191 420.4386,-191 417.4386,-187 345.5614,-187 345.5614,-151 444.4386,-151 444.4386,-187"/>
<text text-anchor="middle" x="395" y="-164.8" font-family="Times,serif" font-size="14.00" fill="#000000">AdminModule</text>
</g>
<!-- AddHeroComponent&#45;&gt;AdminModule -->
<g id="edge1" class="edge">
<title>AddHeroComponent&#45;&gt;AdminModule</title>
<path fill="none" stroke="#000000" d="M686,-122.1061C686,-141.3391 686,-169 686,-169 686,-169 454.3642,-169 454.3642,-169"/>
<polygon fill="#000000" stroke="#000000" points="454.3642,-165.5001 444.3642,-169 454.3641,-172.5001 454.3642,-165.5001"/>
</g>
<!-- EditHeroComponent -->
<g id="node2" class="node">
<title>EditHeroComponent</title>
<polygon fill="#ffffb3" stroke="#000000" points="601.1485,-122 468.8515,-122 468.8515,-86 601.1485,-86 601.1485,-122"/>
<text text-anchor="middle" x="535" y="-99.8" font-family="Times,serif" font-size="14.00" fill="#000000">EditHeroComponent</text>
</g>
<!-- EditHeroComponent&#45;&gt;AdminModule -->
<g id="edge2" class="edge">
<title>EditHeroComponent&#45;&gt;AdminModule</title>
<path fill="none" stroke="#000000" d="M475.1078,-122.027C475.1078,-138.3976 475.1078,-160 475.1078,-160 475.1078,-160 454.3651,-160 454.3651,-160"/>
<polygon fill="#000000" stroke="#000000" points="454.3652,-156.5001 444.3651,-160 454.3651,-163.5001 454.3652,-156.5001"/>
</g>
<!-- MainComponent -->
<g id="node3" class="node">
<title>MainComponent</title>
<polygon fill="#ffffb3" stroke="#000000" points="450.3823,-122 339.6177,-122 339.6177,-86 450.3823,-86 450.3823,-122"/>
<text text-anchor="middle" x="395" y="-99.8" font-family="Times,serif" font-size="14.00" fill="#000000">MainComponent</text>
</g>
<!-- MainComponent&#45;&gt;AdminModule -->
<g id="edge3" class="edge">
<title>MainComponent&#45;&gt;AdminModule</title>
<path fill="none" stroke="#000000" d="M395,-122.1061C395,-122.1061 395,-140.991 395,-140.991"/>
<polygon fill="#000000" stroke="#000000" points="391.5001,-140.9909 395,-150.991 398.5001,-140.991 391.5001,-140.9909"/>
</g>
<!-- UserListComponent -->
<g id="node4" class="node">
<title>UserListComponent</title>
<polygon fill="#ffffb3" stroke="#000000" points="321.538,-122 192.462,-122 192.462,-86 321.538,-86 321.538,-122"/>
<text text-anchor="middle" x="257" y="-99.8" font-family="Times,serif" font-size="14.00" fill="#000000">UserListComponent</text>
</g>
<!-- UserListComponent&#45;&gt;AdminModule -->
<g id="edge4" class="edge">
<title>UserListComponent&#45;&gt;AdminModule</title>
<path fill="none" stroke="#000000" d="M315.4799,-122.027C315.4799,-138.3976 315.4799,-160 315.4799,-160 315.4799,-160 335.543,-160 335.543,-160"/>
<polygon fill="#000000" stroke="#000000" points="335.543,-163.5001 345.543,-160 335.543,-156.5001 335.543,-163.5001"/>
</g>
<!-- AddHeroComponent  -->
<g id="node7" class="node">
<title>AddHeroComponent </title>
<polygon fill="#fb8072" stroke="#000000" points="618.4208,-252 481.5792,-252 481.5792,-216 618.4208,-216 618.4208,-252"/>
<text text-anchor="middle" x="550" y="-229.8" font-family="Times,serif" font-size="14.00" fill="#000000">AddHeroComponent </text>
</g>
<!-- AdminModule&#45;&gt;AddHeroComponent  -->
<g id="edge6" class="edge">
<title>AdminModule&#45;&gt;AddHeroComponent </title>
<path fill="none" stroke="#000000" stroke-dasharray="5,2" d="M444.5751,-178C487.0561,-178 541.4318,-178 541.4318,-178 541.4318,-178 541.4318,-205.973 541.4318,-205.973"/>
<polygon fill="#000000" stroke="#000000" points="537.9319,-205.973 541.4318,-215.973 544.9319,-205.973 537.9319,-205.973"/>
</g>
<!-- EditHeroComponent  -->
<g id="node8" class="node">
<title>EditHeroComponent </title>
<polygon fill="#fb8072" stroke="#000000" points="463.1481,-252 326.8519,-252 326.8519,-216 463.1481,-216 463.1481,-252"/>
<text text-anchor="middle" x="395" y="-229.8" font-family="Times,serif" font-size="14.00" fill="#000000">EditHeroComponent </text>
</g>
<!-- AdminModule&#45;&gt;EditHeroComponent  -->
<g id="edge7" class="edge">
<title>AdminModule&#45;&gt;EditHeroComponent </title>
<path fill="none" stroke="#000000" stroke-dasharray="5,2" d="M395,-187.1061C395,-187.1061 395,-205.991 395,-205.991"/>
<polygon fill="#000000" stroke="#000000" points="391.5001,-205.9909 395,-215.991 398.5001,-205.991 391.5001,-205.9909"/>
</g>
<!-- MainComponent  -->
<g id="node9" class="node">
<title>MainComponent </title>
<polygon fill="#fb8072" stroke="#000000" points="309.3828,-252 194.6172,-252 194.6172,-216 309.3828,-216 309.3828,-252"/>
<text text-anchor="middle" x="252" y="-229.8" font-family="Times,serif" font-size="14.00" fill="#000000">MainComponent </text>
</g>
<!-- AdminModule&#45;&gt;MainComponent  -->
<g id="edge8" class="edge">
<title>AdminModule&#45;&gt;MainComponent </title>
<path fill="none" stroke="#000000" stroke-dasharray="5,2" d="M345.3869,-178C304.085,-178 252,-178 252,-178 252,-178 252,-205.973 252,-205.973"/>
<polygon fill="#000000" stroke="#000000" points="248.5001,-205.973 252,-215.973 255.5001,-205.973 248.5001,-205.973"/>
</g>
<!-- AdminRoutingModule -->
<g id="node6" class="node">
<title>AdminRoutingModule</title>
<polygon fill="#8dd3c7" stroke="#000000" points="167.5561,-122 164.5561,-126 143.5561,-126 140.5561,-122 24.4439,-122 24.4439,-86 167.5561,-86 167.5561,-122"/>
<text text-anchor="middle" x="96" y="-99.8" font-family="Times,serif" font-size="14.00" fill="#000000">AdminRoutingModule</text>
</g>
<!-- AdminRoutingModule&#45;&gt;AdminModule -->
<g id="edge5" class="edge">
<title>AdminRoutingModule&#45;&gt;AdminModule</title>
<path fill="none" stroke="#000000" d="M96,-122.1061C96,-141.3391 96,-169 96,-169 96,-169 335.6262,-169 335.6262,-169"/>
<polygon fill="#000000" stroke="#000000" points="335.6263,-172.5001 345.6262,-169 335.6262,-165.5001 335.6263,-172.5001"/>
</g>
</g>
</svg>
